<?xml version="1.0" encoding="UTF-8" standalone="no"?>
<!-- Created with Inkscape (http://www.inkscape.org/) -->

<svg
   xmlns:dc="http://purl.org/dc/elements/1.1/"
   xmlns:cc="http://creativecommons.org/ns#"
   xmlns:rdf="http://www.w3.org/1999/02/22-rdf-syntax-ns#"
   xmlns:svg="http://www.w3.org/2000/svg"
   xmlns="http://www.w3.org/2000/svg"
   xmlns:xlink="http://www.w3.org/1999/xlink"
   xmlns:sodipodi="http://sodipodi.sourceforge.net/DTD/sodipodi-0.dtd"
   xmlns:inkscape="http://www.inkscape.org/namespaces/inkscape"
   width="253.85533"
   height="65.650497"
   id="svg4783"
   version="1.1"
   inkscape:version="0.48.1 r9760"
   sodipodi:docname="button_base.svg"
   inkscape:export-filename="/home/fred/bloatit/resources/api/button_base.png"
   inkscape:export-xdpi="24.676126"
   inkscape:export-ydpi="24.676126">
  <defs
     id="defs4785">
    <linearGradient
       inkscape:collect="always"
       xlink:href="#linearGradient5102"
       id="linearGradient4695"
       gradientUnits="userSpaceOnUse"
       gradientTransform="matrix(0.08074541,0,0,0.2837485,248.06877,483.31724)"
       x1="395.4798"
       y1="83.625893"
       x2="392.43918"
       y2="307.87976" />
    <linearGradient
       id="linearGradient5102">
      <stop
         style="stop-color:#ffffff;stop-opacity:1;"
         offset="0"
         id="stop5104" />
      <stop
         style="stop-color:#e8e8e8;stop-opacity:1;"
         offset="1"
         id="stop5106" />
    </linearGradient>
  </defs>
  <sodipodi:namedview
     id="base"
     pagecolor="#ffffff"
     bordercolor="#666666"
     borderopacity="1.0"
     inkscape:pageopacity="0.0"
     inkscape:pageshadow="2"
     inkscape:zoom="1.979899"
     inkscape:cx="93.985744"
     inkscape:cy="20.865831"
     inkscape:document-units="px"
     inkscape:current-layer="layer1"
     showgrid="false"
     inkscape:window-width="1920"
     inkscape:window-height="1148"
     inkscape:window-x="-2"
     inkscape:window-y="-3"
     inkscape:window-maximized="1"
     fit-margin-top="0"
     fit-margin-left="0"
     fit-margin-right="0"
     fit-margin-bottom="0" />
  <metadata
     id="metadata4788">
    <rdf:RDF>
      <cc:Work
         rdf:about="">
        <dc:format>image/svg+xml</dc:format>
        <dc:type
           rdf:resource="http://purl.org/dc/dcmitype/StillImage" />
        <dc:title></dc:title>
      </cc:Work>
    </rdf:RDF>
  </metadata>
  <g
     inkscape:label="Calque 1"
     inkscape:groupmode="layer"
     id="layer1"
     transform="translate(-248.08217,-499.537)">
    <path
       style="fill:#f3f3f3;fill-opacity:1;fill-rule:evenodd;stroke:none"
       d="m 347.26497,499.97307 149.04109,0 c 2.88064,0 5.19971,2.31906 5.19971,5.1997 l 0,54.37882 c 0,2.88064 -2.31907,5.1997 -5.19971,5.1997 l -149.04109,0 c -2.88064,0 -5.19971,-2.31906 -5.19971,-5.1997 l 0,-16.72616 -11.56138,-10.46325 11.56138,-10.46325 0,-16.72616 c 0,-2.88064 2.31907,-5.1997 5.19971,-5.1997 z"
       id="path4657"
       inkscape:connector-curvature="0"
       sodipodi:nodetypes="ssssssscccss" />
    <path
       sodipodi:nodetypes="sccsscccss"
       inkscape:connector-curvature="0"
       id="progress"
       d="m 347.26497,499.97307 100.8172,0 0,64.77822 -100.8172,0 c -2.88064,0 -5.19971,-2.31906 -5.19971,-5.1997 l 0,-16.72616 -11.56138,-10.46325 11.56138,-10.46325 0,-16.72616 c 0,-2.88064 2.31907,-5.1997 5.19971,-5.1997 z"
       style="fill:#77cff1;fill-opacity:1;fill-rule:evenodd;stroke:none" />
    <path
       style="fill:none;stroke:#ababab;stroke-width:0.85124552;stroke-linecap:butt;stroke-linejoin:miter;stroke-miterlimit:4;stroke-opacity:1"
       d="m 347.26497,499.97307 149.04109,0 c 2.88064,0 5.19971,2.31906 5.19971,5.1997 l 0,54.37882 c 0,2.88064 -2.31907,5.1997 -5.19971,5.1997 l -149.04109,0 c -2.88064,0 -5.19971,-2.31906 -5.19971,-5.1997 l 0,-16.72616 -11.56138,-10.46325 11.56138,-10.46325 0,-16.72616 c 0,-2.88064 2.31907,-5.1997 5.19971,-5.1997 z"
       id="path4661"
       inkscape:connector-curvature="0"
       sodipodi:nodetypes="ssssssscccss" />
    <g
       id="g4685"
       transform="translate(-1.0428321,-6.2130003)">
      <rect
         style="fill:url(#linearGradient4695);fill-opacity:1;fill-rule:evenodd;stroke:#ababab;stroke-width:0.85100001;stroke-linecap:butt;stroke-linejoin:miter;stroke-miterlimit:4;stroke-opacity:1;stroke-dasharray:none"
         id="rect4687"
         width="74.002228"
         height="64.778229"
         x="249.53694"
         y="506.18607"
         ry="5.1997056" />
      <g
         transform="matrix(0.2837485,0,0,0.2837485,256.65009,423.13361)"
         id="g4689">
        <path
           inkscape:connector-curvature="0"
           id="path4691"
           transform="translate(7.2388062,308.74841)"
           d="M 96.78125,0 C 95.939672,0.01178363 95.095873,0.02921407 94.25,0.0625 40.114136,2.1927992 -2.0677996,47.83288 0.0625,101.96875 2.1927996,156.10462 47.832886,198.2553 101.96875,196.125 l 0.0312,0 C 156.12026,193.97438 198.25472,148.37109 196.125,94.25 194.02799,40.960003 149.80065,-0.74236854 96.78125,0 z m 2.25,12.09375 c 40.10079,0.450696 73.22036,32.244554 74.8125,72.71875 1.6435,41.77981 -30.94874,76.97827 -72.78125,78.625 -41.832507,1.64673 -77.075251,-30.87644 -78.71875,-72.65625 -1.643051,-41.768408 30.929551,-76.962594 72.75,-78.625 l 0.03125,0 c 1.307266,-0.05146 2.612676,-0.07704 3.90625,-0.0625 z"
           style="fill:#00526c;fill-opacity:1;stroke:none" />
        <path
           style="fill:#00526c;fill-opacity:1;stroke:none"
           d="M 72.818638,466.91335 C 29.670193,444.7102 13.43429,432.9862 27.800986,400.76794 c 14.366697,-32.21832 72.200334,4.4287 89.266434,-57.92954 4.14331,46.92592 -25.633366,50.71175 -39.251123,67.91603 -11.083949,16.94766 -3.531682,36.84633 10.152221,49.17213 10.328655,9.3035 50.893132,19.05557 78.513082,-18.62518 3.09762,5.62936 -44.46956,45.71744 -50.59103,46.19136 -10.72065,0.83 -32.884263,-14.07081 -43.071932,-20.57939 z"
           id="path4693"
           inkscape:connector-curvature="0"
           sodipodi:nodetypes="czccscsc" />
      </g>
    </g>
  </g>
</svg>
