<?xml version="1.0" encoding="UTF-8" standalone="no"?>
<!-- Created with Inkscape (http://www.inkscape.org/) -->

<svg
   xmlns:dc="http://purl.org/dc/elements/1.1/"
   xmlns:cc="http://creativecommons.org/ns#"
   xmlns:rdf="http://www.w3.org/1999/02/22-rdf-syntax-ns#"
   xmlns:svg="http://www.w3.org/2000/svg"
   xmlns="http://www.w3.org/2000/svg"
   xmlns:xlink="http://www.w3.org/1999/xlink"
   xmlns:sodipodi="http://sodipodi.sourceforge.net/DTD/sodipodi-0.dtd"
   xmlns:inkscape="http://www.inkscape.org/namespaces/inkscape"
   width="404.93469"
   height="65.629463"
   id="svg4248"
   version="1.1"
   inkscape:version="0.48.1 r9760"
   sodipodi:docname="button_long_base.svg"
   inkscape:export-filename="/home/fred/bloatit/resources/api/button_long_base.png"
   inkscape:export-xdpi="90"
   inkscape:export-ydpi="90">
  <defs
     id="defs4250">
    <linearGradient
       id="linearGradient5102">
      <stop
         style="stop-color:#ffffff;stop-opacity:1;"
         offset="0"
         id="stop5104" />
      <stop
         style="stop-color:#e8e8e8;stop-opacity:1;"
         offset="1"
         id="stop5106" />
    </linearGradient>
    <linearGradient
       inkscape:collect="always"
       xlink:href="#linearGradient5102"
       id="linearGradient4348"
       gradientUnits="userSpaceOnUse"
       gradientTransform="matrix(0.2837485,0,0,0.2837485,112.4777,591.38995)"
       x1="395.4798"
       y1="83.625893"
       x2="392.43918"
       y2="307.87976" />
  </defs>
  <sodipodi:namedview
     id="base"
     pagecolor="#ffffff"
     bordercolor="#666666"
     borderopacity="1.0"
     inkscape:pageopacity="0.0"
     inkscape:pageshadow="2"
     inkscape:zoom="1.979899"
     inkscape:cx="137.95616"
     inkscape:cy="-42.815527"
     inkscape:document-units="px"
     inkscape:current-layer="layer1"
     showgrid="false"
     fit-margin-top="0"
     fit-margin-left="0"
     fit-margin-right="0"
     fit-margin-bottom="0"
     inkscape:window-width="1920"
     inkscape:window-height="1148"
     inkscape:window-x="-2"
     inkscape:window-y="-3"
     inkscape:window-maximized="1" />
  <metadata
     id="metadata4253">
    <rdf:RDF>
      <cc:Work
         rdf:about="">
        <dc:format>image/svg+xml</dc:format>
        <dc:type
           rdf:resource="http://purl.org/dc/dcmitype/StillImage" />
        <dc:title></dc:title>
      </cc:Work>
    </rdf:RDF>
  </metadata>
  <g
     inkscape:label="Calque 1"
     inkscape:groupmode="layer"
     id="layer1"
     transform="translate(-152.13962,-613.83316)">
    <rect
       ry="5.1997056"
       y="614.25879"
       x="152.56525"
       height="64.778198"
       width="225.12396"
       id="rect4503"
       style="fill:url(#linearGradient4348);fill-opacity:1;fill-rule:evenodd;stroke:#5e5e5e;stroke-width:0.85124552;stroke-linecap:butt;stroke-linejoin:miter;stroke-miterlimit:4;stroke-opacity:1;stroke-dasharray:none"
       inkscape:export-xdpi="90"
       inkscape:export-ydpi="90" />
    <g
       id="g4507"
       transform="matrix(0.24131369,0,0,0.24131369,163.2505,548.47071)">
      <path
         style="fill:#00526c;fill-opacity:1;stroke:none"
         d="M 96.78125,0 C 95.939672,0.01178363 95.095873,0.02921407 94.25,0.0625 40.114136,2.1927992 -2.0677996,47.83288 0.0625,101.96875 2.1927996,156.10462 47.832886,198.2553 101.96875,196.125 l 0.0312,0 C 156.12026,193.97438 198.25472,148.37109 196.125,94.25 194.02799,40.960003 149.80065,-0.74236854 96.78125,0 z m 2.25,12.09375 c 40.10079,0.450696 73.22036,32.244554 74.8125,72.71875 1.6435,41.77981 -30.94874,76.97827 -72.78125,78.625 -41.832507,1.64673 -77.075251,-30.87644 -78.71875,-72.65625 -1.643051,-41.768408 30.929551,-76.962594 72.75,-78.625 l 0.03125,0 c 1.307266,-0.05146 2.612676,-0.07704 3.90625,-0.0625 z"
         transform="translate(7.2388062,308.74841)"
         id="path4509"
         inkscape:connector-curvature="0" />
      <path
         sodipodi:nodetypes="czccscsc"
         inkscape:connector-curvature="0"
         id="path4511"
         d="M 72.818638,466.91335 C 29.670193,444.7102 13.43429,432.9862 27.800986,400.76794 c 14.366697,-32.21832 72.200334,4.4287 89.266434,-57.92954 4.14331,46.92592 -25.633366,50.71175 -39.251123,67.91603 -11.083949,16.94766 -3.531682,36.84633 10.152221,49.17213 10.328655,9.3035 50.893132,19.05557 78.513082,-18.62518 3.09762,5.62936 -44.46956,45.71744 -50.59103,46.19136 -10.72065,0.83 -32.884263,-14.07081 -43.071932,-20.57939 z"
         style="fill:#00526c;fill-opacity:1;stroke:none" />
    </g>
    <g
       transform="matrix(0.32644164,0,0,0.32644164,196.02553,548.99885)"
       style="font-size:144px;font-style:normal;font-variant:normal;font-weight:normal;font-stretch:normal;line-height:125%;letter-spacing:0px;word-spacing:0px;fill:#00526c;fill-opacity:1;stroke:none;font-family:Ubuntu;-inkscape-font-specification:Ubuntu"
       id="flowRoot4513">
      <path
         d="m 99.54025,354.06772 0,-99.792 60.912,0 0,11.952 -46.944,0 0,29.664 41.76,0 0,11.664 -41.76,0 0,34.56 50.544,0 0,11.952 -64.512,0"
         style="fill:#00526c;font-family:Ubuntu;-inkscape-font-specification:Ubuntu"
         id="path5410"
         inkscape:connector-curvature="0" />
      <path
         d="m 203.26525,355.50772 c -8.25603,-0.192 -14.11202,-1.968 -17.568,-5.328 -3.45601,-3.35999 -5.18401,-8.59199 -5.184,-15.696 l 0,-89.856 13.392,-2.304 0,90 c -2e-5,2.20802 0.19198,4.03202 0.576,5.472 0.38397,1.44002 1.00797,2.59202 1.872,3.456 0.86397,0.86401 2.01597,1.53601 3.456,2.016 1.43997,0.38401 3.21597,0.72001 5.328,1.008 l -1.872,11.232"
         style="fill:#00526c;font-family:Ubuntu;-inkscape-font-specification:Ubuntu"
         id="path5412"
         inkscape:connector-curvature="0" />
      <path
         d="m 278.64025,279.18772 c -3.74407,14.01606 -8.16006,27.45605 -13.248,40.32 -4.99205,12.86402 -9.84005,24.38401 -14.544,34.56 l -12.096,0 c -4.70403,-10.17599 -9.60002,-21.69598 -14.688,-34.56 -4.99201,-12.86395 -9.36001,-26.30394 -13.104,-40.32 l 14.4,0 c 1.15198,4.70407 2.49598,9.74407 4.032,15.12 1.63198,5.28006 3.31198,10.56005 5.04,15.84 1.82397,5.18404 3.64797,10.22404 5.472,15.12 1.82397,4.89603 3.55197,9.26402 5.184,13.104 1.63196,-3.83998 3.35996,-8.20797 5.184,-13.104 1.82396,-4.89596 3.59995,-9.93596 5.328,-15.12 1.82395,-5.27995 3.50395,-10.55994 5.04,-15.84 1.63195,-5.37593 3.02394,-10.41593 4.176,-15.12 l 13.824,0"
         style="fill:#00526c;font-family:Ubuntu;-inkscape-font-specification:Ubuntu"
         id="path5414"
         inkscape:connector-curvature="0" />
      <path
         d="m 286.31275,316.77172 c -10e-6,-6.62395 0.95999,-12.38395 2.88,-17.28 1.91999,-4.99194 4.46399,-9.11993 7.632,-12.384 3.16798,-3.26393 6.81598,-5.71193 10.944,-7.344 4.12797,-1.63192 8.35196,-2.44792 12.672,-2.448 10.07995,8e-5 17.80794,3.16808 23.184,9.504 5.37593,6.24006 8.06393,15.79205 8.064,28.656 -7e-5,0.57604 -7e-5,1.34404 0,2.304 -7e-5,0.86404 -0.0481,1.68004 -0.144,2.448 l -51.264,0 c 0.57598,7.77603 2.83198,13.68002 6.768,17.712 3.93597,4.03201 10.07996,6.04801 18.432,6.048 4.70395,10e-6 8.63994,-0.38399 11.808,-1.152 3.26394,-0.86399 5.71194,-1.67999 7.344,-2.448 l 1.872,11.232 c -1.63207,0.864 -4.51206,1.776 -8.64,2.736 -4.03205,0.96 -8.64005,1.44 -13.824,1.44 -6.52804,0 -12.19203,-0.96 -16.992,-2.88 -4.70402,-2.01599 -8.59202,-4.75199 -11.664,-8.208 -3.07201,-3.45599 -5.37601,-7.53598 -6.912,-12.24 -1.44001,-4.79997 -2.16001,-10.03197 -2.16,-15.696 m 51.408,-7.344 c 0.0959,-6.04795 -1.44006,-10.99194 -4.608,-14.832 -3.07205,-3.93593 -7.34405,-5.90393 -12.816,-5.904 -3.07204,7e-5 -5.80804,0.62407 -8.208,1.872 -2.30403,1.15206 -4.27203,2.68806 -5.904,4.608 -1.63203,1.92006 -2.92802,4.12806 -3.888,6.624 -0.86402,2.49605 -1.44002,5.04005 -1.728,7.632 l 37.152,0"
         style="fill:#00526c;font-family:Ubuntu;-inkscape-font-specification:Ubuntu"
         id="path5416"
         inkscape:connector-curvature="0" />
      <path
         d="m 437.02225,316.62772 c -8e-5,5.95203 -0.86408,11.32803 -2.592,16.128 -1.72807,4.80002 -4.17607,8.92801 -7.344,12.384 -3.07206,3.45601 -6.76806,6.144 -11.088,8.064 -4.32005,1.824 -9.02405,2.736 -14.112,2.736 -5.08804,0 -9.79203,-0.912 -14.112,-2.736 -4.32002,-1.92 -8.06402,-4.60799 -11.232,-8.064 -3.07201,-3.45599 -5.47201,-7.58398 -7.2,-12.384 -1.72801,-4.79997 -2.59201,-10.17597 -2.592,-16.128 -10e-6,-5.85595 0.86399,-11.18395 2.592,-15.984 1.72799,-4.89594 4.12799,-9.07194 7.2,-12.528 3.16798,-3.45593 6.91198,-6.09593 11.232,-7.92 4.31997,-1.91992 9.02396,-2.87992 14.112,-2.88 5.08795,8e-5 9.79195,0.96008 14.112,2.88 4.31994,1.82407 8.01594,4.46407 11.088,7.92 3.16793,3.45606 5.61593,7.63206 7.344,12.528 1.72792,4.80005 2.59192,10.12805 2.592,15.984 m -13.968,0 c -6e-5,-8.44795 -1.92006,-15.11995 -5.76,-20.016 -3.74405,-4.99194 -8.88005,-7.48793 -15.408,-7.488 -6.52804,7e-5 -11.71203,2.49606 -15.552,7.488 -3.74402,4.89605 -5.61602,11.56805 -5.616,20.016 -2e-5,8.44803 1.87198,15.16802 5.616,20.16 3.83997,4.89601 9.02396,7.34401 15.552,7.344 6.52795,1e-5 11.66395,-2.44799 15.408,-7.344 3.83994,-4.99198 5.75994,-11.71197 5.76,-20.16"
         style="fill:#00526c;font-family:Ubuntu;-inkscape-font-specification:Ubuntu"
         id="path5418"
         inkscape:connector-curvature="0" />
      <path
         d="m 473.28775,344.41972 c 5.47197,1e-5 9.50396,-0.71999 12.096,-2.16 2.68796,-1.43998 4.03195,-3.74398 4.032,-6.912 -5e-5,-3.26398 -1.29604,-5.85597 -3.888,-7.776 -2.59204,-1.91997 -6.86403,-4.07997 -12.816,-6.48 -2.88003,-1.15196 -5.66402,-2.30396 -8.352,-3.456 -2.59202,-1.24796 -4.84802,-2.68796 -6.768,-4.32 -1.92001,-1.63196 -3.45601,-3.59995 -4.608,-5.904 -1.15201,-2.30395 -1.72801,-5.13595 -1.728,-8.496 -10e-6,-6.62394 2.44799,-11.85593 7.344,-15.696 4.89598,-3.93592 11.56797,-5.90392 20.016,-5.904 2.11196,8e-5 4.22396,0.14408 6.336,0.432 2.11196,0.19208 4.07996,0.48008 5.904,0.864 1.82395,0.28808 3.40795,0.62408 4.752,1.008 1.43995,0.38408 2.54395,0.72008 3.312,1.008 l -2.448,11.52 c -1.44005,-0.76794 -3.69605,-1.53593 -6.768,-2.304 -3.07204,-0.86393 -6.76804,-1.29593 -11.088,-1.296 -3.74403,7e-5 -7.00803,0.76807 -9.792,2.304 -2.78402,1.44006 -4.17602,3.74406 -4.176,6.912 -2e-5,1.63206 0.28798,3.07206 0.864,4.32 0.67198,1.24805 1.63198,2.40005 2.88,3.456 1.34397,0.96005 2.97597,1.87205 4.896,2.736 1.91997,0.86405 4.22397,1.77605 6.912,2.736 3.55196,1.34404 6.71996,2.68804 9.504,4.032 2.78395,1.24804 5.13595,2.73604 7.056,4.464 2.01595,1.72803 3.55194,3.84003 4.608,6.336 1.05594,2.40003 1.58394,5.37602 1.584,8.928 -6e-5,6.91201 -2.59206,12.14401 -7.776,15.696 -5.08805,3.552 -12.38404,5.328 -21.888,5.328 -6.62402,0 -11.80802,-0.576 -15.552,-1.728 -3.74401,-1.056 -6.28801,-1.872 -7.632,-2.448 l 2.448,-11.52 c 1.53599,0.57602 3.98399,1.44001 7.344,2.592 3.35998,1.15201 7.82398,1.72801 13.392,1.728"
         style="fill:#00526c;font-family:Ubuntu;-inkscape-font-specification:Ubuntu"
         id="path5420"
         inkscape:connector-curvature="0" />
    </g>
    <path
       sodipodi:nodetypes="ssssssscccss"
       inkscape:connector-curvature="0"
       id="path4521"
       d="m 402.40789,614.25878 149.04109,0 c 2.88064,0 5.19971,2.31906 5.19971,5.1997 l 0,54.37882 c 0,2.88064 -2.31907,5.1997 -5.19971,5.1997 l -149.04109,0 c -2.88064,0 -5.19971,-2.31906 -5.19971,-5.1997 l 0,-16.72616 -11.56138,-10.46325 11.56138,-10.46325 0,-16.72616 c 0,-2.88064 2.31907,-5.1997 5.19971,-5.1997 z"
       style="fill:#ffffff;fill-opacity:1;fill-rule:evenodd;stroke:none" />
    <path
       style="fill:#77cff1;fill-opacity:1;fill-rule:evenodd;stroke:none"
       d="m 402.40789,614.25878 75.04109,0 0,64.77822 -75.04109,0 c -2.88064,0 -5.19971,-2.31906 -5.19971,-5.1997 l 0,-16.72616 -11.56138,-10.46325 11.56138,-10.46325 0,-16.72616 c 0,-2.88064 2.31907,-5.1997 5.19971,-5.1997 z"
       id="progress"
       inkscape:connector-curvature="0"
       sodipodi:nodetypes="sccsscccss"
       inkscape:label="#progress" />
    <path
       sodipodi:nodetypes="ssssssscccss"
       inkscape:connector-curvature="0"
       id="path4533"
       d="m 402.40789,614.25878 149.04109,0 c 2.88064,0 5.19971,2.31906 5.19971,5.1997 l 0,54.37882 c 0,2.88064 -2.31907,5.1997 -5.19971,5.1997 l -149.04109,0 c -2.88064,0 -5.19971,-2.31906 -5.19971,-5.1997 l 0,-16.72616 -11.56138,-10.46325 11.56138,-10.46325 0,-16.72616 c 0,-2.88064 2.31907,-5.1997 5.19971,-5.1997 z"
       style="fill:none;stroke:#5e5e5e;stroke-width:0.85124552;stroke-linecap:butt;stroke-linejoin:miter;stroke-miterlimit:4;stroke-opacity:1" />
  </g>
</svg>
