<?xml version="1.0" encoding="UTF-8" standalone="no"?>
<!-- Created with Inkscape (http://www.inkscape.org/) -->

<svg
   xmlns:dc="http://purl.org/dc/elements/1.1/"
   xmlns:cc="http://creativecommons.org/ns#"
   xmlns:rdf="http://www.w3.org/1999/02/22-rdf-syntax-ns#"
   xmlns:svg="http://www.w3.org/2000/svg"
   xmlns="http://www.w3.org/2000/svg"
   xmlns:sodipodi="http://sodipodi.sourceforge.net/DTD/sodipodi-0.dtd"
   xmlns:inkscape="http://www.inkscape.org/namespaces/inkscape"
   width="196.19792"
   height="196.19794"
   id="svg7784"
   version="1.1"
   inkscape:version="0.48.0 r9654"
   sodipodi:docname="favicon.svg">
  <defs
     id="defs7786" />
  <sodipodi:namedview
     id="base"
     pagecolor="#ffffff"
     bordercolor="#666666"
     borderopacity="1.0"
     inkscape:pageopacity="0.0"
     inkscape:pageshadow="2"
     inkscape:zoom="0.7"
     inkscape:cx="400.91552"
     inkscape:cy="215.87276"
     inkscape:document-units="px"
     inkscape:current-layer="layer1"
     showgrid="false"
     fit-margin-top="0"
     fit-margin-left="0"
     fit-margin-right="0"
     fit-margin-bottom="0"
     inkscape:window-width="958"
     inkscape:window-height="439"
     inkscape:window-x="960"
     inkscape:window-y="19"
     inkscape:window-maximized="0" />
  <metadata
     id="metadata7789">
    <rdf:RDF>
      <cc:Work
         rdf:about="">
        <dc:format>image/svg+xml</dc:format>
        <dc:type
           rdf:resource="http://purl.org/dc/dcmitype/StillImage" />
        <dc:title />
      </cc:Work>
    </rdf:RDF>
  </metadata>
  <g
     inkscape:label="Calque 1"
     inkscape:groupmode="layer"
     id="layer1"
     transform="translate(-599.0439,2.8796437)">
    <g
       id="g3033">
      <path
         id="path5777"
         transform="translate(599.0439,-2.8796437)"
         d="M 96.78125 0 C 95.939672 0.011783628 95.095873 0.029214075 94.25 0.0625 C 40.114136 2.1927992 -2.0677996 47.83288 0.0625 101.96875 C 2.1927996 156.10462 47.832886 198.2553 101.96875 196.125 L 102 196.125 C 156.12026 193.97438 198.25472 148.37109 196.125 94.25 C 194.02799 40.960003 149.80065 -0.74236854 96.78125 0 z M 99.03125 12.09375 C 139.13204 12.544446 172.25161 44.338304 173.84375 84.8125 C 175.48725 126.59231 142.89501 161.79077 101.0625 163.4375 C 59.229993 165.08423 23.987249 132.56106 22.34375 90.78125 C 20.700699 49.012842 53.273301 13.818656 95.09375 12.15625 L 95.125 12.15625 C 96.432266 12.10479 97.737676 12.079211 99.03125 12.09375 z "
         style="fill:#00526c;fill-opacity:1;stroke:none" />
      <path
         style="fill:#00526c;fill-opacity:1;stroke:none"
         d="m 664.62373,155.2853 c -43.14845,-22.20315 -59.38435,-33.92715 -45.01765,-66.14541 14.36669,-32.21832 72.20033,4.4287 89.26643,-57.92954 4.14331,46.92592 -25.63337,50.71175 -39.25112,67.91603 -11.08395,16.94766 -3.53169,36.84633 10.15222,49.17213 10.32865,9.3035 50.89313,19.05557 78.51308,-18.62518 3.09762,5.62936 -44.46956,45.71744 -50.59103,46.19136 -10.72065,0.83 -32.88426,-14.07081 -43.07193,-20.57939 z"
         id="path5781"
         inkscape:connector-curvature="0"
         sodipodi:nodetypes="czccscsc" />
    </g>
  </g>
</svg>
