<?xml version="1.0" encoding="UTF-8" standalone="no"?>
<!-- Created with Inkscape (http://www.inkscape.org/) -->

<svg
   xmlns:dc="http://purl.org/dc/elements/1.1/"
   xmlns:cc="http://creativecommons.org/ns#"
   xmlns:rdf="http://www.w3.org/1999/02/22-rdf-syntax-ns#"
   xmlns:svg="http://www.w3.org/2000/svg"
   xmlns="http://www.w3.org/2000/svg"
   xmlns:xlink="http://www.w3.org/1999/xlink"
   xmlns:sodipodi="http://sodipodi.sourceforge.net/DTD/sodipodi-0.dtd"
   xmlns:inkscape="http://www.inkscape.org/namespaces/inkscape"
   width="174.31299"
   height="136.1133"
   id="svg15925"
   version="1.1"
   inkscape:version="0.48.0 r9654"
   sodipodi:docname="stamp_success_en.svg">
  <defs
     id="defs15927">
    <linearGradient
       id="linearGradient4608">
      <stop
         style="stop-color:#449a32;stop-opacity:1;"
         offset="0"
         id="stop4610" />
      <stop
         style="stop-color:#357a28;stop-opacity:1;"
         offset="1"
         id="stop4612" />
    </linearGradient>
    <linearGradient
       inkscape:collect="always"
       xlink:href="#linearGradient4608"
       id="linearGradient4614"
       x1="191.17137"
       y1="168.73125"
       x2="282.33765"
       y2="273.78711"
       gradientUnits="userSpaceOnUse" />
    <linearGradient
       inkscape:collect="always"
       xlink:href="#linearGradient4608"
       id="linearGradient4085"
       gradientUnits="userSpaceOnUse"
       x1="191.17137"
       y1="168.73125"
       x2="282.33765"
       y2="273.78711" />
    <linearGradient
       inkscape:collect="always"
       xlink:href="#linearGradient4608"
       id="linearGradient4087"
       gradientUnits="userSpaceOnUse"
       x1="191.17137"
       y1="168.73125"
       x2="282.33765"
       y2="273.78711" />
    <linearGradient
       inkscape:collect="always"
       xlink:href="#linearGradient4608"
       id="linearGradient4089"
       gradientUnits="userSpaceOnUse"
       x1="191.17137"
       y1="168.73125"
       x2="282.33765"
       y2="273.78711" />
    <linearGradient
       inkscape:collect="always"
       xlink:href="#linearGradient4608"
       id="linearGradient4091"
       gradientUnits="userSpaceOnUse"
       x1="191.17137"
       y1="168.73125"
       x2="282.33765"
       y2="273.78711" />
  </defs>
  <sodipodi:namedview
     id="base"
     pagecolor="#ffffff"
     bordercolor="#666666"
     borderopacity="1.0"
     inkscape:pageopacity="0.0"
     inkscape:pageshadow="2"
     inkscape:zoom="1.4"
     inkscape:cx="131.19223"
     inkscape:cy="7.703838"
     inkscape:document-units="px"
     inkscape:current-layer="layer1"
     showgrid="false"
     inkscape:window-width="958"
     inkscape:window-height="1155"
     inkscape:window-x="0"
     inkscape:window-y="19"
     inkscape:window-maximized="0"
     fit-margin-top="0"
     fit-margin-left="0"
     fit-margin-right="0"
     fit-margin-bottom="0" />
  <metadata
     id="metadata15930">
    <rdf:RDF>
      <cc:Work
         rdf:about="">
        <dc:format>image/svg+xml</dc:format>
        <dc:type
           rdf:resource="http://purl.org/dc/dcmitype/StillImage" />
        <dc:title />
      </cc:Work>
    </rdf:RDF>
  </metadata>
  <g
     inkscape:label="Calque 1"
     inkscape:groupmode="layer"
     id="layer1"
     transform="translate(-147.45502,-155.43028)">
    <g
       id="g4602"
       style="fill:url(#linearGradient4614);fill-opacity:1"
       transform="matrix(0.96592583,-0.25881904,0.25881904,0.96592583,-49.865782,68.347183)">
      <path
         inkscape:connector-curvature="0"
         id="path15950"
         d="m 234.65625,173.28125 c -3.45255,-0.41369 -7.52474,0.30577 -8.06941,3.37033 -0.53869,-1.38815 1.57104,-4.26662 -1.80292,-2.39284 -9.51999,2.01563 -18.86668,6.52952 -25.31522,13.96001 -3.42877,2.23106 -5.61806,6.3045 -7.44795,9.54934 -3.15344,2.73202 -3.12321,7.13252 -4.67346,9.7443 4.2301,1.50353 11.78207,-1.82507 13.12967,-3.89679 -3.47961,0.29821 -5.74638,0.67408 -8.68943,-0.46137 2.40594,-2.88277 5.1626,-5.61987 7.4833,-9.19746 10.54151,-12.9341 28.48063,-19.41658 44.80357,-15.7041 10.72875,2.2544 20.62181,8.4154 27.1575,17.23761 3.05745,3.22092 4.48314,7.60963 5.43607,11.15836 2.01663,0.31124 4.6027,0.52325 5.32542,0.6807 0.79269,-2.64451 -4.29188,-1.80192 -1.25636,-4.19696 -3.37855,-6.59332 -7.76536,-13.09855 -13.62334,-17.91527 -2.55128,-2.73561 -6.32531,-4.08584 -9.69447,-4.33897 2.08367,0.21551 5.87117,0.36239 1.72445,-1.2154 -7.47061,-4.10775 -15.94093,-6.439 -24.48742,-6.38149 z m -0.4375,0.15625 c 3.11046,2.57787 -5.67992,4.94438 -0.97731,1.28596 0.33609,-0.42077 0.6533,-0.85598 0.97731,-1.28596 z m 6.09375,0.34375 c 3.08173,0.53054 -2.90991,1.38278 -0.65917,0.24118 l 0.65917,-0.24118 z m 3.78125,1.46875 c 0.85505,1.4346 -1.83865,0.91381 0,0 z m -16.25,1.71875 c 0.28658,0.24534 -0.43694,0.0684 0,0 z m -13.875,2.40625 c 3.25037,1.44431 -3.52004,2.02033 0,0 z m 2.5,0.78125 c 0.35381,1.39212 -1.83505,0.13092 -5e-5,0 l 5e-5,0 z m 44.0625,2.75 c -0.59455,1.28204 -0.82281,-0.68191 0,0 z m -62.84375,8.03125 c 3.04045,0.65704 1.69352,2.6448 0.28796,0.46609 l -0.1454,-0.23533 -0.14256,-0.23076 z m -1.40625,6.6875 c -0.41025,0.37296 -0.3508,0.31891 0,0 z m -4.75,2.375 c 2.40199,0.54525 -2.02498,1.70314 0,0 z m 0.0312,1.21875 c -0.15365,0.58831 -0.37754,-0.15607 0,0 z m 20,2.46875 c -3.37153,3.14638 5.4863,2.2275 7.3168,1.57913 3.26796,-1.44822 -0.53553,3.91927 2.97914,2.41181 8.84922,-0.0321 17.69984,0.12083 26.54786,-0.0847 0.0642,-2.90242 -5.61737,-0.49636 -6.74505,-2.98409 -5.65173,-0.16786 -11.08922,3.19505 -16.73251,1.88761 -0.26932,-2.01057 5.52046,-3.30281 0.96689,-2.82079 -4.7777,-0.005 -9.55581,0.12018 -14.33313,0.0111 z m 35.21875,0 c 2.92575,1.005 7.45614,6.07154 9.86169,3.28435 -2.1549,-2.71286 -5.57964,-3.63263 -8.88917,-3.28435 -0.32418,0 -0.64835,0 -0.97252,0 z m 25.65625,0 c -2.20063,1.33261 -9.16435,5.58517 -3.42366,2.39651 1.05634,-0.76343 2.96026,-1.13692 3.42366,-2.39651 z m -47.625,0.84375 c -1.26442,1.67449 -2.99748,0.46392 0,0 z m -37.34375,34.8125 c 0.29343,4.85319 3.7191,8.77433 5.99842,12.8658 6.73193,9.69125 16.98011,16.89163 28.40783,19.85295 1.19564,-1.02036 2.77794,2.56987 3.56626,-0.78994 2.08917,-2.74421 0.009,3.74759 3.36386,2.18946 8.03466,0.5797 16.39981,-0.0404 23.89136,-3.17079 1.2609,-1.24469 1.29295,-4.59357 2.51222,-1.16907 2.69245,-0.78945 7.86221,-3.68467 7.43225,-4.86259 4.11504,-1.4618 7.4063,-4.48292 8.65867,-8.73777 1.79029,2.79999 4.7395,-4.37033 6.58885,-6.54471 1.48175,-2.60045 4.26411,-7.82387 3.97197,-9.22827 -2.07696,1.91848 -5.92048,2.3361 -7.78302,3.59482 5.29002,-0.12474 -1.92406,5.18475 -2.24256,7.54659 -3.69868,4.24745 -7.32417,9.04559 -12.41266,11.52483 -4.12349,3.5859 -9.59547,4.61251 -14.667,6.2113 -8.74693,2.14605 -18.03784,1.32279 -26.39952,-1.96947 -3.31545,-0.64136 -5.29256,-3.31824 -7.63176,-1.61515 1.20735,-2.76544 -3.12378,0.8195 -0.0987,-1.66686 -3.76564,-3.69932 -8.94702,-6.04161 -11.57952,-10.83392 -0.68516,-1.60242 -3.13034,-3.77555 -4.20178,-1.19733 1.12222,-3.01664 0.0595,-5.03982 -1.81699,-7.49189 1.25657,-5.34495 6.77049,1.71146 9.85938,-0.7819 4.92835,0.51744 9.93238,0.17471 14.89511,0.27384 -2.57477,-1.13567 -10.05559,-0.24767 -9.67591,-2.87025 4.35219,-2.12867 -4.98336,2.77185 -6.6409,-0.59474 -3.73514,-1.51449 -7.25055,0.69703 -10.8117,-0.53496 -1.06139,1e-5 -2.12283,-3e-5 -3.18419,2e-5 z m 23.5938,24.03125 c -0.29943,0.22118 0.2225,-0.0148 0,0 z m 0.0625,0 c 0.41674,0.26674 0.14131,-0.23754 0,0 z m -23.25,-23.4375 c 0.55765,0.46869 -1.32043,0.38652 0,0 z m 92.6875,1.75 c 0.61964,0.85023 -1.85284,0.72289 0,0 z m -0.375,1.125 -0.21763,0.12355 0.21763,-0.12355 z m -90.59375,1.25 c 0.69778,1.0787 -1.82836,-0.21591 0,0 z m 1.5,1.84375 c 3.36469,-0.33508 1.8278,2.53653 0,0 z m 87.34375,0.0625 c -0.52895,1.89519 -2.46344,-0.60438 0,0 z m -2.3125,3.34375 c -0.8389,3.61196 -3.81886,-0.25034 0,0 z m -6.15625,8.90625 c 0.16081,0.37468 -0.45968,-0.0526 0,0 z m -66.3125,1.03125 c 1.19951,-0.52782 0.80019,1.29837 0,0 z m 62.28125,0.1875 c 0.48992,0.71353 -0.54706,0.22271 0,0 z m -6.25,3.6875 c 1.99996,1.65343 -2.65603,2.72488 -5e-5,0 l 5e-5,0 z m -51.46875,0.25 c 0.98196,-0.45939 -0.2801,0.80941 0,0 z m 45.65625,4.53125 0.0651,0.14593 -0.0651,-0.14593 z M 247,268.5 c -0.0177,2.07257 -1.9657,-0.38976 0,0 z m -22.65625,0.96875 c -0.26508,1.18485 -1.33724,0.90316 0,0 z M 220.5,269.6875 c 0.1854,2.28946 -1.11565,1.1286 0,0 z m 28.03125,0.34375 c -0.0701,2.24096 -2.41209,0.26508 0,0 z"
         style="font-size:medium;font-style:normal;font-variant:normal;font-weight:normal;font-stretch:normal;text-indent:0;text-align:start;text-decoration:none;line-height:normal;letter-spacing:normal;word-spacing:normal;text-transform:none;direction:ltr;block-progression:tb;writing-mode:lr-tb;text-anchor:start;baseline-shift:baseline;color:#000000;fill:url(#linearGradient4085);fill-opacity:1;stroke:none;stroke-width:4;marker:none;visibility:visible;display:inline;overflow:visible;enable-background:accumulate;font-family:Sans;-inkscape-font-specification:Sans" />
      <path
         inkscape:connector-curvature="0"
         id="rect15954"
         d="m 154.40625,203.65625 c -4.90787,-0.71622 -9.11105,8.87502 -3.5625,6.90635 -3.59627,0.1249 -2.50152,2.88858 -2.71875,4.8152 0.0818,2.32154 -0.0394,5.7408 0,8.5599 2.40674,-3.46377 -1.07905,3.3046 5e-5,5.43674 0.37171,4.37412 -1.37201,9.84374 2.81859,12.86607 4.05105,1.96669 8.76329,0.77665 13.14273,1.10339 2.86038,1.23299 5.32332,-2.18591 6.03133,-1.55605 1.45734,2.72459 4.87999,1.1336 7.38693,1.55605 1.38259,0.16857 1.3976,-3.75967 1.93287,0 4.52083,0 9.04167,0 13.5625,0 2.17278,-3.30362 -3.27864,-6.18587 -2.9999,-2.25 -0.98028,-2.98388 -4.47725,-1.32516 -6.83703,-1.75 -2.88926,0.13408 -5.99826,-0.26236 -8.75672,0.1875 0.20664,4.06428 -3.04507,-2.00173 -6.15554,-0.1875 -4.40594,0.0422 -8.98036,-0.0841 -13.28196,0.0625 1.33051,3.90224 -4.01837,4.2724 -0.40625,0.4688 -0.21439,-3.03167 -4.52908,4.04799 -3.00005,-0.9063 1.05517,-3.37627 -0.0639,-4.91082 0.5624,-6.1874 0.23022,-2.48963 0.0305,-4.53651 -1.35749,-3.96855 -0.005,-0.93209 3.11083,-2.75546 0.16999,-1.719 1.25652,-2.28875 1.35402,-5.03096 1.1875,-8.05578 1.00424,-5.66101 -2.29117,4.57251 -1.52441,0.18093 1.25535,-2.21659 0.0399,-4.05102 1.52446,-3.8353 0.37987,-2.63402 -1.29229,-7.07929 2.375,-7.7274 2.38534,0.3455 6.21079,-0.53261 7.1875,0 2.30953,0.1363 4.35895,-0.26508 6.42015,0 9.93285,0 19.8657,0 29.79855,0 -0.26868,-2.66804 5.08171,1.25535 7.95943,0 3.33828,0.11529 4.79213,-1.02388 7.81586,0 10.31451,0 20.62901,0 30.94351,0 -2.14486,-2.08169 5.8461,-3.85639 2.2812,-5e-5 2.23958,0 4.47917,0 6.71875,0 -3.48059,-5.10891 2.29665,1.6698 5.0625,-0.0625 2.52419,-0.14844 5.33175,0.20674 8.05578,0.0625 6.81474,0 13.62948,0 20.44422,0 -2.24183,-4.57875 4.10513,-1.26449 5.19005,-5e-5 4.96786,0 9.93573,0 14.9036,0 -0.34138,-2.7563 2.44928,-0.81544 1.16755,0 2.21445,0.0211 4.4331,-0.0421 6.64495,0.0312 3.1543,-0.56469 1.77103,4.22459 2.0625,6.99063 -0.11683,7.73046 0.23592,15.50519 -0.18041,23.2074 -1.84168,2.54984 -5.49828,1.05524 -8.23042,1.45822 -2.72764,0 -5.45528,0 -8.18292,0 0.92016,1.30077 -3.37947,-1.14416 -4.69513,0.46012 -2.28737,2.34045 -3.22046,-1.84515 -7.108,-0.46022 -10.54002,3.6e-4 -21.15803,-2.7e-4 -31.72802,0 -0.0595,0.57634 -7.16291,-1.5065 -3.5625,2.1875 -1.13903,-3.49013 -4.91502,-1.79482 -7.62958,-2.1875 -5.41514,0 -10.83028,0 -16.24542,0 1.98159,2.97849 -3.37449,1.14116 -1.4488,0 -3.12603,0.49873 -2.53962,-0.0727 -6.22664,0 -2.62951,-0.0101 -5.16091,-0.71256 -4.66826,2.59375 -4.01951,-0.2339 1.08687,-3.60662 -3.71539,-2.59375 -1.57108,1.26237 -3.36767,-0.64947 -6.35765,5e-5 -4.49647,0 -8.99294,0 -13.48941,0 2.34148,3.73503 1.0515,4.46198 5.76059,4 1.699,0.12005 4.65481,-0.177 5.27061,10e-5 7.11012,-0.0209 14.42178,0.0417 21.4063,-0.0312 -0.47141,-0.4736 3.06091,0.37528 5.46799,0.0312 12.45857,0 24.91714,0 37.37571,0 0.41153,-1.69708 3.99587,0.96062 6.81438,0 6.19728,0 12.39455,0 18.59182,0 -0.8312,-2.33085 5.24454,-5.7935 2.95403,-0.96605 -0.034,2.02177 4.31613,0.4887 6.18685,0.96605 2.15059,-0.28568 4.95792,0.58857 6.67162,-0.46875 1.8595,0.91777 6.45579,1.1464 6.56245,-2.12495 3.07567,4.02929 5.09314,-3.96986 4.40625,-7.00794 -0.15693,-6.55097 0.31817,-13.16665 -0.245,-19.67604 0.37699,-1.53074 0.8494,-7.35268 -2.36528,-8.51898 -0.31198,-2.09395 -7.2494,-3.27672 -4.10847,0.23421 -2.73969,-1.31192 -1.1762,-2.69243 -5.57375,-2.12505 -2.30881,-0.46732 -6.26625,0.7598 -5.62505,0 -1.68932,0.74219 -5.46363,-1.4068 -5.20745,1.28125 -1.92079,-0.55309 -4.85523,-0.96144 -0.96875,-1.2812 -6.48958,0 -12.97917,0 -19.46875,0 -3.78305,1.61687 -3.34052,-1.46023 -6.7187,1.4062 -3.4526,2.52759 -3.02344,-1.59769 -0.79255,-1.4063 -8.32263,0.0246 -16.73236,-0.0139 -25.2074,5e-5 -2.04983,0.0907 -6.74884,1.81088 -4.6363,0 -2.24311,-0.0332 -3.00071,1.37239 -3.48005,0 -2.46022,-0.16946 -4.311,-0.17772 -4.7274,1.59375 -1.35441,-2.85233 -5.59867,-1.05107 -7.1562,-1.59375 -2.10814,0.53079 -5.8816,-1.28189 -6.46875,1.375 -1.29591,-2.31878 -4.36836,-1.05553 -6.67549,-1.375 -1.72778,0.29112 -3.16248,-0.12872 -5.82385,-5e-5 -8.56273,0 -17.12547,0 -25.68821,0 -0.54809,-0.2842 -3.60342,0.68659 -4.28125,0 -4.95474,-0.01 -10.13255,0.0144 -14.8437,0 -1.71671,1.10484 -3.16514,-0.5818 -5.89159,-5e-5 -0.82231,-0.47974 0.11822,1.21286 -0.79596,0 z m 34,0.3125 c 3.10904,1.82585 3.50989,2.39237 -0.5,2.93745 0.43341,-1.96089 -1.9086,-3.39362 0.5,-2.93745 z m -23.25,0.0937 c 3.08061,0.34285 -2.7957,5.01241 0,0 z m 37.78125,0.40625 c 2.51879,2.37743 -3.15555,0.4891 0,0 z m 43.03125,0.375 c -3.7472,1.79224 -4.70496,0.68787 0,0 z m 37.75,0.1875 c 3.65109,-0.69944 -0.84522,0.96915 0,0 z m -63.09375,0.0312 c 1.03316,0.97163 -1.24898,0.63277 0,0 z m 22.3125,0.1875 c -1.85285,2.21592 -6.75675,0.78086 -1.87955,0.28668 l 0.94859,-0.14708 0.93096,-0.13955 0,-5e-5 z m -73.6875,0.0625 c 1.40953,-0.87878 0.58505,2.51092 0,0 z m 14.90625,0 c 1.48945,3.21046 -2.21697,1.02305 0,1e-4 l 0,-1e-4 z m 119.71875,0.21875 c -0.72469,1.44235 -2.86128,0.94244 0,0 z m -109.75,0.1875 c 2.5455,1.78866 -2.11014,1.30874 0,0 z m 81.9375,0.0625 c 1.06341,-0.37018 0.12478,0.42846 0,0 z m 1.75,0.4375 c 0.68838,0.64104 -2.7995,0.41077 0,0 z m -6.625,0.3125 c 1.98431,2.27245 -3.24249,-0.2813 0,0 z m -56,0.0937 c 0.19979,0.25173 0.63335,1.16453 0,0 z m -61.53125,0.0937 c 1.2818,-0.32422 0.12495,1.76493 0,0 z M 310.4375,207.125 c 0.10051,0.0148 -0.0713,0.13593 0,0 z m -160.96875,2 c 1.47307,0.81878 -2.06868,1.49151 0,0 z m 0.78125,2.90625 c 0.0256,0.15841 -0.15817,-0.0258 0,0 z m 168.53125,18.125 c 0.42849,0.81064 -0.31718,0.0541 0,0 z m -168.09375,0.875 c -0.0222,0.37285 -0.46821,0.12446 0,0 z m 0.0312,0.46875 c -0.44839,0.60109 -0.29576,-0.22573 0,0 z m 117.75,8.53125 c 1.5929,1.53787 0.3773,1.98335 0,0 z m -47.4375,0.375 c 0.92365,1.81589 -0.72791,1.58612 0,0 z M 158.75,240.6875 c 3.28189,1.96538 -2.30339,3.93361 0,0 z m 5.3125,0.34375 c 0.43553,0.92623 -0.83345,-3.6e-4 0,0 z m 142.71875,0.0312 c 0.26004,1.39082 -0.59165,-0.008 0,0 z m -76.25,0.1875 c 0.85444,0.95213 -0.92375,0.36907 0,0 z M 199.25,241.375 c 2.16946,0.79913 -0.88237,1.87568 0,0 z m 83.96875,0.5625 c 0.35094,1.1731 -0.63537,0.0469 0,0 z m -3.46875,1.09375 c 0.28349,0.0318 -0.0837,0.35944 0,0 z"
         style="font-size:medium;font-style:normal;font-variant:normal;font-weight:normal;font-stretch:normal;text-indent:0;text-align:start;text-decoration:none;line-height:normal;letter-spacing:normal;word-spacing:normal;text-transform:none;direction:ltr;block-progression:tb;writing-mode:lr-tb;text-anchor:start;baseline-shift:baseline;color:#000000;fill:url(#linearGradient4087);fill-opacity:1;stroke:none;stroke-width:4;marker:none;visibility:visible;display:inline;overflow:visible;enable-background:accumulate;font-family:Sans;-inkscape-font-specification:Sans" />
      <path
         id="path3801"
         d="m 191.78125,213.375 c -1.10134,2e-5 -2.09143,0.15752 -2.96875,0.4375 -0.87734,0.26135 -1.63401,0.62101 -2.25,1.125 -0.616,0.50401 -1.1015,1.11576 -1.4375,1.84375 -0.336,0.70934 -0.5,1.51026 -0.5,2.40625 0,0.89601 0.15141,1.67784 0.46875,2.3125 0.31733,0.61601 0.746,1.14576 1.25,1.59375 0.50399,0.42934 1.05283,0.79509 1.6875,1.09375 0.63466,0.28 1.27157,0.526 1.90625,0.75 1.45599,0.48534 2.49641,0.94567 3.09375,1.375 0.59732,0.41067 0.90624,0.92784 0.90625,1.5625 -1e-5,0.29867 -0.063,0.56983 -0.15625,0.8125 -0.0933,0.24267 -0.25735,0.46958 -0.5,0.65625 -0.24268,0.168 -0.5581,0.29425 -0.96875,0.40625 -0.39201,0.0933 -0.91526,0.15625 -1.53125,0.15625 -1.23201,0 -2.26634,-0.13233 -3.125,-0.375 -0.42001,-0.13066 -0.80233,-0.25983 -1.15625,-0.40625 -0.009,-0.004 -0.022,0.004 -0.0312,0 -0.47899,0.0633 -0.87479,0.13018 -1.1875,0.21875 l -0.59375,1.625 c 0.68881,0.87106 1.74463,1.86985 2.78125,2.34375 0.0103,0.002 0.0209,-0.002 0.0312,0 0.30694,0.0634 0.62341,0.1096 0.96875,0.15625 0.17753,0.0288 0.37499,0.0423 0.5625,0.0625 0.0705,-0.0255 0.12104,-0.0866 0.1875,-0.125 0.11711,0.0556 0.21273,0.14116 0.34375,0.1875 0.009,0.003 0.0225,-0.003 0.0312,0 0.37566,0.0237 0.76916,0.0312 1.1875,0.0312 2.55732,0 4.48065,-0.51067 5.75,-1.5 1.26932,-1.008 1.90623,-2.40808 1.90625,-4.21875 -2e-5,-0.93333 -0.13235,-1.72166 -0.375,-2.375 -0.0476,-0.12816 -0.0983,-0.25264 -0.15625,-0.375 -0.10743,0.6153 -0.20456,1.2057 -0.28125,1.78125 -0.0458,-0.0432 -0.10716,-0.0821 -0.15625,-0.125 0.1446,-0.67897 0.24626,-1.29676 0.3125,-1.84375 -0.22584,-0.42322 -0.49236,-0.81786 -0.84375,-1.15625 -0.48535,-0.48533 -1.0971,-0.89533 -1.84375,-1.25 -0.22947,-0.11473 -0.49677,-0.22836 -0.75,-0.34375 -0.28307,0.30652 -0.56564,0.64553 -0.8125,1.03125 -0.35099,-0.46146 -0.65305,-1.08431 -0.96875,-1.78125 -0.0325,-0.0122 -0.0609,-0.0191 -0.0937,-0.0312 -0.48534,-0.16799 -0.93309,-0.31941 -1.34375,-0.46875 -0.39201,-0.16799 -0.74518,-0.34457 -1.0625,-0.53125 -0.29868,-0.20532 -0.55076,-0.44482 -0.71875,-0.6875 -0.168,-0.24266 -0.25001,-0.52032 -0.25,-0.875 -1e-5,-0.59732 0.23949,-1.03249 0.6875,-1.3125 0.43628,-0.27921 1.12247,-0.4482 2.0625,-0.46875 0.0502,-0.0937 0.10572,-0.18141 0.15625,-0.28125 -0.1308,-1.20631 -0.44891,-2.04482 -0.84375,-2.625 0.42748,-0.63823 0.71103,-0.42723 0.90625,2.4375 1.3366,0.57091 2.22646,0.71822 2.8125,0.625 0.17812,0.18109 0.34849,0.35767 0.53125,0.53125 0.30146,0.11902 0.57307,0.23501 0.84375,0.375 l 1.25,-3.4375 c -0.61602,-0.33599 -1.39177,-0.62624 -2.34375,-0.90625 -0.95201,-0.27998 -2.06835,-0.43748 -3.375,-0.4375 z m 33.125,4.75 c -1.19468,1e-5 -2.25418,0.18309 -3.1875,0.59375 -0.61718,0.27157 -1.16299,0.62687 -1.65625,1.03125 0.21487,0.0148 0.47127,0.0285 0.71875,0.0625 -0.0941,0.26023 -0.15155,0.58774 -0.21875,0.9375 -0.68318,-0.19525 -1.22869,0.1056 -1.65625,0.65625 -0.0533,-0.13278 -0.0905,-0.22972 -0.125,-0.34375 -0.38781,0.53726 -0.69074,1.15015 -0.9375,1.8125 -0.31923,0.88675 -0.51286,1.8387 -0.53125,2.84375 0.14428,0.012 0.29529,0.0467 0.4375,0.0312 -0.14042,0.14969 -0.29164,0.27945 -0.4375,0.4375 0.0271,0.97989 0.18438,1.8894 0.4375,2.75 0.29866,0.93333 0.759,1.74683 1.375,2.4375 0.63466,0.69066 1.43558,1.24558 2.40625,1.65625 0.37684,0.15219 0.78623,0.24959 1.21875,0.34375 0.0157,-0.024 0.0469,-0.0382 0.0625,-0.0625 0.0196,0.006 0.0428,-0.006 0.0625,0 0.0746,0.0525 0.14427,0.11438 0.21875,0.15625 0.0102,0.002 0.0211,-0.002 0.0312,0 0.34479,0.0593 0.71556,0.10086 1.09375,0.125 0.03,-0.0139 0.0642,-0.014 0.0937,-0.0312 1.19022,0.0107 2.40585,-0.4442 3.5,-1.59375 0.44594,-0.0219 0.84226,-0.0865 1.21875,-0.1875 l -0.28125,-1.6875 c -0.99849,0.9505 -2.15764,1.49863 -3.34375,1.375 0.0479,-0.20735 0.1159,-0.41483 0.15625,-0.65625 -0.19269,0.308 -0.26422,0.41433 -0.40625,0.625 -0.23721,-0.0441 -0.47971,-0.11828 -0.71875,-0.21875 0.0729,-0.37595 0.16636,-0.77761 0.25,-1.25 -1.02139,-0.11054 -1.77883,-0.43848 -2.25,-1.03125 -0.56001,-0.728 -0.84376,-1.73716 -0.84375,-3.0625 -1e-5,-1.25066 0.27766,-2.26591 0.875,-3.03125 0.61599,-0.76533 1.54924,-1.15624 2.78125,-1.15625 0.57865,1e-5 1.09582,0.0755 1.5625,0.1875 0.46665,0.11201 0.88924,0.22567 1.28125,0.375 l 0.875,-3.3125 c -0.61601,-0.26132 -1.25293,-0.46307 -1.90625,-0.59375 -0.65335,-0.1493 -1.37226,-0.21874 -2.15625,-0.21875 z m 13.3125,0 c -1.19467,1e-5 -2.28542,0.18309 -3.21875,0.59375 -0.93334,0.41068 -1.72167,0.97818 -2.375,1.6875 -0.65334,0.69067 -1.14534,1.51676 -1.5,2.46875 -0.336,0.93334 -0.5,1.936 -0.5,3 0,1.10134 0.12625,2.1105 0.40625,3.0625 0.29866,0.93333 0.759,1.74683 1.375,2.4375 0.63466,0.69066 1.43558,1.24558 2.40625,1.65625 0.97066,0.392 2.12474,0.59375 3.46875,0.59375 0.87732,0 1.67824,-0.0694 2.40625,-0.21875 0.2382,-0.0489 0.44061,-0.1015 0.65625,-0.15625 -0.027,-0.071 -0.0358,-0.14767 -0.0625,-0.21875 0.0863,-0.11813 0.0503,-0.37711 -0.0625,-0.75 0.0654,9e-5 0.12056,0.002 0.1875,0 0.40022,0.11244 0.70795,0.19045 1.0625,0.28125 l -0.53125,-3.125 c -0.48535,0.20533 -1.01509,0.37545 -1.59375,0.46875 -0.57868,0.0933 -1.12101,0.125 -1.625,0.125 -1.41867,0 -2.42134,-0.36575 -3,-1.09375 -0.56001,-0.728 -0.84376,-1.73716 -0.84375,-3.0625 -1e-5,-1.25066 0.30891,-2.26591 0.90625,-3.03125 0.61599,-0.76533 1.51799,-1.15624 2.75,-1.15625 0.57866,1e-5 1.09582,0.0755 1.5625,0.1875 7e-4,-0.16862 -0.0258,-0.3159 -0.0312,-0.46875 0.42055,-0.13698 1.24327,-0.90012 1.25,-1.875 0.0997,-0.25774 0.15489,-0.5483 0.1875,-0.875 -0.36956,-0.12678 -0.73371,-0.23423 -1.125,-0.3125 -0.65334,-0.1493 -1.37226,-0.21874 -2.15625,-0.21875 z m 28.03125,0 c -1.79201,1e-5 -3.19209,0.38484 -4.21875,1.1875 -1.02667,0.80268 -1.56251,1.89992 -1.5625,3.28125 -10e-6,0.70934 0.10716,1.30851 0.3125,1.8125 0.20533,0.504 0.50166,0.93917 0.875,1.3125 0.37333,0.35467 0.82108,0.67617 1.34375,0.9375 0.54132,0.26134 1.12791,0.50734 1.78125,0.75 0.83999,0.31733 1.46432,0.61367 1.875,0.875 0.41065,0.24267 0.62499,0.539 0.625,0.875 -10e-6,0.42933 -0.15143,0.69442 -0.46875,0.84375 -0.31735,0.1493 -0.85968,0.21875 -1.625,0.21875 -0.72801,0 -1.47209,-0.0694 -2.21875,-0.21875 -0.74667,-0.168 -1.47817,-0.37625 -2.1875,-0.65625 l -0.6875,3.375 c 0.33599,0.14933 0.92258,0.3385 1.78125,0.5625 0.87732,0.224 1.97457,0.34375 3.28125,0.34375 1.99732,0 3.54232,-0.37834 4.625,-1.125 0.37996,-0.2576 0.68797,-0.5629 0.9375,-0.90625 -0.46667,-0.38178 -0.85312,-0.88306 -1.03125,-1.5 0.0481,-0.0637 0.10963,-0.12317 0.15625,-0.1875 0.43935,0.1151 0.86947,-0.006 1.28125,-0.28125 0.0937,0.0185 0.18769,0.0119 0.28125,0.0312 0.0135,-0.15221 0.0312,-0.30809 0.0312,-0.46875 -2e-5,-0.616 -0.0694,-1.15833 -0.21875,-1.625 -0.13068,-0.46666 -0.39535,-0.87666 -0.75,-1.25 -0.33602,-0.392 -0.80893,-0.74516 -1.40625,-1.0625 -0.59735,-0.336 -1.33535,-0.664 -2.25,-1 -0.44801,-0.168 -0.82635,-0.33808 -1.125,-0.46875 -0.28001,-0.14933 -0.48826,-0.26299 -0.65625,-0.375 -0.16801,-0.13066 -0.28775,-0.27558 -0.34375,-0.40625 -0.056,-0.13066 -0.0938,-0.26949 -0.0937,-0.4375 -10e-6,-0.72799 0.66207,-1.09374 1.96875,-1.09375 0.70932,10e-6 1.34624,0.0568 1.90625,0.1875 0.57865,0.13067 1.1084,0.30076 1.59375,0.46875 l 0.6875,-3.15625 c -0.66787,-0.13129 -1.40612,-0.064 -2.1875,0.125 0.0116,-0.24878 0.0288,-0.49912 0.0312,-0.75 -0.75354,-0.13962 -1.52608,-0.21874 -2.34375,-0.21875 z m 13.5625,0 c -1.79201,1e-5 -3.19209,0.38484 -4.21875,1.1875 -0.48213,0.37695 -0.83277,0.83797 -1.09375,1.34375 0.21226,0.16003 0.41966,0.34123 0.59375,0.53125 -0.0299,0.0246 -0.0648,0.0353 -0.0937,0.0625 -0.22243,0.1069 -0.44828,0.21298 -0.6875,0.34375 -0.0652,0.0107 -0.12331,0.0197 -0.1875,0.0312 -0.0663,0.30966 -0.0937,0.62342 -0.0937,0.96875 -10e-6,0.70934 0.10716,1.30851 0.3125,1.8125 0.20533,0.504 0.50166,0.93917 0.875,1.3125 0.37333,0.35467 0.82108,0.67617 1.34375,0.9375 0.54132,0.26134 1.12791,0.50734 1.78125,0.75 0.83999,0.31733 1.46432,0.61367 1.875,0.875 0.41065,0.24267 0.62499,0.539 0.625,0.875 -10e-6,0.42933 -0.15143,0.69442 -0.46875,0.84375 -0.31735,0.1493 -0.85968,0.21875 -1.625,0.21875 -0.72801,0 -1.47209,-0.0694 -2.21875,-0.21875 -0.74667,-0.168 -1.47817,-0.37625 -2.1875,-0.65625 l -0.53125,2.59375 c 0.0697,0.0429 0.14569,0.0835 0.21875,0.125 -0.0826,-0.002 -0.1675,10e-4 -0.25,0 l -0.125,0.65625 c 0.33599,0.14933 0.92258,0.3385 1.78125,0.5625 0.87732,0.224 1.97457,0.34375 3.28125,0.34375 1.99732,0 3.54232,-0.37834 4.625,-1.125 1.10132,-0.74667 1.65623,-1.8565 1.65625,-3.3125 -2e-5,-0.616 -0.0694,-1.15833 -0.21875,-1.625 -0.13068,-0.46666 -0.39535,-0.87666 -0.75,-1.25 -0.33602,-0.392 -0.80893,-0.74516 -1.40625,-1.0625 -0.59735,-0.336 -1.33535,-0.664 -2.25,-1 -0.44801,-0.168 -0.82635,-0.33808 -1.125,-0.46875 -0.28001,-0.14933 -0.48826,-0.26299 -0.65625,-0.375 -0.16811,-0.13061 -0.28785,-0.27553 -0.34385,-0.4062 -0.056,-0.13066 -0.0938,-0.26949 -0.0937,-0.4375 -10e-6,-0.72799 0.66207,-1.09374 1.96875,-1.09375 0.70932,1e-5 1.34624,0.0568 1.90625,0.1875 0.57865,0.13067 1.1084,0.30076 1.59375,0.46875 l 0.71875,-3.25 c -0.48535,-0.18666 -1.14743,-0.35066 -1.96875,-0.5 -0.82135,-0.168 -1.66651,-0.24999 -2.5625,-0.25 z m -30.5625,0.21875 c -0.30003,0.0753 -0.60959,0.16517 -0.90625,0.28125 -0.84,0.33601 -1.59667,0.81543 -2.25,1.46875 -0.65333,0.65334 -1.18308,1.47942 -1.59375,2.46875 -0.392,0.97067 -0.59375,2.09959 -0.59375,3.40625 0,1.08267 0.13883,2.09792 0.4375,3.03125 0.31733,0.93333 0.80283,1.74683 1.4375,2.4375 0.43555,0.448 0.95421,0.83336 1.53125,1.15625 -0.0113,-0.0575 -0.003,-0.12358 -0.0312,-0.1875 0.0113,-0.0108 0.0199,-0.0204 0.0312,-0.0312 0.84123,0.2331 1.79928,0.31891 2.65625,0.21875 0.20978,0.0622 0.42689,0.111 0.65625,0.15625 0.0308,0.64807 0.83399,0.80192 1.96875,0.59375 0.12834,0.0645 0.28825,0.12937 0.4375,0.1875 0.0727,-0.007 0.14584,0.008 0.21875,0 0.52266,-0.056 1.02074,-0.12545 1.46875,-0.21875 0.46666,-0.0747 0.87666,-0.16925 1.25,-0.28125 0.37332,-0.112 0.68224,-0.23175 0.90625,-0.34375 l -0.5625,-3.375 c -0.46668,0.20533 -1.06584,0.38192 -1.8125,0.53125 -0.72801,0.1307 -1.48467,0.1875 -2.25,0.1875 -1.19467,0 -2.13442,-0.246 -2.84375,-0.75 -0.70934,-0.504 -1.12545,-1.17258 -1.21875,-2.03125 l 9.46875,0 c 0.0186,-0.224 0.0438,-0.50125 0.0625,-0.78125 0.019,-0.29866 0.0312,-0.56983 0.0312,-0.8125 0,-0.74557 -0.0751,-1.42673 -0.1875,-2.0625 -0.16622,-0.0617 -0.31992,-0.13389 -0.53125,-0.1875 0.11387,-1.06119 -0.0642,-2.10725 -0.96875,-2.0625 -0.23523,-1.3098 -1.44466,-2.94509 -3,-2.03125 -0.86434,-0.29657 -1.99765,0.36824 -2.75,1.21875 -0.36219,-0.12849 -0.80124,-0.17627 -1.25,-0.125 0.21445,-0.92711 0.25227,-1.59647 0.1875,-2.0625 z m -47.875,0.15625 0,7.6875 c 0.12135,0.0713 0.2445,0.15511 0.375,0.21875 -0.14541,0.0995 -0.25903,0.20745 -0.375,0.3125 0,1.008 0.10717,1.91 0.3125,2.75 0.10267,0.42 0.23477,0.82263 0.40625,1.1875 0.005,0.004 -0.005,0.0275 0,0.0312 0.39518,0.33073 0.85884,0.64569 1.375,0.9375 0.049,0.30292 0.13953,0.6212 0.25,0.9375 0.29079,0.19192 0.61879,0.35683 0.96875,0.5 0.84,0.336 1.87433,0.5 3.125,0.5 0.11669,0 0.22801,0.002 0.34375,0 0.008,-0.0954 0.0257,-0.17943 0.0312,-0.28125 0.66016,0.15724 1.19335,0.1762 1.625,0.0937 0.0635,0.003 0.12388,-0.002 0.1875,0 0.008,0.0224 0.0229,0.0404 0.0312,0.0625 0.44408,-0.0443 0.8853,-0.0851 1.3125,-0.15625 1.11999,-0.168 2.04066,-0.35717 2.75,-0.5625 l 0,-4.84375 c -0.18474,0.17007 -0.29827,0.33812 -0.375,0.5 -0.0329,-0.009 -0.0607,-0.0228 -0.0937,-0.0312 -0.0685,-0.0688 -0.12685,-0.15871 -0.1875,-0.25 0.23853,-0.17968 0.441,-0.39599 0.65625,-0.625 l 0,-3.8125 c -0.2711,0.30328 -0.75467,0.83397 -1.5,1.90625 -0.0365,-0.16201 -0.0882,-0.30356 -0.125,-0.46875 0.53744,-0.64819 0.96823,-1.39905 1.1875,-2.28125 0.0966,0.24682 0.24465,0.50798 0.4375,0.78125 l 0,-4.46875 c -0.0787,-0.0273 -0.1686,-0.0126 -0.25,-0.0312 0.0571,-0.22255 0.0959,-0.41815 0.125,-0.59375 l -4.0625,0 0,11.375 c -0.26134,0.0373 -0.57026,0.0565 -0.90625,0.0937 -0.24651,0.0139 -0.46525,0.0268 -0.6875,0.0312 -0.022,0.16924 -0.0531,0.33707 -0.0312,0.53125 -0.3431,-0.0541 -0.45008,-0.0763 -0.75,-0.125 0.0837,-0.13865 0.16329,-0.28224 0.25,-0.4375 -0.81655,-0.0515 -1.40043,-0.30762 -1.71875,-0.84375 -0.35467,-0.59733 -0.53125,-1.5935 -0.53125,-2.9375 l 0,-7.6875 -4.15625,0 z m 31.65625,2.3125 c 0.70634,0.13274 1.42719,0.26931 2.1875,0.375 -0.36396,0.19441 -0.85448,0.279 -1.53125,0.21875 -0.2134,-0.21529 -0.44398,-0.41749 -0.65625,-0.59375 z m 18,0.75 c 0.48533,1e-5 0.87016,0.082 1.1875,0.25 0.33599,0.16801 0.60716,0.36367 0.8125,0.625 0.22399,0.26134 0.37545,0.57026 0.46875,0.90625 0.112,0.33601 0.20005,0.67659 0.21875,1.03125 l -5.53125,0 c 0.056,-0.35466 0.138,-0.69524 0.25,-1.03125 0.13066,-0.35466 0.30725,-0.64491 0.53125,-0.90625 0.224,-0.26133 0.50775,-0.47566 0.84375,-0.625 0.336,-0.168 0.75208,-0.24999 1.21875,-0.25 z m -3.1875,0.0312 c 0.20775,0.51109 0.0223,1.23369 -0.34375,2.03125 -0.1147,-0.0285 -0.24777,-0.0445 -0.375,-0.0625 0.36721,-0.8117 0.60204,-1.48001 0.71875,-1.96875 z m -2.34375,2.25 c 0.19537,0.0438 0.40127,0.0907 0.65625,0.0937 -0.5652,0.599 -1.01684,1.0742 -1.34375,1.40625 -0.0713,-0.074 -0.14656,-0.14129 -0.21875,-0.21875 0.2763,-0.38038 0.56141,-0.80551 0.90625,-1.28125 z m -54.84375,0.375 c 0.0651,0.0509 0.1212,0.10727 0.1875,0.15625 0.007,0.12783 -0.0175,0.30427 -0.0312,0.46875 -0.1113,-0.16723 -0.20483,-0.35196 -0.3125,-0.53125 0.0543,-0.0368 0.10541,-0.0571 0.15625,-0.0937 z m 93.59375,3.8125 c 0.0156,0.0569 0.0162,0.0957 0.0312,0.15625 -0.0159,0.0152 -0.0466,0.0162 -0.0625,0.0312 -0.0233,-0.0534 -0.0665,-0.0779 -0.0937,-0.125 0.0427,-0.022 0.0862,-0.0379 0.125,-0.0625 z m -8.09375,3 c 0.30993,0.11128 0.63001,0.22438 0.9375,0.34375 -0.3267,0.1007 -0.65473,0.20567 -0.96875,0.3125 0.0161,-0.21561 0.0418,-0.42707 0.0312,-0.65625 z"
         style="font-size:28px;font-style:normal;font-variant:normal;font-weight:bold;font-stretch:normal;line-height:125%;letter-spacing:0px;word-spacing:0px;fill:url(#linearGradient4089);fill-opacity:1;stroke:none;font-family:Ubuntu;-inkscape-font-specification:Ubuntu"
         inkscape:connector-curvature="0" />
      <path
         inkscape:connector-curvature="0"
         id="path3788"
         d="m 234.65625,155.40625 c -10.95606,0.24065 -22.27298,2.49272 -31.79326,8.10341 -7.44213,3.60802 -14.02017,9.06614 -19.45449,15.27807 -2.68403,3.21485 -8.51383,10.99586 -11.0009,17.00487 0.18808,3.38993 -5.19613,8.56087 -3.07576,12.05391 6.86975,-1.31122 4.14904,-10.19416 8.46269,-13.58932 5.27863,-10.8595 13.96494,-19.71223 24.28067,-25.89396 5.36771,-4.06198 12.02705,-5.31829 18.28316,-7.56469 11.3779,-2.17494 23.38614,-1.91727 34.42294,1.85761 2.81207,-0.70624 2.41236,0.42384 1.62499,0.77677 0.80455,0.67027 5.66861,-0.80175 2.59376,0.78573 16.4711,6.75807 29.82654,20.8954 35.83526,37.65014 -0.43309,4.96044 -8.8585,-1.16394 -8.10785,4.63527 -1.75717,2.27502 4.1747,0.67495 5.98511,1.15199 2.60353,0.32121 2.31237,-3.95315 5.61051,-0.18414 1.76687,0.31248 -2.73504,-4.34681 0.71778,-5.62629 -1.43009,-4.80757 -4.08103,-8.79541 -6.68094,-14.39059 -7.16887,-11.46734 -18.17218,-21.25275 -30.47678,-26.21824 -5.48334,-1.84818 -10.85152,-5.29061 -16.93075,-4.40716 -4.0757,0.53866 -6.13507,-2.27754 -10.29614,-1.42338 z m -0.34375,0.53125 c 2.34356,-0.25933 0.80963,1.42594 0,0 z m -5.875,0.8125 c 4.06207,-0.83027 3.84685,2.84859 0,0 z m -2.75,0.28125 c 3.15325,0.96005 -2.19597,0.5199 0,0 z m 6.96875,0.5 0.0277,0.0392 -0.0277,-0.0392 z m 11.09375,0.3125 c 5.15546,0.59558 -4.84984,0.42956 0,0 z m 7.59375,0.5625 c 0.88359,1.12197 -2.72063,-0.59368 0,0 z m -18.125,0.21875 c -1.28106,1.12445 -0.97342,-0.26746 0,0 z m 24.65625,0.9375 c 1.71448,3.70201 -6.51433,-0.56882 -0.33566,0.0255 l 0.33571,-0.0255 -5e-5,-5e-5 0,5e-5 z m -39.90625,0.78125 c 0.66558,0.85871 -2.57745,1.03684 0,0 z M 204,163.96875 c 2.23484,0.0559 -1.34871,2.21196 0,0 z m 63.78125,1.34375 c 2.26908,0.41277 1.20789,2.75246 0,0 z m -63.15625,0.25 c 0.1775,0.32693 -0.4199,0.0312 0,0 z m 61.1875,1.125 c 2.22976,0.71302 -1.36245,1.40119 0,0 z M 201.375,166.75 c 1.1266,0.39656 -0.94087,1.72768 0,0 z m -2.75,0.5 -0.0606,0.0966 0.0606,-0.0966 z m 73.1875,0.59375 c 3.34132,1.74961 -0.48497,1.19455 0,0 z m -74.40625,1 c -1.01947,1.78453 -1.5009,1.69736 0,0 z M 199,168.9375 c 0.2152,2.38088 -2.63645,1.98356 0,0 z m -4.90625,0.6875 c 0.17007,1.45273 -3.069,-0.26684 0,0 z m -0.125,1.40625 -0.0673,0.1763 0.0673,-0.1763 z m -0.25,0.625 c 0.2738,0.51379 -0.95258,0.59228 0,0 z m -1.90625,0.0312 c 0.21125,1.3508 -1.90527,0.59132 0,0 z m 1.28125,1.21875 c 0.55825,0.54214 -1.07694,0.72126 0,0 z m -0.5625,1.65625 c -0.0137,0.69774 -0.50827,-0.006 0,0 z m -2.09375,0.28125 c 0.003,2.17641 -2.42341,0.709 0,0 z M 281.46875,179 c 0.69217,-0.12476 -0.12227,0.94582 0,0 z m -95.09375,0.15625 c -0.2287,2.60408 -3.04594,1.50868 0,0 z m -2.78125,1.0625 c -1.60176,2.25254 -1.69172,0.41554 0,0 z m 103.75,2.96875 c 2.11668,1.2541 -1.84629,1.66 0,0 z M 176.625,191 c 1.5451,4.0751 -4.61075,-0.35298 0,0 z m -2.25,3.8125 c 0.36046,-0.23936 -0.006,0.30542 0,0 z m 0.4375,0.625 c 0.28434,0.36347 -0.60236,0.016 0,0 z M 294,197.71875 c 1.68935,0.53381 -0.18124,3.81644 0,0 z m -121.09375,2.4375 c 0.20165,0.78096 -0.99963,-0.30975 0,0 z m 123.1875,1.25 c 0.89234,2.15026 -2.58012,0.70557 0,0 z M 170.34375,203 c 3.44063,-0.90969 -0.47304,2.33744 1e-4,-5e-5 l -1e-4,5e-5 z m 1.15625,1.46875 c -0.0349,4.08681 -2.97792,1.18469 0,0 z m 123,0.0312 c -2.13642,4.24409 -6.02337,-0.68998 0,0 z m -6.0625,1.40625 c 2.64531,1.24111 -1.08358,1.63365 -5e-5,5e-5 l 5e-5,-5e-5 z m 5.09375,0.28125 c 0.004,2.4605 -2.95569,0.58521 0,0 z M 171.625,239.3125 c -5.40802,4.30293 2.31542,12.1798 3.65544,17.44829 6.25991,11.16138 15.7017,20.53324 26.96951,26.61421 0.69381,-2.24189 3.84489,3.36431 6.6578,2.94285 24.81753,10.97285 55.95277,4.27782 74.49996,-15.41968 6.43478,-6.67514 11.62802,-14.54645 14.69244,-23.32184 1.81675,-3.92566 1.65936,-10.68113 -4.38724,-7.94988 -4.53404,-2.09358 -3.98869,7.09931 -0.69927,1.94905 4.98368,4.73002 -3.49814,13.12749 -5.74393,18.16178 -4.83782,6.42559 -9.96541,12.90591 -16.8763,16.72535 -13.60723,9.53372 -31.30776,13.35372 -47.59395,9.88248 -6.65253,-0.73505 -13.06188,-3.04965 -18.81973,-6.71147 -0.82927,-2.2559 -11.72072,-2.47911 -5.6413,-2.59203 -5.07369,-5.65664 -12.03723,-9.57486 -15.86647,-16.39587 -2.20355,-3.96634 -6.15544,-10.51181 -7.72459,-11.38891 -3.01679,0.84854 3.78835,-1.82868 -0.3073,-3.01088 -1.3874,-2.47071 5.10152,-9.60012 -0.47881,-4.87208 -1.01722,-0.64884 -0.26807,-3.14535 -2.33626,-2.06137 z m 6.46875,0 c -3.17539,4.38857 0.86105,4.58862 4.34975,3.95824 -4.13716,0.82549 -3.07068,-2.49275 -2.65814,-3.99023 l -0.88912,0.042 -0.80249,-0.01 z m 121.96875,0 c 0.18612,2.21234 1.73932,-0.89645 0,0 z m -4.34375,5.34375 c 1.3678,1.55467 -1.69689,2.31504 0,0 z m -0.625,2.78125 c 1.56687,-0.67105 -0.41271,0.8104 0,0 z m 0.4375,0.75 c -0.80368,1.45092 -1.32324,0.12722 0,0 z m -2,4.59375 c 2.00062,3.76348 -1.58112,4.00325 0,0 z M 175.59375,253.25 c 2.99051,1.71984 3.06521,3.01649 0.19346,0.21044 L 175.59375,253.25 z m 2.5,4.28125 c 1.92037,-0.0494 0.58022,2.2651 0,0 z m 113.75,0 -10e-5,0.0994 10e-5,-0.0994 z m -3.875,2.90625 c -0.69283,2.5342 -1.59024,1.45785 0,0 z m 2.09375,0.65625 c -0.15124,1.59489 -2.32053,1.50105 0,0 z m -110.3125,0.3125 c 1.41436,1.26018 -1.36436,1.80371 0,0 z m 0.8125,1.5625 c 1.72983,1.05322 -0.78955,0.64219 0,0 z m 105.78125,0.125 c 1.82331,1.72612 -2.16502,1.67553 0,0 z m -3.46875,2.5625 c 1.10406,-0.58251 -0.25114,1.38095 0,0 z m 1.56255,2 c -1.08819,1.80096 -0.90625,-0.63312 0,0 z m -4.8125,2.21875 c 1.24016,-0.16893 -0.42111,0.86213 0,0 z m -2.59375,3.25 c -0.67709,2.2492 -3.70527,1.04571 0,0 z m 1.375,1.03125 -0.18246,0.75213 0.18246,-0.75213 z m -1.8125,0.5625 c 0.009,0.58271 -0.9617,-0.21034 0,0 z m -78.375,1.875 0.3201,0.15363 -0.3201,-0.15363 z m -0.15625,2.4375 c -0.53274,0.54601 -1.76279,-0.60173 0,0 z m 69.15625,0.4375 c 2.13117,3.01436 -3.71741,1.09748 0,0 z m 2.4375,0.5 c 1.62645,-0.0113 -0.36924,1.12142 0,0 z m -64.1875,1.625 c 2.15775,0.18024 0.0165,1.38101 0,0 z m 1.3437,0.90625 c 1.41651,0.92174 -2.32336,0.51926 0,0 z m 0.5,0.875 c 0.12515,0.92028 -1.11194,-0.099 0,0 z m 5.875,0.53125 -0.3928,0.12199 0.3928,-0.12199 z m 39.59375,1.125 c 2.01645,-0.002 3.82266,0.55623 0,0 z m -36.6875,0.25 c -2.81473,1.01043 -2.55368,-0.62049 0,0 z m 42.21875,0.28125 0.0804,0.1117 -0.0804,-0.1117 z m 0.3125,0.0625 c 0.4895,0.0312 -1.00781,0.33901 0,0 z m 1.25,0.1875 c 0.83009,1.79375 -4.17385,0.29062 0,0 z m -7.59375,0.8125 c 1.60716,-0.92375 0.40557,0.94218 0,0 z m -4.1875,0.3125 c 1.78968,4.01235 -7.1867,0.52421 0,0 z M 223,287.65625 c 2.40151,-0.432 0.65923,1.33022 0,0 z m 1.84375,0.25 c 3.54147,1.69113 -2.95159,0.51705 0,0 z m 10.8125,0.375 c 0.48414,0.23905 -0.6613,0.0149 0,0 z m -8.34375,0.0625 c 2.27018,-0.12235 -1.81765,2.55688 0,0 z m 1.96875,0.40625 c 3.18749,3.68939 -2.67716,1.87738 0,0 z m 4.78125,1.6875 c 0.3024,0.3795 -0.72031,0.31958 0,0 z m 7.96875,0.34375 c 0.13371,1.5942 -2.9591,-1.10411 0,0 z"
         style="font-size:medium;font-style:normal;font-variant:normal;font-weight:normal;font-stretch:normal;text-indent:0;text-align:start;text-decoration:none;line-height:normal;letter-spacing:normal;word-spacing:normal;text-transform:none;direction:ltr;block-progression:tb;writing-mode:lr-tb;text-anchor:start;baseline-shift:baseline;color:#000000;fill:url(#linearGradient4091);fill-opacity:1;stroke:none;stroke-width:4;marker:none;visibility:visible;display:inline;overflow:visible;enable-background:accumulate;font-family:Sans;-inkscape-font-specification:Sans" />
    </g>
  </g>
</svg>
