<?xml version="1.0" encoding="UTF-8" standalone="no"?>
<!-- Created with Inkscape (http://www.inkscape.org/) -->

<svg
   xmlns:dc="http://purl.org/dc/elements/1.1/"
   xmlns:cc="http://creativecommons.org/ns#"
   xmlns:rdf="http://www.w3.org/1999/02/22-rdf-syntax-ns#"
   xmlns:svg="http://www.w3.org/2000/svg"
   xmlns="http://www.w3.org/2000/svg"
   xmlns:sodipodi="http://sodipodi.sourceforge.net/DTD/sodipodi-0.dtd"
   xmlns:inkscape="http://www.inkscape.org/namespaces/inkscape"
   width="26.620001"
   height="26.620001"
   id="svg6920"
   version="1.1"
   inkscape:version="0.48.2 r9819"
   sodipodi:docname="Nouveau document 3">
  <defs
     id="defs6922">
    <filter
       color-interpolation-filters="sRGB"
       inkscape:collect="always"
       id="filter12038">
      <feGaussianBlur
         inkscape:collect="always"
         stdDeviation="0.49678578"
         id="feGaussianBlur12040" />
    </filter>
    <filter
       color-interpolation-filters="sRGB"
       inkscape:collect="always"
       id="filter59863">
      <feBlend
         inkscape:collect="always"
         mode="multiply"
         in2="BackgroundImage"
         id="feBlend59865" />
    </filter>
  </defs>
  <sodipodi:namedview
     id="base"
     pagecolor="#ffffff"
     bordercolor="#666666"
     borderopacity="1.0"
     inkscape:pageopacity="0.0"
     inkscape:pageshadow="2"
     inkscape:zoom="5.6"
     inkscape:cx="16.887423"
     inkscape:cy="19.537641"
     inkscape:document-units="px"
     inkscape:current-layer="layer1"
     showgrid="false"
     fit-margin-top="0"
     fit-margin-left="0"
     fit-margin-right="0"
     fit-margin-bottom="0"
     inkscape:window-width="634"
     inkscape:window-height="420"
     inkscape:window-x="0"
     inkscape:window-y="54"
     inkscape:window-maximized="0" />
  <metadata
     id="metadata6925">
    <rdf:RDF>
      <cc:Work
         rdf:about="">
        <dc:format>image/svg+xml</dc:format>
        <dc:type
           rdf:resource="http://purl.org/dc/dcmitype/StillImage" />
        <dc:title></dc:title>
      </cc:Work>
    </rdf:RDF>
  </metadata>
  <g
     inkscape:label="Calque 1"
     inkscape:groupmode="layer"
     id="layer1"
     transform="translate(-655.26267,-582.2486)">
    <g
       style="display:inline"
       id="g12042"
       transform="translate(708.91732,51.582563)">
      <g
         style="opacity:0.22222224;filter:url(#filter12038)"
         id="g12014">
        <path
           transform="matrix(0.08324106,0,0,0.08324106,-27.345065,491.94221)"
           style="fill:none;stroke:#626262;stroke-width:6.00665092;stroke-linecap:butt;stroke-linejoin:miter;stroke-miterlimit:4;stroke-opacity:1;stroke-dasharray:none;display:inline;filter:url(#filter59863)"
           d="m -162.93687,650.92483 c 0,0 -9.7554,0.8433 -14.057,-0.54444 -8.6487,-2.79021 -5.2848,-27.09401 -17.8817,-27.09401 -14.1166,0 -105.7054,0 -105.7054,0"
           id="path12016"
           inkscape:connector-curvature="0"
           sodipodi:nodetypes="cssc" />
        <path
           sodipodi:nodetypes="cssc"
           inkscape:connector-curvature="0"
           id="path12018"
           d="m -162.93687,650.92483 c 0,0 -9.7554,0.8433 -14.057,-0.54444 -8.6487,-2.79021 -5.2848,-27.09401 -17.8817,-27.09401 -14.1166,0 -105.7054,0 -105.7054,0"
           style="fill:none;stroke:#626262;stroke-width:6.00665092;stroke-linecap:butt;stroke-linejoin:miter;stroke-miterlimit:4;stroke-opacity:1;stroke-dasharray:none;display:inline;filter:url(#filter59863)"
           transform="matrix(0.08324106,0,0,0.08324106,-27.345065,484.94678)" />
        <path
           transform="matrix(-0.08324106,0,0,0.08324106,-53.346715,488.2016)"
           style="fill:none;stroke:#626262;stroke-width:6.00665092;stroke-linecap:butt;stroke-linejoin:miter;stroke-miterlimit:4;stroke-opacity:1;stroke-dasharray:none;display:inline;filter:url(#filter59863)"
           d="m -162.93687,650.92483 c 0,0 -9.7554,0.8433 -14.057,-0.54444 -8.6487,-2.79021 -5.2848,-27.09401 -17.8817,-27.09401 -14.1166,0 -105.7054,0 -105.7054,0"
           id="path12020"
           inkscape:connector-curvature="0"
           sodipodi:nodetypes="cssc" />
        <path
           inkscape:connector-curvature="0"
           id="path12022"
           d="m -40.364235,534.88447 0,19.21887"
           style="fill:none;stroke:#626262;stroke-width:0.5;stroke-linecap:butt;stroke-linejoin:miter;stroke-miterlimit:4;stroke-opacity:1;stroke-dasharray:none" />
        <path
           transform="matrix(0.39962393,0,0,0.39962393,17.423319,439.40625)"
           d="m -142.19456,266.81711 c 0,1.37534 -1.11493,2.49027 -2.49027,2.49027 -1.37534,0 -2.49027,-1.11493 -2.49027,-2.49027 0,-1.37534 1.11493,-2.49027 2.49027,-2.49027 1.37534,0 2.49027,1.11493 2.49027,2.49027 z"
           sodipodi:ry="2.4902723"
           sodipodi:rx="2.4902723"
           sodipodi:cy="266.81711"
           sodipodi:cx="-144.68483"
           id="path12024"
           style="color:#000000;fill:#626262;fill-opacity:1;fill-rule:nonzero;stroke:none;stroke-width:1.81238067;marker:none;visibility:visible;display:inline;overflow:visible;enable-background:accumulate"
           sodipodi:type="arc" />
        <path
           sodipodi:type="arc"
           style="color:#000000;fill:#626262;fill-opacity:1;fill-rule:nonzero;stroke:none;stroke-width:1.81238067;marker:none;visibility:visible;display:inline;overflow:visible;enable-background:accumulate"
           id="path12026"
           sodipodi:cx="-144.68483"
           sodipodi:cy="266.81711"
           sodipodi:rx="2.4902723"
           sodipodi:ry="2.4902723"
           d="m -142.19456,266.81711 c 0,1.37534 -1.11493,2.49027 -2.49027,2.49027 -1.37534,0 -2.49027,-1.11493 -2.49027,-2.49027 0,-1.37534 1.11493,-2.49027 2.49027,-2.49027 1.37534,0 2.49027,1.11493 2.49027,2.49027 z"
           transform="matrix(0.39962393,0,0,0.39962393,17.423319,435.79643)" />
        <path
           transform="matrix(0.39962393,0,0,0.39962393,17.423319,432.40672)"
           d="m -142.19456,266.81711 c 0,1.37534 -1.11493,2.49027 -2.49027,2.49027 -1.37534,0 -2.49027,-1.11493 -2.49027,-2.49027 0,-1.37534 1.11493,-2.49027 2.49027,-2.49027 1.37534,0 2.49027,1.11493 2.49027,2.49027 z"
           sodipodi:ry="2.4902723"
           sodipodi:rx="2.4902723"
           sodipodi:cy="266.81711"
           sodipodi:cx="-144.68483"
           id="path12028"
           style="color:#000000;fill:#626262;fill-opacity:1;fill-rule:nonzero;stroke:none;stroke-width:1.81238067;marker:none;visibility:visible;display:inline;overflow:visible;enable-background:accumulate"
           sodipodi:type="arc" />
      </g>
      <g
         id="g12005">
        <path
           sodipodi:nodetypes="cssc"
           inkscape:connector-curvature="0"
           id="path45506"
           d="m -162.93687,650.92483 c 0,0 -9.7554,0.8433 -14.057,-0.54444 -8.6487,-2.79021 -5.2848,-27.09401 -17.8817,-27.09401 -14.1166,0 -105.7054,0 -105.7054,0"
           style="fill:none;stroke:#626262;stroke-width:6.00665092;stroke-linecap:butt;stroke-linejoin:miter;stroke-miterlimit:4;stroke-opacity:1;stroke-dasharray:none;display:inline;filter:url(#filter59863)"
           transform="matrix(0.08324106,0,0,0.08324106,-27.345065,491.94221)" />
        <path
           transform="matrix(0.08324106,0,0,0.08324106,-27.345065,484.94678)"
           style="fill:none;stroke:#626262;stroke-width:6.00665092;stroke-linecap:butt;stroke-linejoin:miter;stroke-miterlimit:4;stroke-opacity:1;stroke-dasharray:none;display:inline;filter:url(#filter59863)"
           d="m -162.93687,650.92483 c 0,0 -9.7554,0.8433 -14.057,-0.54444 -8.6487,-2.79021 -5.2848,-27.09401 -17.8817,-27.09401 -14.1166,0 -105.7054,0 -105.7054,0"
           id="path11971"
           inkscape:connector-curvature="0"
           sodipodi:nodetypes="cssc" />
        <path
           sodipodi:nodetypes="cssc"
           inkscape:connector-curvature="0"
           id="path11973"
           d="m -162.93687,650.92483 c 0,0 -9.7554,0.8433 -14.057,-0.54444 -8.6487,-2.79021 -5.2848,-27.09401 -17.8817,-27.09401 -14.1166,0 -105.7054,0 -105.7054,0"
           style="fill:none;stroke:#626262;stroke-width:6.00665092;stroke-linecap:butt;stroke-linejoin:miter;stroke-miterlimit:4;stroke-opacity:1;stroke-dasharray:none;display:inline;filter:url(#filter59863)"
           transform="matrix(-0.08324106,0,0,0.08324106,-53.346715,488.2016)" />
        <path
           style="fill:none;stroke:#626262;stroke-width:0.5;stroke-linecap:butt;stroke-linejoin:miter;stroke-miterlimit:4;stroke-opacity:1;stroke-dasharray:none"
           d="m -40.364235,534.88447 0,19.21887"
           id="path11977"
           inkscape:connector-curvature="0" />
        <path
           sodipodi:type="arc"
           style="color:#000000;fill:#626262;fill-opacity:1;fill-rule:nonzero;stroke:none;stroke-width:1.81238067;marker:none;visibility:visible;display:inline;overflow:visible;enable-background:accumulate"
           id="path11983"
           sodipodi:cx="-144.68483"
           sodipodi:cy="266.81711"
           sodipodi:rx="2.4902723"
           sodipodi:ry="2.4902723"
           d="m -142.19456,266.81711 c 0,1.37534 -1.11493,2.49027 -2.49027,2.49027 -1.37534,0 -2.49027,-1.11493 -2.49027,-2.49027 0,-1.37534 1.11493,-2.49027 2.49027,-2.49027 1.37534,0 2.49027,1.11493 2.49027,2.49027 z"
           transform="matrix(0.39962393,0,0,0.39962393,17.423319,439.40625)" />
        <path
           transform="matrix(0.39962393,0,0,0.39962393,17.423319,435.79643)"
           d="m -142.19456,266.81711 c 0,1.37534 -1.11493,2.49027 -2.49027,2.49027 -1.37534,0 -2.49027,-1.11493 -2.49027,-2.49027 0,-1.37534 1.11493,-2.49027 2.49027,-2.49027 1.37534,0 2.49027,1.11493 2.49027,2.49027 z"
           sodipodi:ry="2.4902723"
           sodipodi:rx="2.4902723"
           sodipodi:cy="266.81711"
           sodipodi:cx="-144.68483"
           id="path12001"
           style="color:#000000;fill:#626262;fill-opacity:1;fill-rule:nonzero;stroke:none;stroke-width:1.81238067;marker:none;visibility:visible;display:inline;overflow:visible;enable-background:accumulate"
           sodipodi:type="arc" />
        <path
           sodipodi:type="arc"
           style="color:#000000;fill:#626262;fill-opacity:1;fill-rule:nonzero;stroke:none;stroke-width:1.81238067;marker:none;visibility:visible;display:inline;overflow:visible;enable-background:accumulate"
           id="path12003"
           sodipodi:cx="-144.68483"
           sodipodi:cy="266.81711"
           sodipodi:rx="2.4902723"
           sodipodi:ry="2.4902723"
           d="m -142.19456,266.81711 c 0,1.37534 -1.11493,2.49027 -2.49027,2.49027 -1.37534,0 -2.49027,-1.11493 -2.49027,-2.49027 0,-1.37534 1.11493,-2.49027 2.49027,-2.49027 1.37534,0 2.49027,1.11493 2.49027,2.49027 z"
           transform="matrix(0.39962393,0,0,0.39962393,17.423319,432.40672)" />
      </g>
    </g>
  </g>
</svg>
