<?xml version="1.0" encoding="UTF-8" standalone="no"?>
<!-- Created with Inkscape (http://www.inkscape.org/) -->

<svg
   xmlns:dc="http://purl.org/dc/elements/1.1/"
   xmlns:cc="http://creativecommons.org/ns#"
   xmlns:rdf="http://www.w3.org/1999/02/22-rdf-syntax-ns#"
   xmlns:svg="http://www.w3.org/2000/svg"
   xmlns="http://www.w3.org/2000/svg"
   xmlns:sodipodi="http://sodipodi.sourceforge.net/DTD/sodipodi-0.dtd"
   xmlns:inkscape="http://www.inkscape.org/namespaces/inkscape"
   width="47.040001"
   height="47.040001"
   id="svg7664"
   version="1.1"
   inkscape:version="0.48.2 r9819"
   sodipodi:docname="Nouveau document 4">
  <defs
     id="defs7666" />
  <sodipodi:namedview
     id="base"
     pagecolor="#ffffff"
     bordercolor="#666666"
     borderopacity="1.0"
     inkscape:pageopacity="0.0"
     inkscape:pageshadow="2"
     inkscape:zoom="3.959798"
     inkscape:cx="49.769551"
     inkscape:cy="24.607444"
     inkscape:document-units="px"
     inkscape:current-layer="layer1"
     showgrid="false"
     fit-margin-top="0"
     fit-margin-left="0"
     fit-margin-right="0"
     fit-margin-bottom="0"
     inkscape:window-width="634"
     inkscape:window-height="420"
     inkscape:window-x="1920"
     inkscape:window-y="28"
     inkscape:window-maximized="0" />
  <metadata
     id="metadata7669">
    <rdf:RDF>
      <cc:Work
         rdf:about="">
        <dc:format>image/svg+xml</dc:format>
        <dc:type
           rdf:resource="http://purl.org/dc/dcmitype/StillImage" />
        <dc:title></dc:title>
      </cc:Work>
    </rdf:RDF>
  </metadata>
  <g
     inkscape:label="Calque 1"
     inkscape:groupmode="layer"
     id="layer1"
     transform="translate(-480.58084,-663.12891)">
    <path
       inkscape:connector-curvature="0"
       style="fill:#000000;display:inline"
       d="m 508.00632,710.16099 c -0.35373,-0.044 -1.03422,-0.1852 -1.09954,-0.2277 -0.0419,-0.027 -0.10574,-0.1165 -0.14209,-0.1985 -0.0596,-0.1348 -0.062,-0.1661 -0.0254,-0.3299 0.039,-0.1747 0.0622,-0.2032 0.66224,-0.8149 0.61588,-0.6279 0.92376,-1.0114 1.07844,-1.3437 0.0676,-0.1449 0.078,-0.2159 0.0782,-0.5288 2.9e-4,-0.2508 -0.0117,-0.3714 -0.0403,-0.3938 -0.0222,-0.018 -0.15023,-0.035 -0.28427,-0.038 -0.13396,0 -0.25344,-0.017 -0.26539,-0.029 -0.0367,-0.038 -0.15587,-1.2478 -0.20285,-2.0585 -0.0244,-0.4229 -0.0523,-0.7815 -0.0618,-0.7969 -0.0166,-0.026 -0.0768,-0.737 -0.19998,-2.3328 -0.0277,-0.3595 -0.10673,-0.9908 -0.1769,-1.4132 -0.0698,-0.42 -0.14309,-0.9097 -0.16301,-1.0884 -0.0717,-0.6418 -0.11072,-0.797 -0.50976,-2.0305 -0.43901,-1.357 -1.11446,-3.3465 -1.1506,-3.3891 -0.0117,-0.015 -0.0324,0.2632 -0.0443,0.6173 -0.0117,0.354 -0.036,0.7826 -0.053,0.9524 -0.0171,0.1697 -0.0454,0.4768 -0.0631,0.6822 -0.0176,0.2055 -0.0699,0.7684 -0.11619,1.2508 -0.0464,0.4825 -0.0964,1.2574 -0.11139,1.722 -0.0632,1.9731 -0.0993,3.164 -0.13247,4.39 -0.0195,0.717 -0.048,1.3603 -0.0636,1.4295 -0.015,0.069 -0.0526,0.1404 -0.0825,0.1584 -0.17161,0.1025 -0.18285,0.1275 -0.29315,0.6514 -0.0599,0.285 -0.10955,0.5634 -0.10989,0.6187 -9.2e-4,0.1245 -0.0644,0.1834 -0.29331,0.2726 -0.0983,0.038 -0.25911,0.1089 -0.35738,0.1569 -0.17252,0.084 -0.19776,0.087 -0.73099,0.087 -0.38143,0 -0.59391,-0.013 -0.68682,-0.045 -0.12532,-0.042 -0.14624,-0.039 -0.30862,0.036 -0.0958,0.044 -0.30573,0.1791 -0.46655,0.2997 -0.50704,0.3802 -0.56632,0.3993 -1.62182,0.5216 -0.75205,0.087 -0.92982,0.078 -1.34305,-0.07 -0.18571,-0.067 -0.29745,-0.2525 -0.30854,-0.5137 -0.008,-0.1818 -0.005,-0.1907 0.12201,-0.3011 0.12466,-0.1091 1.08281,-0.5944 1.74651,-0.8847 0.17437,-0.076 0.35353,-0.1673 0.39812,-0.2024 0.0446,-0.035 0.17858,-0.2053 0.29771,-0.3781 0.11919,-0.1729 0.26881,-0.3795 0.33256,-0.4593 0.0637,-0.08 0.11205,-0.1685 0.10707,-0.1972 -0.005,-0.029 0.0217,-0.1829 0.0593,-0.3424 0.31785,-1.3538 0.42234,-1.8334 0.46668,-2.1419 0.0661,-0.4596 0.26938,-2.108 0.2966,-2.4042 0.0234,-0.2534 -0.0581,-1.5762 -0.12782,-2.0793 -0.0247,-0.1787 -0.11287,-0.8073 -0.19587,-1.397 -0.083,-0.5896 -0.20937,-1.4961 -0.28095,-2.0143 -0.19286,-1.3961 -0.48856,-3.1295 -0.70947,-4.1585 l -0.19528,-0.9097 -0.0692,-1.0722 c -0.0704,-1.0915 -0.0988,-2.4314 -0.0548,-2.5883 0.0222,-0.08 0.005,-0.1001 -0.19695,-0.2478 -0.34541,-0.2512 -0.72294,-0.7955 -0.87222,-1.2574 l -0.084,-0.2599 -0.0312,-1.9818 c -0.0456,-2.9062 0.0193,-4.3948 0.26903,-6.1729 0.2579,-1.8355 0.31114,-2.052 0.56114,-2.2825 0.17905,-0.165 0.39602,-0.3085 1.16997,-0.7735 0.71411,-0.4292 0.94378,-0.6181 1.33208,-1.096 0.25436,-0.313 0.31065,-0.4436 0.31232,-0.7246 9.2e-4,-0.1902 -0.0534,-0.3266 -0.21971,-0.549 -0.14292,-0.1912 -0.31245,-0.5247 -0.35284,-0.6941 -0.0117,-0.047 -0.0317,-0.1001 -0.0453,-0.118 -0.0719,-0.094 -0.16862,-0.5713 -0.25675,-1.2671 -0.0542,-0.4289 -0.12183,-0.9259 -0.15022,-1.1046 -0.0747,-0.4706 -0.0688,-0.8918 0.015,-1.159 0.11355,-0.3585 0.47607,-0.7778 0.88558,-1.0245 0.29497,-0.1777 0.48447,-0.2124 1.2502,-0.2287 l 0.68736,-0.015 0.27106,0.1185 c 0.64364,0.2815 0.71311,0.322 0.90563,0.5277 0.4226,0.4518 0.51001,0.6627 0.55395,1.3365 0.0226,0.346 0.0433,0.4785 0.0807,0.5158 0.0411,0.041 0.048,0.1187 0.0378,0.4279 -0.015,0.4584 -0.0858,0.7285 -0.31465,1.199 l -0.164,0.3373 0,0.3374 0,0.3374 0.34925,0.3678 c 0.19209,0.2022 0.44447,0.4838 0.56087,0.6257 l 0.21164,0.258 0.86902,0.266 c 1.37462,0.4207 1.5489,0.4813 1.94953,0.6776 0.32544,0.1595 0.39551,0.2082 0.50626,0.3525 0.0707,0.092 0.15205,0.2185 0.18065,0.281 0.0752,0.1639 0.39864,1.8411 0.47318,2.4529 0.18874,1.5492 0.33292,2.9426 0.34461,3.3301 0.006,0.2412 0.0289,0.5449 0.048,0.6748 0.0365,0.2486 0.047,0.7788 0.0173,0.8761 -0.008,0.032 -0.0476,0.2892 -0.0845,0.5727 -0.0369,0.2835 -0.0905,0.5607 -0.11919,0.616 -0.12035,0.2327 -1.24628,1.9006 -1.47327,2.1824 l -0.10474,0.13 0.0195,0.3249 c 0.01,0.1787 0.10143,0.8878 0.2017,1.5757 0.15903,1.0905 0.18613,1.3508 0.21188,2.0305 0.0166,0.4289 0.0634,1.0562 0.10474,1.3939 l 0.0752,0.6142 -0.124,0.049 c -0.14425,0.057 -0.164,0.1095 -0.22029,0.5872 -0.0676,0.5734 -0.023,1.1124 0.1293,1.5645 0.0333,0.099 0.0822,0.3109 0.10857,0.471 0.15305,0.9274 0.4938,2.9111 0.58868,3.4264 0.061,0.3306 0.16218,0.9154 0.22499,1.2996 0.0629,0.3842 0.15769,0.8447 0.21068,1.0234 0.23538,0.7938 0.23124,0.7602 0.23042,1.8735 -3.1e-4,0.5599 -0.015,1.6832 -0.031,2.4962 -0.0168,0.813 -0.0324,2.2458 -0.0347,3.1839 l -0.005,1.7057 0.10059,0.3086 c 0.078,0.2399 0.10889,0.4137 0.13811,0.7797 0.0207,0.2591 0.0273,0.5394 0.015,0.6228 -0.0296,0.1947 -0.16622,0.3825 -0.38438,0.5282 -0.0943,0.063 -0.20378,0.1383 -0.24318,0.1671 -0.0394,0.029 -0.13115,0.056 -0.2037,0.059 -0.12367,0.01 -0.14525,0.023 -0.33896,0.2684 -0.24983,0.316 -0.50954,0.5727 -0.68524,0.6772 -0.14392,0.086 -0.58471,0.2355 -1.05325,0.358 -0.30508,0.08 -0.69653,0.1193 -0.91232,0.093 z m -14.12222,-1.3963 c -0.0446,-0.01 -0.2932,-0.044 -0.5523,-0.079 -0.42004,-0.058 -0.50063,-0.08 -0.74385,-0.2004 -0.15006,-0.075 -0.42051,-0.244 -0.60105,-0.3762 -0.41378,-0.3029 -0.40941,-0.3007 -0.90058,-0.4412 -0.49525,-0.1416 -0.73073,-0.2456 -0.85855,-0.3789 -0.0911,-0.095 -0.0968,-0.1169 -0.10723,-0.4208 -0.0116,-0.3427 0.0407,-0.6051 0.16018,-0.8 0.0342,-0.056 0.062,-0.1104 0.062,-0.1215 0,-0.012 -0.0594,-0.03 -0.13213,-0.041 -0.19847,-0.032 -0.22036,-0.068 -0.1857,-0.31 0.0375,-0.2614 0.008,-0.598 -0.079,-0.8855 -0.0651,-0.2158 -0.0669,-0.2696 -0.0458,-1.332 0.0166,-0.7985 0.008,-1.4287 -0.0284,-2.2605 -0.049,-1.1208 -0.0754,-5.4537 -0.0337,-5.5211 0.01,-0.017 0.002,-0.6481 -0.0169,-1.4045 -0.0269,-1.056 -0.0534,-1.5419 -0.11471,-2.0929 -0.0438,-0.3948 -0.0873,-0.795 -0.0964,-0.8895 -0.008,-0.094 -0.082,-0.4367 -0.16168,-0.7606 -0.0797,-0.3238 -0.14491,-0.6134 -0.14491,-0.6436 0,-0.03 -0.0133,-0.063 -0.0294,-0.073 -0.0166,-0.01 -0.0226,0.035 -0.0133,0.1037 0.008,0.067 -0.0149,0.29 -0.0531,0.4955 -0.14077,0.7641 -0.1645,0.8983 -0.19574,1.1046 -0.0176,0.1162 -0.0455,0.2916 -0.0621,0.3899 -0.0407,0.2424 -0.34483,1.419 -0.64223,2.4853 -0.13462,0.4825 -0.26586,0.9576 -0.2918,1.0559 -0.0259,0.098 -0.20607,0.7635 -0.40027,1.4783 -0.48116,1.771 -0.52244,1.9276 -0.55252,2.0955 -0.17704,0.9885 -0.26817,1.5895 -0.31169,2.0553 -0.0289,0.308 -0.0712,0.7428 -0.0943,0.9661 -0.0231,0.2234 -0.0437,0.8009 -0.0458,1.2833 -0.002,0.4825 -0.0133,1.2866 -0.0251,1.7869 -0.0194,0.8339 -0.0262,0.9132 -0.0812,0.9521 -0.0534,0.038 -0.0601,0.091 -0.0601,0.4814 0,0.269 -0.0149,0.4663 -0.0375,0.5098 -0.0206,0.039 -0.0978,0.1295 -0.17153,0.201 -0.0737,0.072 -0.24051,0.2496 -0.37065,0.396 l -0.23665,0.266 -0.17154,-0.01 c -0.16707,0 -0.17687,-9e-4 -0.37545,0.1826 -0.31818,0.2944 -0.631,0.5001 -0.82324,0.5414 -0.18804,0.04 -0.6039,0.022 -1.11105,-0.049 -0.1787,-0.025 -0.40825,-0.053 -0.51016,-0.062 -0.29952,-0.026 -0.3928,-0.081 -0.47885,-0.2812 -0.0584,-0.1358 -0.0707,-0.2103 -0.0569,-0.3441 0.0209,-0.2028 0.0759,-0.3092 0.31461,-0.6087 0.0984,-0.1235 0.24482,-0.3079 0.32522,-0.4099 0.0803,-0.1019 0.26815,-0.3298 0.4172,-0.5064 0.26321,-0.3118 0.48071,-0.6674 0.44431,-0.7263 -0.01,-0.017 -0.0988,-0.047 -0.19754,-0.069 -0.0988,-0.022 -0.1844,-0.049 -0.19023,-0.059 -0.005,-0.01 0.008,-0.2016 0.0324,-0.4249 0.0553,-0.5228 0.0682,-3.0746 0.0198,-3.9149 -0.0196,-0.3395 -0.045,-1.1436 -0.0566,-1.7869 -0.0221,-1.2284 -0.0262,-1.1483 0.14807,-2.859 0.13977,-1.3726 0.17833,-1.9995 0.20969,-3.4113 0.0181,-0.8141 0.0664,-1.9588 0.10043,-2.379 l 0.0166,-0.2023 -0.10707,-0.045 c -0.0589,-0.025 -0.22894,-0.1381 -0.37781,-0.2521 -0.31998,-0.245 -0.43758,-0.4392 -0.49451,-0.8165 -0.0393,-0.2607 -0.0453,-1.0456 -0.0116,-1.507 l 0.0216,-0.2958 -0.13296,-0.021 c -0.0732,-0.012 -0.18437,-0.046 -0.24717,-0.076 l -0.1142,-0.054 -5e-5,-1.724 c -2e-5,-0.9482 -0.008,-2.5865 -0.0209,-3.6408 -0.0201,-1.8557 0.0116,-3.6114 0.0858,-4.7109 0.0169,-0.2501 0.0387,-0.6376 0.0488,-0.8609 0.0378,-0.8477 0.0876,-1.4662 0.16566,-2.0631 0.0443,-0.3395 0.10956,-0.8511 0.14459,-1.1371 0.0991,-0.8073 0.15719,-1.183 0.19351,-1.2509 0.0642,-0.1202 0.5185,-0.3876 1.81926,-1.0712 0.99366,-0.5221 1.27863,-0.6833 1.88435,-1.0661 0.85274,-0.5389 0.93169,-0.591 0.98286,-0.6498 0.0272,-0.031 0.0672,-0.1952 0.0911,-0.3738 0.0354,-0.2633 0.0354,-0.339 -2.6e-4,-0.4386 -0.0602,-0.1694 -0.15836,-0.299 -0.22599,-0.299 -0.032,0 -0.12732,-0.09 -0.21536,-0.2031 -0.12848,-0.1653 -0.17495,-0.2632 -0.25029,-0.5279 -0.12151,-0.4271 -0.15554,-0.8864 -0.0749,-1.0097 0.0662,-0.101 0.07,-0.1374 0.11121,-1.0371 0.0402,-0.8793 0.093,-1.0676 0.40645,-1.4525 0.16772,-0.2059 0.50501,-0.4722 0.63248,-0.4994 0.0471,-0.01 0.22464,-0.07 0.39439,-0.1336 l 0.30865,-0.1154 0.53606,0.019 c 0.96658,0.034 1.27971,0.1544 1.82216,0.702 0.44923,0.4535 0.53071,0.6102 0.5322,1.0237 6.5e-4,0.1617 -0.0186,0.4919 -0.0425,0.7339 -0.0429,0.4353 -0.0429,0.4413 0.029,0.563 0.0694,0.1173 0.0715,0.144 0.0499,0.5834 -0.0355,0.723 -0.15305,1.1264 -0.32807,1.1264 -0.087,0 -0.12002,0.08 -0.1746,0.4224 -0.0634,0.3987 -0.0792,0.764 -0.0382,0.888 0.0418,0.1267 0.27607,0.3564 0.6678,0.655 0.20822,0.1587 0.33022,0.2117 1.44574,0.6288 0.67008,0.2506 1.50315,0.5853 1.85125,0.744 0.53307,0.2429 0.64239,0.3047 0.69303,0.3914 0.0778,0.1333 0.49717,1.5928 0.52458,1.826 0.0208,0.1762 0.0846,0.6444 0.14874,1.0884 0.0179,0.125 0.0398,0.2859 0.0483,0.3573 0.008,0.072 0.0376,0.2835 0.0646,0.4711 0.0271,0.1876 0.0636,0.4435 0.0811,0.5686 0.087,0.6188 0.18259,2.5397 0.24356,4.8895 0.0271,1.0454 0.0639,2.4123 0.0817,3.0377 0.0179,0.6254 0.0419,1.6812 0.0536,2.3461 l 0.0211,1.209 -0.0946,0.036 c -0.052,0.02 -0.17956,0.031 -0.28341,0.023 -0.14807,-0.01 -0.19446,0 -0.21488,0.038 -0.015,0.028 -0.0357,0.2161 -0.0473,0.4179 -0.015,0.2476 -0.0427,0.4219 -0.0871,0.5361 -0.036,0.093 -0.0931,0.3153 -0.12666,0.494 -0.11188,0.5958 -0.12184,0.6198 -0.39324,0.9557 -0.34243,0.4237 -0.44026,0.5113 -0.89127,0.7984 -0.21442,0.1365 -0.40122,0.2593 -0.4151,0.2729 -0.0133,0.013 -0.008,0.4371 0.0133,0.9412 0.0481,1.1252 -0.008,4.1528 -0.0878,4.7751 -0.0269,0.2084 -0.0712,0.5543 -0.0986,0.7687 -0.0762,0.5979 -0.13678,1.0052 -0.20764,1.3971 -0.0357,0.1965 -0.0871,0.4962 -0.11437,0.666 -0.0273,0.1697 -0.0712,0.4256 -0.0976,0.5685 -0.0264,0.1429 -0.062,0.3915 -0.0793,0.5523 -0.0342,0.3194 -0.1074,0.9262 -0.18212,1.5107 -0.0556,0.4357 -0.10574,1.3609 -0.13794,2.5471 l -0.0228,0.8413 -0.15438,0.045 c -0.17023,0.05 -0.1703,0.05 -0.11653,0.1507 0.16775,0.3155 0.80143,0.8736 1.65004,1.4533 0.4501,0.3075 0.7348,0.5337 0.82446,0.655 0.0395,0.053 0.0709,0.1585 0.0799,0.2676 0.0133,0.168 0.008,0.1856 -0.0871,0.2748 -0.12433,0.1162 -0.55346,0.2847 -0.84487,0.3319 -0.23943,0.039 -0.78792,0.064 -0.91285,0.041 z m 30.2691,-1.3791 c -0.27833,-0.089 -0.34144,-0.097 -0.64266,-0.086 -0.20971,0.01 -0.35098,-9e-4 -0.37956,-0.023 -0.0251,-0.02 -0.0546,-0.1157 -0.0659,-0.214 -0.0402,-0.3526 -0.0801,-0.564 -0.11321,-0.5968 -0.0193,-0.019 -0.0333,-0.2027 -0.0333,-0.433 l 0,-0.3996 -0.11304,0 c -0.1803,0 -0.2159,-0.087 -0.23475,-0.5762 -0.0133,-0.3403 -0.0335,-0.4702 -0.11304,-0.7234 -0.11505,-0.366 -0.12185,-0.5175 -0.0316,-0.7161 0.0369,-0.081 0.0762,-0.2055 0.0875,-0.2762 0.0199,-0.1253 0.015,-0.1351 -0.2288,-0.3885 l -0.24916,-0.2599 0.0197,-0.536 c 0.0117,-0.2949 0.0327,-0.6253 0.0483,-0.7343 0.0191,-0.1326 0.0166,-0.2738 -0.01,-0.4273 -0.0322,-0.1899 -0.0596,-0.2519 -0.15936,-0.3623 -0.0663,-0.073 -0.12134,-0.1368 -0.12266,-0.1413 -0.002,-0.01 -0.0263,-0.2213 -0.12301,-1.1044 -0.0367,-0.335 -0.0747,-0.6566 -0.0846,-0.7147 -0.01,-0.058 -0.0318,-0.2866 -0.0488,-0.5075 -0.0294,-0.3841 -0.0363,-0.4113 -0.15803,-0.6173 -0.17466,-0.2958 -0.15453,-0.2001 -0.24705,-1.174 -0.0265,-0.2789 -0.11288,-0.8223 -0.19365,-1.2183 -0.16201,-0.794 -0.20235,-1.0492 -0.35961,-2.2742 -0.0844,-0.6569 -0.1411,-0.9675 -0.25562,-1.397 -0.16252,-0.6096 -0.50883,-2.0578 -0.50963,-2.1306 -9.2e-4,-0.087 -0.0556,-0.1426 -0.10259,-0.1037 -0.0534,0.044 -0.0191,1.3914 0.0563,2.2019 0.13794,1.4824 0.17475,1.9438 0.20647,2.5828 0.0593,1.1935 0.10242,1.8305 0.13313,1.9656 0.0166,0.072 0.10176,0.3931 0.18997,0.7148 0.11885,0.4335 0.17357,0.708 0.21146,1.0615 0.0281,0.2623 0.10408,0.8251 0.16905,1.2508 0.11321,0.7423 0.11736,0.7994 0.10059,1.3914 l -0.0174,0.6172 0.13114,0.4062 0.13114,0.4061 -0.0133,0.5035 c -0.0117,0.4342 -0.023,0.522 -0.0828,0.6369 -0.0382,0.073 -0.0636,0.161 -0.0563,0.1949 0.006,0.034 0.0365,0.1615 0.0654,0.2835 0.046,0.1946 0.0483,0.3164 0.0183,0.9909 -0.0187,0.423 -0.0247,0.8045 -0.0133,0.8479 0.017,0.064 -9.2e-4,0.098 -0.0954,0.1787 l -0.11653,0.1 -0.0488,0.6234 c -0.0377,0.4815 -0.0639,0.6579 -0.1157,0.7749 l -0.0671,0.1514 -0.42315,-0.012 c -0.37468,-0.01 -0.42511,0 -0.44051,0.043 -0.008,0.03 -0.0684,0.1 -0.13065,0.1544 l -0.1132,0.099 -0.85469,0 c -0.47007,0 -1.05599,-0.01 -1.30204,-0.022 l -0.4474,-0.022 -0.062,-0.1005 c -0.0518,-0.084 -0.0586,-0.1354 -0.0408,-0.3115 0.0327,-0.3248 0.15472,-0.5348 0.45799,-0.7885 0.28284,-0.2366 0.72768,-0.6857 0.78299,-0.7904 0.0224,-0.043 0.0287,-0.1551 0.0168,-0.2982 -0.017,-0.2014 -0.0281,-0.2321 -0.0903,-0.2478 -0.21293,-0.053 -0.26323,-0.7075 -0.12681,-1.6495 l 0.0501,-0.3469 -0.12898,-0.2217 c -0.0709,-0.122 -0.19905,-0.419 -0.28482,-0.6603 l -0.15587,-0.4386 0.008,-0.5376 0.008,-0.5376 -0.16805,-0.5832 c -0.16002,-0.5554 -0.16824,-0.6027 -0.17194,-0.9894 -0.004,-0.305 0.01,-0.45 0.0526,-0.5826 0.0943,-0.2947 0.0776,-0.4257 -0.0868,-0.6767 l -0.14342,-0.2189 -0.085,-0.6173 c -0.0466,-0.3395 -0.11388,-0.822 -0.14922,-1.0721 -0.0353,-0.2502 -0.0933,-0.7181 -0.12833,-1.0397 -0.0352,-0.3216 -0.10125,-0.7815 -0.14674,-1.0219 -0.11819,-0.6239 -0.4027,-1.7842 -0.47035,-1.9183 -0.0316,-0.062 -0.12665,-0.4427 -0.21125,-0.8447 -0.14624,-0.6946 -0.30561,-1.3993 -0.37664,-1.6651 -0.0265,-0.099 -0.0475,-0.1218 -0.11271,-0.1218 -0.044,0 -0.10774,0.033 -0.1416,0.073 -0.0339,0.04 -0.0958,0.1139 -0.13794,0.1638 -0.0611,0.073 -0.10773,0.093 -0.23208,0.099 -0.11869,0.01 -0.17659,0.03 -0.24369,0.097 -0.28603,0.2857 -0.36048,0.3282 -0.59894,0.3417 -0.1504,0.01 -0.29726,0 -0.43495,-0.043 -0.1901,-0.052 -0.2277,-0.078 -0.4401,-0.3044 -0.36693,-0.392 -0.35187,-0.3469 -0.35202,-1.0551 -10e-5,-0.572 -0.005,-0.6157 -0.0651,-0.6661 -0.0639,-0.053 -0.0649,-0.1006 -0.0725,-3.1891 -0.008,-3.56 -9.1e-4,-3.7344 0.27114,-6.3677 0.036,-0.3485 0.093,-0.9844 0.12649,-1.4133 0.0335,-0.4289 0.0827,-0.9917 0.1094,-1.2508 0.0267,-0.2591 0.0569,-0.5808 0.0671,-0.7148 0.12051,-1.5858 0.15105,-1.7741 0.32805,-2.0174 0.1333,-0.1833 0.82548,-0.8001 1.1113,-0.9902 0.14725,-0.098 0.50583,-0.3214 0.79679,-0.4966 0.79167,-0.4765 0.99184,-0.6152 1.2489,-0.8652 l 0.23418,-0.2277 -0.0275,-0.3543 -0.0275,-0.3543 -0.16252,-0.1492 c -0.19854,-0.1825 -0.29016,-0.3341 -0.31689,-0.5244 -0.0239,-0.1706 -0.0543,-0.2584 -0.19977,-0.5785 -0.21198,-0.4665 -0.27289,-0.7642 -0.30225,-1.4779 -0.0387,-0.936 0.0239,-1.2347 0.33908,-1.6229 0.0756,-0.093 0.14674,-0.2057 0.15819,-0.2504 0.0387,-0.1509 0.14343,-0.2806 0.4442,-0.5502 0.35515,-0.3184 0.52214,-0.3996 0.96814,-0.4705 0.30132,-0.048 0.37251,-0.048 0.79433,0 0.62668,0.067 0.7597,0.1097 0.94223,0.301 0.0811,0.085 0.18548,0.1805 0.23243,0.2127 0.0468,0.032 0.21941,0.237 0.3833,0.4549 0.16384,0.2179 0.31002,0.4044 0.32469,0.4144 0.0696,0.048 0.18889,0.2463 0.18889,0.3146 0,0.042 0.0242,0.1234 0.054,0.1805 0.0297,0.057 0.0887,0.2781 0.13098,0.4909 0.0747,0.3752 0.0755,0.3945 0.0251,0.6415 -0.0622,0.3051 -0.246,0.8625 -0.32323,0.9804 -0.039,0.059 -0.0608,0.1832 -0.0737,0.4167 -0.0179,0.3266 -0.0204,0.3345 -0.13761,0.4641 -0.18734,0.2072 -0.22803,0.2829 -0.22803,0.4247 0,0.1132 0.0199,0.1512 0.13811,0.2644 0.40519,0.3879 0.66215,0.5128 1.93853,0.9423 1.19865,0.4034 2.47642,0.8762 2.61038,0.9659 0.18819,0.126 0.30296,0.3402 0.36219,0.6759 0.12516,0.7095 0.207,0.9997 0.65443,2.3212 0.71395,2.1089 0.91374,2.7462 0.95359,3.0422 0.0197,0.1469 0.0654,0.6692 0.1011,1.1606 0.0359,0.4914 0.0729,0.9447 0.0825,1.0074 0.0286,0.1872 -0.0468,1.6976 -0.11354,2.274 -0.0342,0.2948 -0.0856,0.7626 -0.1147,1.0396 -0.13131,1.2545 -0.43978,3.5198 -0.4855,3.5655 -0.01,0.01 -0.0511,0.035 -0.0916,0.056 -0.0405,0.021 -0.0707,0.053 -0.0671,0.072 0.0133,0.067 -0.0571,0.6463 -0.0908,0.7493 -0.0234,0.072 -0.0799,0.1323 -0.17485,0.1879 -0.14558,0.085 -0.43949,0.3768 -0.43949,0.4359 0,0.019 -0.0507,0.09 -0.11271,0.1585 -0.0788,0.087 -0.20084,0.1625 -0.40609,0.2504 l -0.29344,0.1257 10e-5,0.57 c 2.6e-4,1.7851 0.20042,4.4208 0.45546,5.9969 0.15588,0.9635 0.16567,1.0052 0.28867,1.229 0.11786,0.2148 0.32461,0.8344 0.48796,1.463 0.12882,0.4956 0.17219,1.2602 0.17907,3.1547 0.005,1.4827 0.015,1.8142 0.0636,2.141 0.0314,0.2126 0.0823,0.73 0.1132,1.1499 l 0.0559,0.7633 -0.13977,0.062 c -0.13063,0.058 -0.13977,0.07 -0.13977,0.1902 0,0.1185 0.0229,0.1512 0.30055,0.4289 0.24393,0.2441 0.33586,0.3655 0.48822,0.645 0.18384,0.3372 0.27589,0.6465 0.23281,0.7822 -0.0274,0.086 -0.22809,0.1867 -0.54769,0.2739 -0.25706,0.07 -0.38122,0.082 -0.9612,0.095 l -0.66603,0.015 -0.30864,-0.098 z"
       id="path2689"
       sodipodi:nodetypes="ccccsccccccccccccccssccccccccsccccccccccccccccsssccccscccccsccccccccccccccccccccccscccscscsccccccccccccccscccccccccccccccccccccccscccccccccsscccccccsccscccscccccccccccccccsccccccccccccccccccccccccccccscccccccccccsccscccssccccccccccccccccccccccccsccccccscccccccccccscsccccccccccccccccccccccccccccccccccccccccccccccsccccsccccccccccccccccscccccscccccccccccsccccccccccccccccccccccscccccsscsccsccccccsccssccccccccccccscccccccc" />
  </g>
</svg>
