<?xml version="1.0" encoding="UTF-8" standalone="no"?>
<!-- Created with Inkscape (http://www.inkscape.org/) -->

<svg
   xmlns:dc="http://purl.org/dc/elements/1.1/"
   xmlns:cc="http://creativecommons.org/ns#"
   xmlns:rdf="http://www.w3.org/1999/02/22-rdf-syntax-ns#"
   xmlns:svg="http://www.w3.org/2000/svg"
   xmlns="http://www.w3.org/2000/svg"
   xmlns:xlink="http://www.w3.org/1999/xlink"
   xmlns:sodipodi="http://sodipodi.sourceforge.net/DTD/sodipodi-0.dtd"
   xmlns:inkscape="http://www.inkscape.org/namespaces/inkscape"
   width="15.92"
   height="15.92"
   id="svg8107"
   version="1.1"
   inkscape:version="0.48.2 r9819"
   sodipodi:docname="coins_tiny.svg">
  <defs
     id="defs8109">
    <linearGradient
       inkscape:collect="always"
       xlink:href="#linearGradient13628-9-9"
       id="linearGradient47747"
       gradientUnits="userSpaceOnUse"
       gradientTransform="scale(2.26048,0.442384)"
       spreadMethod="reflect"
       x1="134.78203"
       y1="1251.5984"
       x2="137.12508"
       y2="1251.5985" />
    <linearGradient
       id="linearGradient13628-9-9">
      <stop
         id="stop13629-7-5"
         offset="0"
         style="stop-color:#dbdbdb;stop-opacity:1;" />
      <stop
         id="stop13630-98-7"
         offset="1"
         style="stop-color:#9f9f9f;stop-opacity:1;" />
    </linearGradient>
    <radialGradient
       inkscape:collect="always"
       xlink:href="#linearGradient14418-5-7"
       id="radialGradient47749"
       gradientUnits="userSpaceOnUse"
       gradientTransform="scale(1.81901,0.549749)"
       cx="170.20071"
       cy="1005.7717"
       fx="170.20071"
       fy="1005.7717"
       r="2.6936707" />
    <linearGradient
       id="linearGradient14418-5-7">
      <stop
         id="stop14419-8-9"
         offset="0"
         style="stop-color:#bcbcbc;stop-opacity:1;" />
      <stop
         id="stop14420-5-4"
         offset="1"
         style="stop-color:#ebebeb;stop-opacity:1;" />
    </linearGradient>
    <linearGradient
       inkscape:collect="always"
       xlink:href="#linearGradient13628-9-9"
       id="linearGradient47751"
       gradientUnits="userSpaceOnUse"
       gradientTransform="scale(2.26048,0.442384)"
       spreadMethod="reflect"
       x1="134.78203"
       y1="1251.5984"
       x2="137.12508"
       y2="1251.5985" />
    <linearGradient
       id="linearGradient7984">
      <stop
         id="stop7986"
         offset="0"
         style="stop-color:#dbdbdb;stop-opacity:1;" />
      <stop
         id="stop7988"
         offset="1"
         style="stop-color:#9f9f9f;stop-opacity:1;" />
    </linearGradient>
    <radialGradient
       inkscape:collect="always"
       xlink:href="#linearGradient14418-5-7"
       id="radialGradient47753"
       gradientUnits="userSpaceOnUse"
       gradientTransform="scale(1.81901,0.549749)"
       cx="170.20071"
       cy="1005.7717"
       fx="170.20071"
       fy="1005.7717"
       r="2.6936707" />
    <linearGradient
       id="linearGradient7991">
      <stop
         id="stop7993"
         offset="0"
         style="stop-color:#bcbcbc;stop-opacity:1;" />
      <stop
         id="stop7995"
         offset="1"
         style="stop-color:#ebebeb;stop-opacity:1;" />
    </linearGradient>
    <linearGradient
       inkscape:collect="always"
       xlink:href="#linearGradient13628-9-9"
       id="linearGradient47755"
       gradientUnits="userSpaceOnUse"
       gradientTransform="scale(2.26048,0.442384)"
       spreadMethod="reflect"
       x1="134.78203"
       y1="1251.5984"
       x2="137.12508"
       y2="1251.5985" />
    <linearGradient
       id="linearGradient7998">
      <stop
         id="stop8000"
         offset="0"
         style="stop-color:#dbdbdb;stop-opacity:1;" />
      <stop
         id="stop8002"
         offset="1"
         style="stop-color:#9f9f9f;stop-opacity:1;" />
    </linearGradient>
    <radialGradient
       inkscape:collect="always"
       xlink:href="#linearGradient14418-5-7"
       id="radialGradient47757"
       gradientUnits="userSpaceOnUse"
       gradientTransform="scale(1.81901,0.549749)"
       cx="170.20071"
       cy="1005.7717"
       fx="170.20071"
       fy="1005.7717"
       r="2.6936707" />
    <linearGradient
       id="linearGradient8005">
      <stop
         id="stop8007"
         offset="0"
         style="stop-color:#bcbcbc;stop-opacity:1;" />
      <stop
         id="stop8009"
         offset="1"
         style="stop-color:#ebebeb;stop-opacity:1;" />
    </linearGradient>
    <linearGradient
       inkscape:collect="always"
       xlink:href="#linearGradient13628-9-9"
       id="linearGradient47759"
       gradientUnits="userSpaceOnUse"
       gradientTransform="scale(2.26048,0.442384)"
       spreadMethod="reflect"
       x1="134.78203"
       y1="1251.5984"
       x2="137.12508"
       y2="1251.5985" />
    <linearGradient
       id="linearGradient8012">
      <stop
         id="stop8014"
         offset="0"
         style="stop-color:#dbdbdb;stop-opacity:1;" />
      <stop
         id="stop8016"
         offset="1"
         style="stop-color:#9f9f9f;stop-opacity:1;" />
    </linearGradient>
    <radialGradient
       inkscape:collect="always"
       xlink:href="#linearGradient14418-5-7"
       id="radialGradient47761"
       gradientUnits="userSpaceOnUse"
       gradientTransform="scale(1.81901,0.549749)"
       cx="170.20071"
       cy="1005.7717"
       fx="170.20071"
       fy="1005.7717"
       r="2.6936707" />
    <linearGradient
       id="linearGradient8019">
      <stop
         id="stop8021"
         offset="0"
         style="stop-color:#bcbcbc;stop-opacity:1;" />
      <stop
         id="stop8023"
         offset="1"
         style="stop-color:#ebebeb;stop-opacity:1;" />
    </linearGradient>
    <linearGradient
       inkscape:collect="always"
       xlink:href="#linearGradient13628-9-9"
       id="linearGradient47763"
       gradientUnits="userSpaceOnUse"
       gradientTransform="scale(2.26048,0.442384)"
       spreadMethod="reflect"
       x1="134.78203"
       y1="1251.5984"
       x2="137.12508"
       y2="1251.5985" />
    <linearGradient
       id="linearGradient8026">
      <stop
         id="stop8028"
         offset="0"
         style="stop-color:#dbdbdb;stop-opacity:1;" />
      <stop
         id="stop8030"
         offset="1"
         style="stop-color:#9f9f9f;stop-opacity:1;" />
    </linearGradient>
    <radialGradient
       inkscape:collect="always"
       xlink:href="#linearGradient14418-5-7"
       id="radialGradient47765"
       gradientUnits="userSpaceOnUse"
       gradientTransform="scale(1.81901,0.549749)"
       cx="170.20071"
       cy="1005.7717"
       fx="170.20071"
       fy="1005.7717"
       r="2.6936707" />
    <linearGradient
       id="linearGradient8033">
      <stop
         id="stop8035"
         offset="0"
         style="stop-color:#bcbcbc;stop-opacity:1;" />
      <stop
         id="stop8037"
         offset="1"
         style="stop-color:#ebebeb;stop-opacity:1;" />
    </linearGradient>
    <linearGradient
       inkscape:collect="always"
       xlink:href="#linearGradient13628-9-9"
       id="linearGradient47767"
       gradientUnits="userSpaceOnUse"
       gradientTransform="scale(2.26048,0.442384)"
       spreadMethod="reflect"
       x1="134.78203"
       y1="1251.5984"
       x2="137.12508"
       y2="1251.5985" />
    <linearGradient
       id="linearGradient8040">
      <stop
         id="stop8042"
         offset="0"
         style="stop-color:#dbdbdb;stop-opacity:1;" />
      <stop
         id="stop8044"
         offset="1"
         style="stop-color:#9f9f9f;stop-opacity:1;" />
    </linearGradient>
    <radialGradient
       inkscape:collect="always"
       xlink:href="#linearGradient14418-5-7"
       id="radialGradient47769"
       gradientUnits="userSpaceOnUse"
       gradientTransform="scale(1.81901,0.549749)"
       cx="170.20071"
       cy="1005.7717"
       fx="170.20071"
       fy="1005.7717"
       r="2.6936707" />
    <linearGradient
       id="linearGradient8047">
      <stop
         id="stop8049"
         offset="0"
         style="stop-color:#bcbcbc;stop-opacity:1;" />
      <stop
         id="stop8051"
         offset="1"
         style="stop-color:#ebebeb;stop-opacity:1;" />
    </linearGradient>
    <linearGradient
       inkscape:collect="always"
       xlink:href="#linearGradient13628-9-9"
       id="linearGradient47771"
       gradientUnits="userSpaceOnUse"
       gradientTransform="scale(2.26048,0.442384)"
       spreadMethod="reflect"
       x1="134.78203"
       y1="1251.5984"
       x2="137.12508"
       y2="1251.5985" />
    <linearGradient
       id="linearGradient8054">
      <stop
         id="stop8056"
         offset="0"
         style="stop-color:#dbdbdb;stop-opacity:1;" />
      <stop
         id="stop8058"
         offset="1"
         style="stop-color:#9f9f9f;stop-opacity:1;" />
    </linearGradient>
    <radialGradient
       inkscape:collect="always"
       xlink:href="#linearGradient14418-5-7"
       id="radialGradient47773"
       gradientUnits="userSpaceOnUse"
       gradientTransform="scale(1.81901,0.549749)"
       cx="170.20071"
       cy="1005.7717"
       fx="170.20071"
       fy="1005.7717"
       r="2.6936707" />
    <linearGradient
       id="linearGradient8061">
      <stop
         id="stop8063"
         offset="0"
         style="stop-color:#bcbcbc;stop-opacity:1;" />
      <stop
         id="stop8065"
         offset="1"
         style="stop-color:#ebebeb;stop-opacity:1;" />
    </linearGradient>
    <linearGradient
       inkscape:collect="always"
       xlink:href="#linearGradient13628-9-9"
       id="linearGradient47775"
       gradientUnits="userSpaceOnUse"
       gradientTransform="matrix(-2.2237219,0,0,0.4351903,1029.637,117.20694)"
       spreadMethod="reflect"
       x1="134.78203"
       y1="1251.5984"
       x2="137.12508"
       y2="1251.5985" />
    <linearGradient
       id="linearGradient8068">
      <stop
         id="stop8070"
         offset="0"
         style="stop-color:#dbdbdb;stop-opacity:1;" />
      <stop
         id="stop8072"
         offset="1"
         style="stop-color:#9f9f9f;stop-opacity:1;" />
    </linearGradient>
    <radialGradient
       inkscape:collect="always"
       xlink:href="#linearGradient14418-5-7"
       id="radialGradient47777"
       gradientUnits="userSpaceOnUse"
       gradientTransform="scale(1.81901,0.549749)"
       cx="170.20071"
       cy="1005.7717"
       fx="170.20071"
       fy="1005.7717"
       r="2.6936707" />
    <linearGradient
       id="linearGradient8075">
      <stop
         id="stop8077"
         offset="0"
         style="stop-color:#bcbcbc;stop-opacity:1;" />
      <stop
         id="stop8079"
         offset="1"
         style="stop-color:#ebebeb;stop-opacity:1;" />
    </linearGradient>
    <radialGradient
       r="2.6936707"
       fy="1005.7717"
       fx="170.20071"
       cy="1005.7717"
       cx="170.20071"
       gradientTransform="scale(1.81901,0.549749)"
       gradientUnits="userSpaceOnUse"
       id="radialGradient8105"
       xlink:href="#linearGradient14418-5-7"
       inkscape:collect="always" />
  </defs>
  <sodipodi:namedview
     id="base"
     pagecolor="#ffffff"
     bordercolor="#666666"
     borderopacity="1.0"
     inkscape:pageopacity="0.0"
     inkscape:pageshadow="2"
     inkscape:zoom="63.356768"
     inkscape:cx="8.4657371"
     inkscape:cy="6.0990744"
     inkscape:document-units="px"
     inkscape:current-layer="layer1"
     showgrid="false"
     fit-margin-top="0"
     fit-margin-left="0"
     fit-margin-right="0"
     fit-margin-bottom="0"
     inkscape:window-width="1920"
     inkscape:window-height="1026"
     inkscape:window-x="0"
     inkscape:window-y="26"
     inkscape:window-maximized="1" />
  <metadata
     id="metadata8112">
    <rdf:RDF>
      <cc:Work
         rdf:about="">
        <dc:format>image/svg+xml</dc:format>
        <dc:type
           rdf:resource="http://purl.org/dc/dcmitype/StillImage" />
        <dc:title />
      </cc:Work>
    </rdf:RDF>
  </metadata>
  <g
     inkscape:label="Calque 1"
     inkscape:groupmode="layer"
     id="layer1"
     transform="translate(-249.96376,-432.30654)">
    <g
       style="display:inline;filter:url(#filter59863)"
       id="g47349"
       transform="matrix(0.74233148,0,0,0.74233148,-311.583,-50.974455)">
      <g
         transform="matrix(-0.98373879,0,0,0.98373879,1024.1152,119.67219)"
         id="g47351">
        <path
           style="fill:url(#linearGradient47747);fill-opacity:1;fill-rule:evenodd;stroke:#000000;stroke-width:0.25pt;stroke-linecap:butt;stroke-linejoin:miter;stroke-opacity:1"
           sodipodi:nodetypes="cccc"
           id="path47353"
           d="m 304.82829,552.94494 0.045,1.55203 c 2.24182,1.25212 6.643,1.35709 9.46965,-0.0675 l 0.0225,-1.55203"
           inkscape:connector-curvature="0" />
        <path
           style="fill:url(#radialGradient47749);fill-opacity:1;fill-rule:nonzero;stroke:#000000;stroke-width:0.26249999;stroke-linecap:butt;stroke-linejoin:round;stroke-miterlimit:4;stroke-opacity:1"
           sodipodi:type="arc"
           sodipodi:ry="1.349594"
           sodipodi:rx="4.7685652"
           sodipodi:cy="552.92242"
           sodipodi:cx="309.59686"
           id="path47355"
           d="m 314.36543,552.92242 a 4.7685652,1.349594 0 1 1 -9.53713,0 4.7685652,1.349594 0 1 1 9.53713,0 z" />
      </g>
      <g
         id="g47357"
         transform="matrix(-0.98373879,0,0,0.98373879,1034.4794,120.64067)">
        <path
           inkscape:connector-curvature="0"
           d="m 304.82829,552.94494 0.045,1.55203 c 2.24182,1.25212 6.643,1.35709 9.46965,-0.0675 l 0.0225,-1.55203"
           id="path47359"
           sodipodi:nodetypes="cccc"
           style="fill:url(#linearGradient47751);fill-opacity:1;fill-rule:evenodd;stroke:#000000;stroke-width:0.25pt;stroke-linecap:butt;stroke-linejoin:miter;stroke-opacity:1" />
        <path
           d="m 314.36543,552.92242 a 4.7685652,1.349594 0 1 1 -9.53713,0 4.7685652,1.349594 0 1 1 9.53713,0 z"
           id="path47361"
           sodipodi:cx="309.59686"
           sodipodi:cy="552.92242"
           sodipodi:rx="4.7685652"
           sodipodi:ry="1.349594"
           sodipodi:type="arc"
           style="fill:url(#radialGradient47753);fill-opacity:1;fill-rule:nonzero;stroke:#000000;stroke-width:0.26249999;stroke-linecap:butt;stroke-linejoin:round;stroke-miterlimit:4;stroke-opacity:1" />
      </g>
      <g
         transform="matrix(-0.98373879,0,0,0.98373879,1026.5554,121.96134)"
         id="g47363">
        <path
           style="fill:url(#linearGradient47755);fill-opacity:1;fill-rule:evenodd;stroke:#000000;stroke-width:0.25pt;stroke-linecap:butt;stroke-linejoin:miter;stroke-opacity:1"
           sodipodi:nodetypes="cccc"
           id="path47365"
           d="m 304.82829,552.94494 0.045,1.55203 c 2.24182,1.25212 6.643,1.35709 9.46965,-0.0675 l 0.0225,-1.55203"
           inkscape:connector-curvature="0" />
        <path
           style="fill:url(#radialGradient47757);fill-opacity:1;fill-rule:nonzero;stroke:#000000;stroke-width:0.26249999;stroke-linecap:butt;stroke-linejoin:round;stroke-miterlimit:4;stroke-opacity:1"
           sodipodi:type="arc"
           sodipodi:ry="1.349594"
           sodipodi:rx="4.7685652"
           sodipodi:cy="552.92242"
           sodipodi:cx="309.59686"
           id="path47367"
           d="m 314.36543,552.92242 a 4.7685652,1.349594 0 1 1 -9.53713,0 4.7685652,1.349594 0 1 1 9.53713,0 z" />
      </g>
      <g
         id="g47369"
         transform="matrix(-0.98373879,0,0,0.98373879,1034.3914,119.4961)">
        <path
           inkscape:connector-curvature="0"
           d="m 304.82829,552.94494 0.045,1.55203 c 2.24182,1.25212 6.643,1.35709 9.46965,-0.0675 l 0.0225,-1.55203"
           id="path47371"
           sodipodi:nodetypes="cccc"
           style="fill:url(#linearGradient47759);fill-opacity:1;fill-rule:evenodd;stroke:#000000;stroke-width:0.25pt;stroke-linecap:butt;stroke-linejoin:miter;stroke-opacity:1" />
        <path
           d="m 314.36543,552.92242 a 4.7685652,1.349594 0 1 1 -9.53713,0 4.7685652,1.349594 0 1 1 9.53713,0 z"
           id="path47373"
           sodipodi:cx="309.59686"
           sodipodi:cy="552.92242"
           sodipodi:rx="4.7685652"
           sodipodi:ry="1.349594"
           sodipodi:type="arc"
           style="fill:url(#radialGradient47761);fill-opacity:1;fill-rule:nonzero;stroke:#000000;stroke-width:0.26249999;stroke-linecap:butt;stroke-linejoin:round;stroke-miterlimit:4;stroke-opacity:1" />
      </g>
      <g
         id="g47375"
         transform="matrix(-0.98373879,0,0,0.98373879,1025.1467,119.67219)">
        <path
           inkscape:connector-curvature="0"
           d="m 304.82829,552.94494 0.045,1.55203 c 2.24182,1.25212 6.643,1.35709 9.46965,-0.0675 l 0.0225,-1.55203"
           id="path47377"
           sodipodi:nodetypes="cccc"
           style="fill:url(#linearGradient47763);fill-opacity:1;fill-rule:evenodd;stroke:#000000;stroke-width:0.25pt;stroke-linecap:butt;stroke-linejoin:miter;stroke-opacity:1" />
        <path
           d="m 314.36543,552.92242 a 4.7685652,1.349594 0 1 1 -9.53713,0 4.7685652,1.349594 0 1 1 9.53713,0 z"
           id="path47379"
           sodipodi:cx="309.59686"
           sodipodi:cy="552.92242"
           sodipodi:rx="4.7685652"
           sodipodi:ry="1.349594"
           sodipodi:type="arc"
           style="fill:url(#radialGradient47765);fill-opacity:1;fill-rule:nonzero;stroke:#000000;stroke-width:0.26249999;stroke-linecap:butt;stroke-linejoin:round;stroke-miterlimit:4;stroke-opacity:1" />
      </g>
      <g
         transform="matrix(-0.98373879,0,0,0.98373879,1034.3914,118.35152)"
         id="g47381">
        <path
           style="fill:url(#linearGradient47767);fill-opacity:1;fill-rule:evenodd;stroke:#000000;stroke-width:0.25pt;stroke-linecap:butt;stroke-linejoin:miter;stroke-opacity:1"
           sodipodi:nodetypes="cccc"
           id="path47383"
           d="m 304.82829,552.94494 0.045,1.55203 c 2.24182,1.25212 6.643,1.35709 9.46965,-0.0675 l 0.0225,-1.55203"
           inkscape:connector-curvature="0" />
        <path
           style="fill:url(#radialGradient47769);fill-opacity:1;fill-rule:nonzero;stroke:#000000;stroke-width:0.26249999;stroke-linecap:butt;stroke-linejoin:round;stroke-miterlimit:4;stroke-opacity:1"
           sodipodi:type="arc"
           sodipodi:ry="1.349594"
           sodipodi:rx="4.7685652"
           sodipodi:cy="552.92242"
           sodipodi:cx="309.59686"
           id="path47385"
           d="m 314.36543,552.92242 a 4.7685652,1.349594 0 1 1 -9.53713,0 4.7685652,1.349594 0 1 1 9.53713,0 z" />
      </g>
      <g
         id="g47387"
         transform="matrix(-0.98373879,0,0,0.98373879,1025.0587,118.61565)">
        <path
           inkscape:connector-curvature="0"
           d="m 304.82829,552.94494 0.045,1.55203 c 2.24182,1.25212 6.643,1.35709 9.46965,-0.0675 l 0.0225,-1.55203"
           id="path47389"
           sodipodi:nodetypes="cccc"
           style="fill:url(#linearGradient47771);fill-opacity:1;fill-rule:evenodd;stroke:#000000;stroke-width:0.25pt;stroke-linecap:butt;stroke-linejoin:miter;stroke-opacity:1" />
        <path
           d="m 314.36543,552.92242 a 4.7685652,1.349594 0 1 1 -9.53713,0 4.7685652,1.349594 0 1 1 9.53713,0 z"
           id="path47391"
           sodipodi:cx="309.59686"
           sodipodi:cy="552.92242"
           sodipodi:rx="4.7685652"
           sodipodi:ry="1.349594"
           sodipodi:type="arc"
           style="fill:url(#radialGradient47773);fill-opacity:1;fill-rule:nonzero;stroke:#000000;stroke-width:0.26249999;stroke-linecap:butt;stroke-linejoin:round;stroke-miterlimit:4;stroke-opacity:1" />
      </g>
      <path
         inkscape:connector-curvature="0"
         d="m 729.76559,661.16033 -0.0443,1.52679 c -2.20537,1.23176 -6.53498,1.33502 -9.31566,-0.0664 l -0.0221,-1.5268"
         id="path47393"
         sodipodi:nodetypes="cccc"
         style="fill:url(#linearGradient47775);fill-opacity:1;fill-rule:evenodd;stroke:#000000;stroke-width:0.2459347pt;stroke-linecap:butt;stroke-linejoin:miter;stroke-opacity:1" />
      <path
         d="m 314.36543,552.92242 a 4.7685652,1.349594 0 1 1 -9.53713,0 4.7685652,1.349594 0 1 1 9.53713,0 z"
         id="path47395"
         sodipodi:cx="309.59686"
         sodipodi:cy="552.92242"
         sodipodi:rx="4.7685652"
         sodipodi:ry="1.349594"
         sodipodi:type="arc"
         style="fill:url(#radialGradient8105);fill-opacity:1;fill-rule:nonzero;stroke:#000000;stroke-width:0.26249999;stroke-linecap:butt;stroke-linejoin:round;stroke-miterlimit:4;stroke-opacity:1"
         transform="matrix(-0.98373879,0,0,0.98373879,1029.637,117.20694)" />
    </g>
    <g
       transform="matrix(0.44756185,-0.29624195,0.29624195,0.44756185,-225.54819,213.40152)"
       id="g5098">
      <path
         sodipodi:nodetypes="csssscssssssc"
         inkscape:connector-curvature="0"
         id="path5100"
         d="m 509.59363,837.80915 c -1.27131,2.69781 -7.38011,9.02515 -8.65906,11.58304 -0.32455,0.64911 2.79538,1.47617 3.23327,1.67828 2.17215,1.00252 4.54333,1.57896 6.7577,2.50757 3.55902,1.49249 6.92885,3.36833 10.49779,4.84513 1.51172,0.62554 3.39259,1.25586 4.76014,2.16757 0.0497,0.0331 0.44841,0.51956 0.55251,0.46751 1.0536,-0.5268 3.04531,-3.88979 3.74011,-4.84514 0.61983,-0.85227 1.18443,-1.7417 1.78505,-2.59257 2.84497,-4.03037 4.72787,-4.69799 0.18036,-6.26119 -1.52245,-0.52334 -2.95751,-1.26751 -4.46263,-1.82756 -3.46185,-1.28813 -7.3992,-4.45175 -10.96531,-5.10014 -2.88531,-0.5246 -4.71976,-1.85102 -7.41993,-2.6225 z"
         style="fill:#c9c9c9;fill-opacity:1;stroke:#3b3b3b;stroke-width:0.48084629;stroke-linecap:butt;stroke-linejoin:miter;stroke-miterlimit:4;stroke-opacity:1;stroke-dasharray:none" />
      <text
         transform="matrix(0.89847654,0.43902153,-0.43902153,0.89847654,0,0)"
         sodipodi:linespacing="125%"
         id="text5102"
         y="541.14172"
         x="839.98297"
         style="font-size:16.56983185px;font-style:normal;font-variant:normal;font-weight:bold;font-stretch:normal;line-height:125%;letter-spacing:0px;word-spacing:0px;fill:#3b3b3b;fill-opacity:1;stroke:none;font-family:Purisa;-inkscape-font-specification:Purisa Bold"
         xml:space="preserve"><tspan
           y="541.14172"
           x="839.98297"
           id="tspan5104"
           sodipodi:role="line">€</tspan></text>
      <g
         inkscape:transform-center-y="0.21064975"
         inkscape:transform-center-x="-1.3785607"
         transform="matrix(0.03847814,-4.4928447e-4,4.4928447e-4,0.03847814,502.02582,840.40192)"
         id="g5106">
        <path
           id="path5108"
           d="m 123.07201,301.73035 c 1.77278,-6.69158 6.39865,-18.49513 11.45165,-29.22036 1.31185,-2.7845 8.56633,-20.55177 16.12101,-39.4828 9.71861,-24.35349 13.41079,-34.7244 12.62449,-35.46068 -0.61124,-0.57234 -2.83496,-1.26936 -4.94162,-1.54893 -6.47112,-0.85881 -21.16879,-12.16551 -19.85953,-15.27761 0.26601,-0.63231 -0.0599,-3.25543 -0.72427,-5.82919 -0.66438,-2.57374 -1.43784,-10.22371 -1.71882,-16.99991 -0.4748,-11.45013 -0.17864,-13.27738 4.19332,-25.87072 4.84909,-13.96761 5.25673,-17.98765 3.2147,-31.70159 -0.47112,-3.163888 -0.44831,-7.683468 0.0508,-10.043479 0.89207,-4.219231 -0.0979,-11.592203 -2.02094,-15.050169 -0.6518,-1.172087 -0.13827,-3.094357 1.53756,-5.756353 2.24476,-3.565507 2.88043,-3.84334 5.89345,-2.575769 l 3.3773,1.420826 2.25108,-7.501359 2.25108,-7.501355 5.68764,-0.09838 c 6.36203,-0.11001 12.4283,2.926747 14.43717,7.227177 0.67195,1.438467 0.85805,6.092329 0.41354,10.341911 -1.01255,9.680139 0.91853,10.939821 4.27102,2.786129 2.24598,-5.462573 2.74866,-5.963003 5.31141,-5.288052 3.74157,0.985454 5.42813,4.907755 5.1888,12.067476 -0.11046,3.306087 0.6403,6.56689 1.72477,7.490673 1.05625,0.899739 1.54214,2.535154 1.07974,3.63426 -0.46238,1.099082 -0.7019,4.67294 -0.53224,7.941864 0.25744,4.96083 -0.31283,7.04733 -3.44912,12.6196 -2.12359,3.77299 -5.30615,7.63896 -7.31878,8.89039 -7.90373,4.91451 -10.33768,11.04615 -7.17601,18.07784 3.12665,6.95376 5.37717,6.91406 34.47961,-0.60796 6.33986,-1.63863 12.52161,-2.91828 13.73719,-2.84363 1.21559,0.0747 3.99631,-0.5052 6.17944,-1.28856 2.18312,-0.78334 6.50582,-0.96484 9.60599,-0.4033 3.10016,0.56151 6.51643,0.37169 7.59172,-0.42189 1.07529,-0.79361 3.85633,-2.71783 6.18009,-4.2761 2.32378,-1.55829 4.58761,-3.69506 5.03075,-4.7484 0.44314,-1.05335 2.59167,-3.78286 4.77452,-6.06558 3.35613,-3.50973 4.02936,-4.91138 4.36126,-9.08019 0.29554,-3.71202 1.17026,-5.91344 3.54106,-8.9118 5.66218,-7.161034 6.34036,-10.533669 4.03922,-20.087386 -3.32536,-13.806161 -3.38678,-13.379665 4.60672,-31.996362 l 7.31853,-17.044725 7.71034,-4.658884 c 10.0638,-6.080976 17.43506,-8.785383 28.40189,-10.420263 13.7161,-2.044728 23.65934,-0.704163 39.91009,5.380733 16.22627,6.07573 23.23735,10.784461 33.74713,22.664917 3.61951,4.091591 6.88888,7.5688 7.26525,7.727135 2.04481,0.860253 12.79299,29.51926 12.4914,33.307185 -0.4996,6.275028 -9.34718,25.95865 -13.94703,31.02858 -5.58015,6.1504 -12.40721,10.08952 -20.82023,12.01295 -7.18656,1.64305 -7.45428,1.84464 -8.58269,6.46248 -0.6406,2.62161 -2.67406,6.88663 -4.51882,9.47782 -2.87063,4.03221 -3.29481,5.51584 -2.94296,10.29311 0.22611,3.07001 -0.0737,5.92732 -0.66656,6.34955 -0.59271,0.42224 -0.33158,3.08943 0.58027,5.92707 1.79093,5.57317 3.92421,21.63106 5.08557,38.28034 0.3996,5.7288 1.70448,13.69255 2.89976,17.69722 2.43152,8.14684 3.05105,17.59879 1.41529,21.59327 -0.59559,1.45445 -0.943,4.41132 -0.77199,6.57083 0.17101,2.15952 0.0267,5.25348 -0.32042,6.87548 -1.07501,5.02129 -0.88214,9.85807 0.44457,11.14953 0.69782,0.67925 1.49235,5.0293 1.76562,9.66673 0.27331,4.63749 0.81216,8.57434 1.19749,8.74868 0.38535,0.17425 -0.94319,3.52575 -2.95225,7.4477 -3.35132,6.54215 -3.51207,7.47604 -1.94749,11.31308 0.93795,2.30024 2.72916,4.61298 3.98047,5.1394 1.25132,0.52644 2.37683,1.60656 2.50113,2.40029 0.39496,2.52185 -1.88444,0.73749 -18.50806,-14.4885 -10.52213,-9.63749 -16.81335,-14.66154 -17.83685,-14.24419 -0.8697,0.3546 -2.64035,0.20636 -3.93487,-0.32947 -1.29475,-0.53524 -16.88809,1.85159 -34.65238,5.30534 l -32.29875,6.27953 -2.28307,4.47559 c -4.8002,9.40993 -2.9687,12.42181 33.65523,55.34594 19.40167,22.73922 20.46107,23.50376 28.19664,20.34953 3.20938,-1.30863 4.72366,-1.22609 6.80509,0.37094 4.47709,3.43518 10.88926,6.40836 12.04499,5.58501 0.60018,-0.42756 2.58139,-0.15046 4.40271,0.61577 1.82132,0.76624 4.06979,0.80173 4.99666,0.0789 1.94311,-1.51547 12.19931,-2.53202 11.61858,-1.15161 -1.51859,3.60966 -18.62109,4.273 -26.34871,1.02199 -4.93603,-2.07661 -10.49993,0.76358 -14.34352,7.3219 l -3.22727,5.50668 -103.42248,-43.50997 -103.42253,-43.50995 1.84758,-6.97396 z m 133.00967,-8.73244 c 7.41514,-4.27892 8.834,-6.85529 8.09376,-14.69678 l -0.64201,-6.80059 5.24006,-0.38594 c 9.13956,-0.67317 9.92267,-1.72952 6.85654,-9.24906 -2.71546,-6.65951 -2.70469,-9.04431 0.0465,-10.2484 0.82054,-0.35916 2.21709,-1.56114 3.10347,-2.67108 0.88637,-1.10998 0.59156,-0.17686 -0.65513,2.07352 -1.44644,2.611 -1.92194,4.93714 -1.31395,6.42816 0.52398,1.28508 0.78858,2.72663 0.58795,3.2035 -0.57537,1.3677 2.25206,8.20961 3.62347,8.7681 0.68097,0.27705 3.15083,-0.79831 5.48869,-2.39015 4.47101,-3.04424 9.30488,-12.03104 7.69038,-14.29735 -0.46946,-0.65897 -1.00492,-3.1096 -1.18993,-5.44583 -0.32227,-4.06946 -0.16402,-4.32444 3.77279,-6.07854 5.94998,-2.6511 9.03641,-7.67131 8.72101,-14.18512 -0.14188,-2.93138 -0.64213,-5.49837 -1.11153,-5.70434 -1.58261,-0.6945 0.43813,-3.48832 3.91787,-5.41676 1.90066,-1.05333 4.49861,-3.98432 5.77322,-6.51328 2.29655,-4.55659 2.35819,-4.58101 6.82569,-2.70351 5.57148,2.34149 11.30404,0.57338 13.26672,-4.09191 0.74885,-1.78001 0.84614,-3.45319 0.21621,-3.7182 -0.62995,-0.26501 -1.36004,0.0285 -1.62246,0.65229 -0.26243,0.62376 -1.10766,-0.12422 -1.87831,-1.66247 -0.77064,-1.53811 -0.84024,-3.38132 -0.15465,-4.09599 0.92406,-0.96327 0.0204,-1.81527 -3.49328,-3.29345 -3.14369,-1.32255 -5.20235,-1.51188 -6.1134,-0.56219 -0.75548,0.78754 -3.76749,1.14313 -6.69335,0.79025 -2.92586,-0.3529 -6.16055,-0.42711 -7.18821,-0.16488 -1.02764,0.26221 -2.53863,-0.16611 -3.35769,-0.95188 -1.8598,-1.78408 -2.51852,-1.00117 -8.06443,9.58522 -2.52965,4.82873 -4.83221,8.08415 -5.2767,7.46023 -0.4337,-0.60881 -0.37818,-1.39931 0.12345,-1.75664 0.50162,-0.35733 1.1393,-2.32198 1.4171,-4.36583 0.44942,-3.30655 0.10961,-3.01916 -3.08293,2.60714 -2.07653,3.65958 -3.4555,7.33848 -3.27343,8.73319 0.29233,2.23947 0.37666,2.26917 1.19263,0.42019 0.48291,-1.09434 1.38241,-1.77749 1.99883,-1.51816 0.64072,0.26955 -0.42381,3.96133 -2.48523,8.61877 -3.56281,8.04963 -3.61797,8.10611 -4.60227,4.71425 l -0.99624,-3.43303 -1.93077,2.57101 c -2.40097,3.19714 -2.19449,6.19117 0.35529,5.15148 2.9609,-1.20731 3.3018,-0.27773 1.18293,3.22564 -1.28333,2.12182 -1.60114,3.95774 -0.87002,5.02617 0.91789,1.34139 0.77608,1.75004 -0.69832,2.01205 -1.01761,0.18082 -2.17647,1.36148 -2.57529,2.62369 -1.68073,5.31951 -3.29011,7.28016 -5.2226,6.36257 -1.17463,-0.55779 -1.29203,-0.92371 -0.2916,-0.90902 2.87644,0.0423 3.45926,-3.44363 0.64327,-3.8475 -2.03875,-0.29238 -2.33928,-1.14549 -1.60347,-4.55134 0.49807,-2.30532 1.59609,-4.91131 2.44031,-5.79098 0.84399,-0.87978 5.16864,-10.43907 9.61033,-21.24287 4.44165,-10.80384 8.54544,-20.76048 9.11943,-22.12592 0.80122,-1.90597 -0.27718,-4.00347 -4.64285,-9.03046 -3.12778,-3.6014 -6.07311,-6.71051 -6.5454,-6.9092 -1.68425,-0.70857 0.61151,4.37398 3.87013,8.56799 1.82283,2.3461 3.14854,5.47645 2.94604,6.9564 -0.48305,3.53027 -5.48905,14.96565 -9.52388,21.7557 l -3.2042,5.39221 -0.4243,-4.47238 c -0.40189,-4.23644 -0.20618,-4.68751 3.70935,-8.54981 5.61031,-5.53406 7.08659,-10.23656 5.33602,-16.99696 l -1.47284,-5.68787 -3.36206,1.76617 c -2.37044,1.24527 -3.33046,1.25464 -3.25479,0.0318 0.0763,-1.23322 -0.67688,-1.24115 -2.60608,-0.0276 -2.13776,1.34491 -2.56906,2.18277 -2.03314,3.94961 0.37411,1.23342 -0.18576,3.54406 -1.24415,5.13474 -1.14195,1.71628 -1.81143,5.06808 -1.64662,8.244 0.28899,5.56839 -1.05294,7.6533 -5.86558,9.11306 -3.3844,1.02657 -5.95436,7.91895 -4.68047,12.55262 1.35269,4.92029 0.92777,5.83504 -4.34302,9.34917 -5.25336,3.50252 -7.71326,8.06548 -7.45469,13.8281 0.23,5.1255 3.60925,10.86657 5.57279,9.46775 0.75911,-0.5408 1.39297,0.86536 1.52615,3.38568 0.12522,2.37087 1.31354,5.77195 2.64058,7.55796 l 2.41276,3.24733 -3.53446,2.18549 c -2.25604,1.39499 -4.32955,4.07535 -5.73255,7.4103 -1.86509,4.43326 -1.84902,6.19551 0.10602,11.63193 1.26732,3.52393 2.591,6.50566 2.94156,6.62613 0.35052,0.12068 2.86563,-1.06682 5.58907,-2.6384 z m 0.69138,-19.66998 c 0.73138,-0.76241 1.67122,-0.90695 2.08852,-0.3212 1.05104,1.47534 0.74381,1.83988 -1.49072,1.76875 -1.28583,-0.0408 -1.48486,-0.52289 -0.5978,-1.44755 z m 12.88196,-11.36675 c -2.01286,-5.37548 -0.85632,-5.73379 1.82097,-0.56412 0.95694,1.84778 1.34348,3.8116 0.85896,4.36406 -0.4845,0.55246 -1.69048,-1.15752 -2.67993,-3.79994 z m -12.5959,-12.64639 c 1.68209,-1.13243 3.5262,-3.171 4.098,-4.53019 0.88569,-2.10532 1.21118,-2.14151 2.1985,-0.24441 0.63734,1.22473 1.26441,3.53433 1.39346,5.13244 0.12913,1.59812 -0.0168,2.3436 -0.32413,1.65664 -0.30731,-0.687 -1.66645,-0.896 -3.0203,-0.46454 -1.3538,0.43151 -3.57354,0.72255 -4.93269,0.6468 -2.34258,-0.13052 -2.31201,-0.24491 0.58716,-2.19674 z m 29.12152,-1.18671 c 0.80246,-0.83647 1.96224,-1.3092 2.57725,-1.05047 1.50541,0.63336 -0.53237,2.83984 -2.48457,2.69026 -0.95431,-0.073 -0.98997,-0.70441 -0.0926,-1.63979 z m -24.08716,-14.27658 -0.90008,-4.89026 5.28495,-2.89455 5.28499,-2.89455 -3.97923,7.61939 c -2.18859,4.19067 -4.16178,7.69381 -4.38489,7.7848 -0.22312,0.091 -0.81069,-2.03521 -1.30574,-4.72483 z m 21.0882,4.65961 c 3.08528,-7.73894 4.18668,-8.14363 4.15011,-1.52483 -0.0247,4.44419 -2.79054,9.00884 -5.39902,8.90994 -1.22318,-0.0465 -0.88902,-2.02244 1.24891,-7.38511 z m 7.77517,-0.4745 c 0.10398,-0.24754 1.11837,-0.42053 2.25379,-0.3844 1.18381,0.0377 1.56279,0.42309 0.88837,0.90352 -1.13045,0.80535 -3.53242,0.40852 -3.14216,-0.51912 z m 6.7539,-13.9266 c 0.56466,-0.74986 1.11732,-1.57894 1.22817,-1.84239 0.11081,-0.26344 0.71692,-0.26217 1.34684,0.002 0.62995,0.26499 0.8073,1.28537 0.39415,2.26742 -0.41317,0.98209 -1.10004,1.29594 -1.52636,0.69752 -0.4263,-0.59845 -1.15636,-0.78974 -1.62229,-0.42507 -0.46595,0.36468 -0.38518,0.0495 0.17949,-0.70037 z m -31.96107,-14.06796 c 0.90531,-0.94861 1.81315,-1.31483 2.01743,-0.81385 0.2043,0.50099 -0.53642,1.27712 -1.64599,1.72473 -1.60351,0.64686 -1.67971,0.45995 -0.37144,-0.91088 z m 27.50651,5.99103 c 2.21309,-4.46167 3.34228,-5.74131 4.27597,-4.84561 1.88265,1.80603 0.70588,6.88922 -2.21954,9.58757 -4.38263,4.04251 -5.33009,1.85781 -2.05643,-4.74196 z M 271.7145,191.10433 c 0.40322,-1.36932 5.29681,-5.58628 6.09362,-5.25109 1.02171,0.42985 2.40256,4.02855 1.95442,5.09367 -0.20367,0.48418 -1.01863,0.25841 -1.81099,-0.50171 -0.79235,-0.76009 -1.69347,-0.78103 -2.00248,-0.0466 -0.30901,0.7345 -0.91065,0.84583 -1.33698,0.24739 -0.42633,-0.59845 -1.30858,-0.55045 -1.9605,0.10674 -0.65198,0.65712 -1.07366,0.81535 -0.93709,0.3516 z m 33.17212,10.66623 c 0.23627,-0.53599 1.24457,-1.5416 2.2396,-2.23511 1.58227,-1.10284 1.9548,-0.90382 2.97077,1.58681 0.63888,1.56626 0.57792,2.60222 -0.13552,2.3021 -0.71339,-0.30014 -2.24396,-0.57585 -3.40122,-0.61266 -1.15729,-0.0369 -1.91046,-0.50535 -1.67369,-1.04114 z m -3.56611,-4.34057 c 0.20791,-0.4686 1.20379,-1.41453 2.21196,-2.10251 1.48224,-1.01155 1.62891,-0.75639 0.7664,1.33346 -0.5871,1.42119 -1.58201,2.36753 -2.21193,2.10251 -0.62995,-0.26501 -0.97482,-0.86505 -0.76643,-1.33346 z m 10.98473,-0.33987 c -0.53636,-1.76824 -0.0871,-2.26456 2.24746,-2.48273 2.31486,-0.21632 2.90474,0.13827 2.85452,1.71637 -0.1301,4.09001 -3.92115,4.65942 -5.10198,0.76636 z m 7.29466,4.10415 c 0.92105,0.0139 2.20955,0.5556 2.86331,1.2046 0.65374,0.64897 -0.0998,0.63792 -1.67471,-0.0244 -1.57482,-0.66254 -2.1097,-1.19356 -1.1886,-1.18001 z M 166.64628,181.85153 c 5.04998,-0.0495 5.09085,-0.0849 7.93913,-6.85514 3.86115,-9.1779 3.48008,-19.33527 -1.17492,-31.31645 -1.28276,-3.30172 -1.64497,-7.61637 -0.9795,-11.66849 0.58079,-3.53624 0.41286,-7.0465 -0.37314,-7.80051 -0.786,-0.75403 -4.17318,-1.22253 -7.52704,-1.04116 -3.35388,0.18139 -7.86993,-0.41566 -10.03569,-1.3268 -5.60971,-2.36001 -7.84102,-0.11944 -12.204,12.25478 -5.31952,15.08721 -4.20895,34.12583 2.33429,40.01687 4.03549,3.63329 15.88661,7.79711 22.02087,7.7369 z m 206.41994,80.83913 c -0.22048,-0.54068 -0.77576,0.0218 -1.23397,1.25018 -0.50634,1.35738 -0.34913,1.74292 0.40084,0.98309 0.67867,-0.68761 1.05359,-1.69256 0.83318,-2.23325 z m -75.37685,-71.32218 c -0.19855,-1.2679 -3.31511,-3.11059 -3.70271,-2.18927 -0.11082,0.26346 -0.23213,1.44114 -0.2696,2.61709 -0.0523,1.64622 0.41977,1.99014 2.05234,1.49494 1.16622,-0.35373 2.03019,-1.21898 1.91997,-1.92276 z m 11.14432,-7.62822 c 4.58484,-2.70504 8.58127,-5.47603 8.88089,-6.15773 0.64287,-1.46236 -3.26843,-5.97255 -6.2771,-7.23831 -1.1582,-0.48727 -3.87122,-0.74376 -6.02891,-0.56999 -2.16447,0.17428 -4.28646,-0.33243 -4.73372,-1.13041 -1.23708,-2.2073 -8.67007,-6.45201 -9.83942,-5.61895 -1.16364,0.82898 -1.61349,11.30573 -0.60483,14.08668 0.36126,0.996 1.09588,3.27658 1.63248,5.06792 0.638,2.12975 2.30104,3.81456 4.80511,4.86802 3.3659,1.41604 4.83841,1.01574 12.1655,-3.30723 z M 166.02328,120.5553 c 2.785,-0.72118 6.81912,-1.20086 8.96469,-1.06595 4.74334,0.29825 10.86463,-3.90067 12.61801,-8.65541 1.04959,-2.84619 0.71186,-3.97432 -1.80577,-6.03182 -4.55861,-3.72552 -5.08861,-12.530045 -1.08734,-18.064173 1.6326,-2.258051 2.83605,-4.430015 2.67434,-4.826605 -0.73399,-1.800101 -5.72341,-3.517685 -6.83936,-2.354404 -0.68305,0.712029 -3.27246,1.347866 -5.75427,1.413 -9.58227,0.251443 -9.53018,0.303195 -10.85955,-10.793202 -0.67606,-5.642991 -1.16006,-11.33732 -1.07554,-12.654057 0.20712,-3.227972 -3.81537,-3.932617 -5.58714,-0.978755 -0.77174,1.286644 -1.16327,6.182589 -0.87007,10.879885 0.29322,4.697312 0.30825,9.075095 0.0332,9.728435 -0.27486,0.653315 0.12409,2.225885 0.88676,3.4946 2.26019,3.760311 -0.67226,3.543825 -4.11196,-0.303579 -1.90688,-2.132898 -2.91345,-4.594952 -2.51516,-6.152092 0.90565,-3.540746 -1.7511,-7.255914 -4.03521,-5.642784 -1.92521,1.359653 -2.52668,6.685178 -0.76747,6.795176 0.63967,0.04001 0.96569,1.390394 0.72451,3.000867 -0.24119,1.61051 0.25798,3.054536 1.10929,3.208919 0.86348,0.156648 0.95862,0.700492 0.21518,1.230129 -0.73296,0.522137 -1.26365,2.285412 -1.17935,3.918372 0.0843,1.632995 0.008,5.699017 -0.16626,9.035677 -0.34604,6.569941 2.75015,19.339891 5.1746,21.342011 4.15055,3.4276 9.44955,4.71974 14.25367,3.47576 z m 27.21915,-28.502203 c 1.31795,-2.912935 -0.63692,-4.633215 -3.40218,-2.993894 -3.96451,2.350306 -5.32617,4.865371 -4.16963,7.701669 0.99891,2.44986 1.2943,2.44447 3.89315,-0.0709 1.54671,-1.497011 3.2021,-3.583607 3.67866,-4.636855 z m 140.60859,49.608973 c 0.0743,-0.96862 -24.02956,-12.55191 -24.38101,-11.71653 -0.0733,0.17416 0.50781,1.74234 1.2913,3.48484 1.12007,2.49105 2.80362,3.65688 7.87732,5.45489 3.54906,1.25773 7.40253,3.2074 8.56334,4.33257 1.53547,1.48843 2.71719,1.70688 4.33711,0.80177 1.22466,-0.68422 2.26499,-1.74512 2.31194,-2.35754 z M 173.71727,77.086487 c 2.68731,-1.095776 3.07023,-2.482875 0.93356,-3.381775 -1.0668,-0.448822 -1.31607,-1.506777 -0.61701,-2.618653 0.64513,-1.026102 1.03493,-2.711389 0.86628,-3.745145 -0.25146,-1.5411 -0.74453,-1.748523 -2.7384,-1.152045 -2.13661,0.639219 -2.18247,0.39432 -0.3778,-2.01805 2.20066,-2.941732 1.35419,-7.279034 -1.66875,-8.550784 -2.3794,-1.00102 -3.64152,3.051346 -2.02687,6.507841 0.76305,1.633438 0.77547,5.372416 0.0278,8.308832 -1.12944,4.434843 -0.93562,5.517321 1.14453,6.392442 1.37734,0.579448 3.3829,0.695221 4.45685,0.257337 z m -4.41779,-4.879519 c 0.11692,-0.277787 0.86188,-0.606763 1.65561,-0.731076 0.79374,-0.124338 1.21351,0.319799 0.93286,0.986903 -0.28066,0.667104 -1.02569,0.996116 -1.65564,0.7311 -0.62989,-0.265016 -1.0497,-0.709129 -0.93283,-0.986927 z M 348.1478,137.0883 c 4.11952,-3.53693 5.37395,-5.56184 8.09387,-13.06502 1.77032,-4.88365 2.91414,-9.62642 2.54183,-10.53953 -0.46027,-1.12879 -1.05301,-0.92611 -1.85181,0.6333 -0.64622,1.26142 -2.04692,2.7473 -3.11278,3.30201 -2.22713,1.15903 -6.46805,-0.60073 -5.73527,-2.37987 0.62757,-1.52378 -3.74248,-6.37483 -5.80336,-6.44207 -1.65811,-0.054 -5.17771,7.92617 -6.12781,13.89411 -0.49741,3.12449 -0.63966,3.20027 -1.61895,0.86248 -0.66702,-1.59233 -0.12232,-5.44766 1.4379,-10.17942 2.32568,-7.05275 2.84167,-7.7632 6.97194,-9.59971 4.00488,-1.78078 5.0094,-1.68761 9.83683,0.91225 5.33199,2.87157 5.38323,2.86805 6.19577,-0.42504 0.45063,-1.82632 0.69706,-4.628988 0.54761,-6.228188 -0.14942,-1.599189 0.32176,-4.318233 1.04711,-6.04237 0.72534,-1.724125 0.86759,-4.585596 0.3161,-6.35885 -1.00217,-3.222313 -1.00179,-3.222289 0.66074,0.05115 2.05281,4.041955 3.3228,3.69701 3.48494,-0.946591 0.20065,-5.746769 -6.69504,-10.626672 -16.85378,-11.92699 -4.10278,-0.525168 -5.23591,0.0024 -8.8445,4.127036 -2.45232,2.802242 -7.51063,6.289571 -12.41354,8.558224 l -8.27471,3.828871 6.03035,3.22865 c 4.9044,2.625829 6.30159,4.070766 7.48323,7.739018 1.48482,4.60947 0.39484,9.56632 -2.19267,9.97155 -2.58774,0.40527 -3.41784,-2.16623 -1.09029,-3.37752 4.86392,-2.53126 -4.46475,-7.302491 -9.92481,-5.07614 -2.99814,1.22252 -4.77517,-0.38436 -3.70688,-3.351911 0.46303,-1.28617 0.68377,-3.569521 0.49063,-5.074106 -0.30174,-2.350498 -0.62301,-2.103272 -2.28178,1.755884 -1.0618,2.470372 -4.04935,7.156153 -6.63892,10.412873 -4.05068,5.09422 -4.76657,6.65281 -5.12529,11.15829 -0.59743,7.50397 1.43282,9.39072 7.33495,6.81656 6.65518,-2.90257 12.06645,-2.60838 19.85351,1.07932 8.41993,3.98745 10.4626,6.89073 9.69408,13.77853 -0.56951,5.10415 -0.42977,5.39688 2.04471,4.28368 1.4608,-0.65717 4.84976,-3.07839 7.53105,-5.38052 z m 5.84537,-60.103066 c -1.52577,-1.660357 -1.99892,-2.698582 -1.05144,-2.307144 0.94745,0.39145 2.70128,1.99034 3.89736,3.553122 2.75024,3.593385 0.82761,2.75164 -2.84592,-1.24599 z M 188.62331,75.201821 c 2.77718,-3.07937 0.43572,-6.45851 -3.39336,-4.897177 -1.39761,0.569876 -1.74651,1.332196 -1.29344,2.82595 0.78315,2.5819 3.24502,3.669864 4.6868,2.071227 z M 324.3235,96.208872 c -0.12623,-0.806656 -0.83423,-1.371981 -1.57312,-1.25628 -2.00167,0.313498 -1.99459,1.125377 0.0172,1.97175 0.98206,0.41315 1.6822,0.0912 1.55587,-0.71547 z m 25.83572,11.318288 c -0.68763,-0.6787 -1.69261,-1.0536 -2.23328,-0.83314 -0.54071,0.22048 0.0218,0.77578 1.25017,1.23399 1.35737,0.50636 1.74293,0.34913 0.98311,-0.40085 z M 315.54567,57.826772 c 8.37573,-3.240678 17.01046,-4.865027 26.41045,-4.968275 7.79602,-0.08562 8.79203,0.186712 14.09568,3.85403 7.49398,5.181847 14.13973,12.906671 19.28319,22.414135 2.29394,4.240268 4.4005,7.620988 4.68124,7.512751 1.30562,-0.503389 -0.72046,-14.344107 -2.92089,-19.953233 -3.01816,-7.693636 -7.85912,-12.970562 -17.27313,-18.828623 -7.80201,-4.854988 -9.82024,-5.425378 -22.46038,-6.347833 -15.09035,-1.101263 -32.39357,8.678304 -32.05244,18.115667 0.12788,3.537791 0.2463,3.640467 2.36772,2.052939 1.22821,-0.919103 4.76906,-2.652312 7.86856,-3.851558 z m 57.89348,317.520908 c 1.89674,-4.64246 3.09141,-4.98242 11.80799,-3.35965 2.62032,0.48783 3.87823,1.19539 3.54277,1.99274 -0.28607,0.68001 -1.58479,0.78842 -2.88606,0.24098 -3.78397,-1.59191 -7.78596,-0.69281 -11.13068,2.50067 l -3.10802,2.96744 1.77405,-4.34215 z m 3.20955,-15.88658 c -0.29051,-1.8548 -0.65579,-1.6914 9.28685,-4.15383 4.39181,-1.08769 8.66513,-1.69152 9.49627,-1.34186 2.26823,0.95424 0.66781,3.4981 -2.35577,3.74442 -1.45745,0.11896 -5.69533,0.90935 -9.41751,1.75691 -4.27788,0.97412 -6.85672,0.97203 -7.00984,-0.005 z m 11.0541,4.88999 c -0.85743,-1.20356 -0.57385,-1.68207 1.34095,-2.26288 2.94301,-0.89267 3.8352,0.60035 1.46388,2.44974 -1.04333,0.81372 -2.14429,0.74037 -2.80483,-0.18686 z m 18.24161,-11.35399 c 0.23891,-4.26061 0.34002,-4.40804 1.34049,-1.95446 0.59515,1.45956 0.47884,3.53327 -0.25841,4.60823 -0.9939,1.44912 -1.27368,0.76294 -1.08208,-2.65377 z"
           style="opacity:0.38837843;fill:#3b3b3b;fill-opacity:1"
           inkscape:connector-curvature="0" />
      </g>
    </g>
  </g>
</svg>
