<?xml version="1.0" encoding="UTF-8" standalone="no"?>
<!-- Created with Inkscape (http://www.inkscape.org/) -->

<svg
   xmlns:dc="http://purl.org/dc/elements/1.1/"
   xmlns:cc="http://creativecommons.org/ns#"
   xmlns:rdf="http://www.w3.org/1999/02/22-rdf-syntax-ns#"
   xmlns:svg="http://www.w3.org/2000/svg"
   xmlns="http://www.w3.org/2000/svg"
   xmlns:xlink="http://www.w3.org/1999/xlink"
   xmlns:sodipodi="http://sodipodi.sourceforge.net/DTD/sodipodi-0.dtd"
   xmlns:inkscape="http://www.inkscape.org/namespaces/inkscape"
   width="15.92"
   height="15.92"
   id="svg8107"
   version="1.1"
   inkscape:version="0.48.2 r9819"
   sodipodi:docname="coins_tiny.svg">
  <defs
     id="defs8109">
    <linearGradient
       inkscape:collect="always"
       xlink:href="#linearGradient13628-9-9"
       id="linearGradient47747"
       gradientUnits="userSpaceOnUse"
       gradientTransform="scale(2.26048,0.442384)"
       spreadMethod="reflect"
       x1="134.78203"
       y1="1251.5984"
       x2="137.12508"
       y2="1251.5985" />
    <linearGradient
       id="linearGradient13628-9-9">
      <stop
         id="stop13629-7-5"
         offset="0"
         style="stop-color:#dbdbdb;stop-opacity:1;" />
      <stop
         id="stop13630-98-7"
         offset="1"
         style="stop-color:#9f9f9f;stop-opacity:1;" />
    </linearGradient>
    <radialGradient
       inkscape:collect="always"
       xlink:href="#linearGradient14418-5-7"
       id="radialGradient47749"
       gradientUnits="userSpaceOnUse"
       gradientTransform="scale(1.81901,0.549749)"
       cx="170.20071"
       cy="1005.7717"
       fx="170.20071"
       fy="1005.7717"
       r="2.6936707" />
    <linearGradient
       id="linearGradient14418-5-7">
      <stop
         id="stop14419-8-9"
         offset="0"
         style="stop-color:#bcbcbc;stop-opacity:1;" />
      <stop
         id="stop14420-5-4"
         offset="1"
         style="stop-color:#ebebeb;stop-opacity:1;" />
    </linearGradient>
    <linearGradient
       inkscape:collect="always"
       xlink:href="#linearGradient13628-9-9"
       id="linearGradient47751"
       gradientUnits="userSpaceOnUse"
       gradientTransform="scale(2.26048,0.442384)"
       spreadMethod="reflect"
       x1="134.78203"
       y1="1251.5984"
       x2="137.12508"
       y2="1251.5985" />
    <linearGradient
       id="linearGradient7984">
      <stop
         id="stop7986"
         offset="0"
         style="stop-color:#dbdbdb;stop-opacity:1;" />
      <stop
         id="stop7988"
         offset="1"
         style="stop-color:#9f9f9f;stop-opacity:1;" />
    </linearGradient>
    <radialGradient
       inkscape:collect="always"
       xlink:href="#linearGradient14418-5-7"
       id="radialGradient47753"
       gradientUnits="userSpaceOnUse"
       gradientTransform="scale(1.81901,0.549749)"
       cx="170.20071"
       cy="1005.7717"
       fx="170.20071"
       fy="1005.7717"
       r="2.6936707" />
    <linearGradient
       id="linearGradient7991">
      <stop
         id="stop7993"
         offset="0"
         style="stop-color:#bcbcbc;stop-opacity:1;" />
      <stop
         id="stop7995"
         offset="1"
         style="stop-color:#ebebeb;stop-opacity:1;" />
    </linearGradient>
    <linearGradient
       inkscape:collect="always"
       xlink:href="#linearGradient13628-9-9"
       id="linearGradient47755"
       gradientUnits="userSpaceOnUse"
       gradientTransform="scale(2.26048,0.442384)"
       spreadMethod="reflect"
       x1="134.78203"
       y1="1251.5984"
       x2="137.12508"
       y2="1251.5985" />
    <linearGradient
       id="linearGradient7998">
      <stop
         id="stop8000"
         offset="0"
         style="stop-color:#dbdbdb;stop-opacity:1;" />
      <stop
         id="stop8002"
         offset="1"
         style="stop-color:#9f9f9f;stop-opacity:1;" />
    </linearGradient>
    <radialGradient
       inkscape:collect="always"
       xlink:href="#linearGradient14418-5-7"
       id="radialGradient47757"
       gradientUnits="userSpaceOnUse"
       gradientTransform="scale(1.81901,0.549749)"
       cx="170.20071"
       cy="1005.7717"
       fx="170.20071"
       fy="1005.7717"
       r="2.6936707" />
    <linearGradient
       id="linearGradient8005">
      <stop
         id="stop8007"
         offset="0"
         style="stop-color:#bcbcbc;stop-opacity:1;" />
      <stop
         id="stop8009"
         offset="1"
         style="stop-color:#ebebeb;stop-opacity:1;" />
    </linearGradient>
    <linearGradient
       inkscape:collect="always"
       xlink:href="#linearGradient13628-9-9"
       id="linearGradient47759"
       gradientUnits="userSpaceOnUse"
       gradientTransform="scale(2.26048,0.442384)"
       spreadMethod="reflect"
       x1="134.78203"
       y1="1251.5984"
       x2="137.12508"
       y2="1251.5985" />
    <linearGradient
       id="linearGradient8012">
      <stop
         id="stop8014"
         offset="0"
         style="stop-color:#dbdbdb;stop-opacity:1;" />
      <stop
         id="stop8016"
         offset="1"
         style="stop-color:#9f9f9f;stop-opacity:1;" />
    </linearGradient>
    <radialGradient
       inkscape:collect="always"
       xlink:href="#linearGradient14418-5-7"
       id="radialGradient47761"
       gradientUnits="userSpaceOnUse"
       gradientTransform="scale(1.81901,0.549749)"
       cx="170.20071"
       cy="1005.7717"
       fx="170.20071"
       fy="1005.7717"
       r="2.6936707" />
    <linearGradient
       id="linearGradient8019">
      <stop
         id="stop8021"
         offset="0"
         style="stop-color:#bcbcbc;stop-opacity:1;" />
      <stop
         id="stop8023"
         offset="1"
         style="stop-color:#ebebeb;stop-opacity:1;" />
    </linearGradient>
    <linearGradient
       inkscape:collect="always"
       xlink:href="#linearGradient13628-9-9"
       id="linearGradient47763"
       gradientUnits="userSpaceOnUse"
       gradientTransform="scale(2.26048,0.442384)"
       spreadMethod="reflect"
       x1="134.78203"
       y1="1251.5984"
       x2="137.12508"
       y2="1251.5985" />
    <linearGradient
       id="linearGradient8026">
      <stop
         id="stop8028"
         offset="0"
         style="stop-color:#dbdbdb;stop-opacity:1;" />
      <stop
         id="stop8030"
         offset="1"
         style="stop-color:#9f9f9f;stop-opacity:1;" />
    </linearGradient>
    <radialGradient
       inkscape:collect="always"
       xlink:href="#linearGradient14418-5-7"
       id="radialGradient47765"
       gradientUnits="userSpaceOnUse"
       gradientTransform="scale(1.81901,0.549749)"
       cx="170.20071"
       cy="1005.7717"
       fx="170.20071"
       fy="1005.7717"
       r="2.6936707" />
    <linearGradient
       id="linearGradient8033">
      <stop
         id="stop8035"
         offset="0"
         style="stop-color:#bcbcbc;stop-opacity:1;" />
      <stop
         id="stop8037"
         offset="1"
         style="stop-color:#ebebeb;stop-opacity:1;" />
    </linearGradient>
    <linearGradient
       inkscape:collect="always"
       xlink:href="#linearGradient13628-9-9"
       id="linearGradient47767"
       gradientUnits="userSpaceOnUse"
       gradientTransform="scale(2.26048,0.442384)"
       spreadMethod="reflect"
       x1="134.78203"
       y1="1251.5984"
       x2="137.12508"
       y2="1251.5985" />
    <linearGradient
       id="linearGradient8040">
      <stop
         id="stop8042"
         offset="0"
         style="stop-color:#dbdbdb;stop-opacity:1;" />
      <stop
         id="stop8044"
         offset="1"
         style="stop-color:#9f9f9f;stop-opacity:1;" />
    </linearGradient>
    <radialGradient
       inkscape:collect="always"
       xlink:href="#linearGradient14418-5-7"
       id="radialGradient47769"
       gradientUnits="userSpaceOnUse"
       gradientTransform="scale(1.81901,0.549749)"
       cx="170.20071"
       cy="1005.7717"
       fx="170.20071"
       fy="1005.7717"
       r="2.6936707" />
    <linearGradient
       id="linearGradient8047">
      <stop
         id="stop8049"
         offset="0"
         style="stop-color:#bcbcbc;stop-opacity:1;" />
      <stop
         id="stop8051"
         offset="1"
         style="stop-color:#ebebeb;stop-opacity:1;" />
    </linearGradient>
    <linearGradient
       inkscape:collect="always"
       xlink:href="#linearGradient13628-9-9"
       id="linearGradient47771"
       gradientUnits="userSpaceOnUse"
       gradientTransform="scale(2.26048,0.442384)"
       spreadMethod="reflect"
       x1="134.78203"
       y1="1251.5984"
       x2="137.12508"
       y2="1251.5985" />
    <linearGradient
       id="linearGradient8054">
      <stop
         id="stop8056"
         offset="0"
         style="stop-color:#dbdbdb;stop-opacity:1;" />
      <stop
         id="stop8058"
         offset="1"
         style="stop-color:#9f9f9f;stop-opacity:1;" />
    </linearGradient>
    <radialGradient
       inkscape:collect="always"
       xlink:href="#linearGradient14418-5-7"
       id="radialGradient47773"
       gradientUnits="userSpaceOnUse"
       gradientTransform="scale(1.81901,0.549749)"
       cx="170.20071"
       cy="1005.7717"
       fx="170.20071"
       fy="1005.7717"
       r="2.6936707" />
    <linearGradient
       id="linearGradient8061">
      <stop
         id="stop8063"
         offset="0"
         style="stop-color:#bcbcbc;stop-opacity:1;" />
      <stop
         id="stop8065"
         offset="1"
         style="stop-color:#ebebeb;stop-opacity:1;" />
    </linearGradient>
    <linearGradient
       inkscape:collect="always"
       xlink:href="#linearGradient13628-9-9"
       id="linearGradient47775"
       gradientUnits="userSpaceOnUse"
       gradientTransform="matrix(-2.2237219,0,0,0.4351903,1029.637,117.20694)"
       spreadMethod="reflect"
       x1="134.78203"
       y1="1251.5984"
       x2="137.12508"
       y2="1251.5985" />
    <linearGradient
       id="linearGradient8068">
      <stop
         id="stop8070"
         offset="0"
         style="stop-color:#dbdbdb;stop-opacity:1;" />
      <stop
         id="stop8072"
         offset="1"
         style="stop-color:#9f9f9f;stop-opacity:1;" />
    </linearGradient>
    <radialGradient
       inkscape:collect="always"
       xlink:href="#linearGradient14418-5-7"
       id="radialGradient47777"
       gradientUnits="userSpaceOnUse"
       gradientTransform="scale(1.81901,0.549749)"
       cx="170.20071"
       cy="1005.7717"
       fx="170.20071"
       fy="1005.7717"
       r="2.6936707" />
    <linearGradient
       id="linearGradient8075">
      <stop
         id="stop8077"
         offset="0"
         style="stop-color:#bcbcbc;stop-opacity:1;" />
      <stop
         id="stop8079"
         offset="1"
         style="stop-color:#ebebeb;stop-opacity:1;" />
    </linearGradient>
    <radialGradient
       r="2.6936707"
       fy="1005.7717"
       fx="170.20071"
       cy="1005.7717"
       cx="170.20071"
       gradientTransform="scale(1.81901,0.549749)"
       gradientUnits="userSpaceOnUse"
       id="radialGradient8105"
       xlink:href="#linearGradient14418-5-7"
       inkscape:collect="always" />
  </defs>
  <sodipodi:namedview
     id="base"
     pagecolor="#ffffff"
     bordercolor="#666666"
     borderopacity="1.0"
     inkscape:pageopacity="0.0"
     inkscape:pageshadow="2"
     inkscape:zoom="31.678384"
     inkscape:cx="3.2134345"
     inkscape:cy="9.4197203"
     inkscape:document-units="px"
     inkscape:current-layer="layer1"
     showgrid="false"
     fit-margin-top="0"
     fit-margin-left="0"
     fit-margin-right="0"
     fit-margin-bottom="0"
     inkscape:window-width="1920"
     inkscape:window-height="1026"
     inkscape:window-x="0"
     inkscape:window-y="26"
     inkscape:window-maximized="1" />
  <metadata
     id="metadata8112">
    <rdf:RDF>
      <cc:Work
         rdf:about="">
        <dc:format>image/svg+xml</dc:format>
        <dc:type
           rdf:resource="http://purl.org/dc/dcmitype/StillImage" />
        <dc:title />
      </cc:Work>
    </rdf:RDF>
  </metadata>
  <g
     inkscape:label="Calque 1"
     inkscape:groupmode="layer"
     id="layer1"
     transform="translate(-249.96376,-432.30654)">
    <g
       style="display:inline;filter:url(#filter59863)"
       id="g47349"
       transform="matrix(0.74233148,0,0,0.74233148,-311.583,-50.974455)">
      <g
         transform="matrix(-0.98373879,0,0,0.98373879,1024.1152,119.67219)"
         id="g47351">
        <path
           style="fill:url(#linearGradient47747);fill-opacity:1;fill-rule:evenodd;stroke:#000000;stroke-width:0.25pt;stroke-linecap:butt;stroke-linejoin:miter;stroke-opacity:1"
           sodipodi:nodetypes="cccc"
           id="path47353"
           d="m 304.82829,552.94494 0.045,1.55203 c 2.24182,1.25212 6.643,1.35709 9.46965,-0.0675 l 0.0225,-1.55203"
           inkscape:connector-curvature="0" />
        <path
           style="fill:url(#radialGradient47749);fill-opacity:1;fill-rule:nonzero;stroke:#000000;stroke-width:0.26249999;stroke-linecap:butt;stroke-linejoin:round;stroke-miterlimit:4;stroke-opacity:1"
           sodipodi:type="arc"
           sodipodi:ry="1.349594"
           sodipodi:rx="4.7685652"
           sodipodi:cy="552.92242"
           sodipodi:cx="309.59686"
           id="path47355"
           d="m 314.36543,552.92242 c 0,0.74536 -2.13496,1.3496 -4.76857,1.3496 -2.6336,0 -4.76856,-0.60424 -4.76856,-1.3496 0,-0.74536 2.13496,-1.34959 4.76856,-1.34959 2.63361,0 4.76857,0.60423 4.76857,1.34959 z" />
      </g>
      <g
         id="g47357"
         transform="matrix(-0.98373879,0,0,0.98373879,1034.4794,120.64067)">
        <path
           inkscape:connector-curvature="0"
           d="m 304.82829,552.94494 0.045,1.55203 c 2.24182,1.25212 6.643,1.35709 9.46965,-0.0675 l 0.0225,-1.55203"
           id="path47359"
           sodipodi:nodetypes="cccc"
           style="fill:url(#linearGradient47751);fill-opacity:1;fill-rule:evenodd;stroke:#000000;stroke-width:0.25pt;stroke-linecap:butt;stroke-linejoin:miter;stroke-opacity:1" />
        <path
           d="m 314.36543,552.92242 c 0,0.74536 -2.13496,1.3496 -4.76857,1.3496 -2.6336,0 -4.76856,-0.60424 -4.76856,-1.3496 0,-0.74536 2.13496,-1.34959 4.76856,-1.34959 2.63361,0 4.76857,0.60423 4.76857,1.34959 z"
           id="path47361"
           sodipodi:cx="309.59686"
           sodipodi:cy="552.92242"
           sodipodi:rx="4.7685652"
           sodipodi:ry="1.349594"
           sodipodi:type="arc"
           style="fill:url(#radialGradient47753);fill-opacity:1;fill-rule:nonzero;stroke:#000000;stroke-width:0.26249999;stroke-linecap:butt;stroke-linejoin:round;stroke-miterlimit:4;stroke-opacity:1" />
      </g>
      <g
         transform="matrix(-0.98373879,0,0,0.98373879,1026.5554,121.96134)"
         id="g47363">
        <path
           style="fill:url(#linearGradient47755);fill-opacity:1;fill-rule:evenodd;stroke:#000000;stroke-width:0.25pt;stroke-linecap:butt;stroke-linejoin:miter;stroke-opacity:1"
           sodipodi:nodetypes="cccc"
           id="path47365"
           d="m 304.82829,552.94494 0.045,1.55203 c 2.24182,1.25212 6.643,1.35709 9.46965,-0.0675 l 0.0225,-1.55203"
           inkscape:connector-curvature="0" />
        <path
           style="fill:url(#radialGradient47757);fill-opacity:1;fill-rule:nonzero;stroke:#000000;stroke-width:0.26249999;stroke-linecap:butt;stroke-linejoin:round;stroke-miterlimit:4;stroke-opacity:1"
           sodipodi:type="arc"
           sodipodi:ry="1.349594"
           sodipodi:rx="4.7685652"
           sodipodi:cy="552.92242"
           sodipodi:cx="309.59686"
           id="path47367"
           d="m 314.36543,552.92242 c 0,0.74536 -2.13496,1.3496 -4.76857,1.3496 -2.6336,0 -4.76856,-0.60424 -4.76856,-1.3496 0,-0.74536 2.13496,-1.34959 4.76856,-1.34959 2.63361,0 4.76857,0.60423 4.76857,1.34959 z" />
      </g>
      <g
         id="g47369"
         transform="matrix(-0.98373879,0,0,0.98373879,1034.3914,119.4961)">
        <path
           inkscape:connector-curvature="0"
           d="m 304.82829,552.94494 0.045,1.55203 c 2.24182,1.25212 6.643,1.35709 9.46965,-0.0675 l 0.0225,-1.55203"
           id="path47371"
           sodipodi:nodetypes="cccc"
           style="fill:url(#linearGradient47759);fill-opacity:1;fill-rule:evenodd;stroke:#000000;stroke-width:0.25pt;stroke-linecap:butt;stroke-linejoin:miter;stroke-opacity:1" />
        <path
           d="m 314.36543,552.92242 c 0,0.74536 -2.13496,1.3496 -4.76857,1.3496 -2.6336,0 -4.76856,-0.60424 -4.76856,-1.3496 0,-0.74536 2.13496,-1.34959 4.76856,-1.34959 2.63361,0 4.76857,0.60423 4.76857,1.34959 z"
           id="path47373"
           sodipodi:cx="309.59686"
           sodipodi:cy="552.92242"
           sodipodi:rx="4.7685652"
           sodipodi:ry="1.349594"
           sodipodi:type="arc"
           style="fill:url(#radialGradient47761);fill-opacity:1;fill-rule:nonzero;stroke:#000000;stroke-width:0.26249999;stroke-linecap:butt;stroke-linejoin:round;stroke-miterlimit:4;stroke-opacity:1" />
      </g>
      <g
         id="g47375"
         transform="matrix(-0.98373879,0,0,0.98373879,1025.1467,119.67219)">
        <path
           inkscape:connector-curvature="0"
           d="m 304.82829,552.94494 0.045,1.55203 c 2.24182,1.25212 6.643,1.35709 9.46965,-0.0675 l 0.0225,-1.55203"
           id="path47377"
           sodipodi:nodetypes="cccc"
           style="fill:url(#linearGradient47763);fill-opacity:1;fill-rule:evenodd;stroke:#000000;stroke-width:0.25pt;stroke-linecap:butt;stroke-linejoin:miter;stroke-opacity:1" />
        <path
           d="m 314.36543,552.92242 c 0,0.74536 -2.13496,1.3496 -4.76857,1.3496 -2.6336,0 -4.76856,-0.60424 -4.76856,-1.3496 0,-0.74536 2.13496,-1.34959 4.76856,-1.34959 2.63361,0 4.76857,0.60423 4.76857,1.34959 z"
           id="path47379"
           sodipodi:cx="309.59686"
           sodipodi:cy="552.92242"
           sodipodi:rx="4.7685652"
           sodipodi:ry="1.349594"
           sodipodi:type="arc"
           style="fill:url(#radialGradient47765);fill-opacity:1;fill-rule:nonzero;stroke:#000000;stroke-width:0.26249999;stroke-linecap:butt;stroke-linejoin:round;stroke-miterlimit:4;stroke-opacity:1" />
      </g>
      <g
         transform="matrix(-0.98373879,0,0,0.98373879,1034.3914,118.35152)"
         id="g47381">
        <path
           style="fill:url(#linearGradient47767);fill-opacity:1;fill-rule:evenodd;stroke:#000000;stroke-width:0.25pt;stroke-linecap:butt;stroke-linejoin:miter;stroke-opacity:1"
           sodipodi:nodetypes="cccc"
           id="path47383"
           d="m 304.82829,552.94494 0.045,1.55203 c 2.24182,1.25212 6.643,1.35709 9.46965,-0.0675 l 0.0225,-1.55203"
           inkscape:connector-curvature="0" />
        <path
           style="fill:url(#radialGradient47769);fill-opacity:1;fill-rule:nonzero;stroke:#000000;stroke-width:0.26249999;stroke-linecap:butt;stroke-linejoin:round;stroke-miterlimit:4;stroke-opacity:1"
           sodipodi:type="arc"
           sodipodi:ry="1.349594"
           sodipodi:rx="4.7685652"
           sodipodi:cy="552.92242"
           sodipodi:cx="309.59686"
           id="path47385"
           d="m 314.36543,552.92242 c 0,0.74536 -2.13496,1.3496 -4.76857,1.3496 -2.6336,0 -4.76856,-0.60424 -4.76856,-1.3496 0,-0.74536 2.13496,-1.34959 4.76856,-1.34959 2.63361,0 4.76857,0.60423 4.76857,1.34959 z" />
      </g>
      <g
         id="g47387"
         transform="matrix(-0.98373879,0,0,0.98373879,1025.0587,118.61565)">
        <path
           inkscape:connector-curvature="0"
           d="m 304.82829,552.94494 0.045,1.55203 c 2.24182,1.25212 6.643,1.35709 9.46965,-0.0675 l 0.0225,-1.55203"
           id="path47389"
           sodipodi:nodetypes="cccc"
           style="fill:url(#linearGradient47771);fill-opacity:1;fill-rule:evenodd;stroke:#000000;stroke-width:0.25pt;stroke-linecap:butt;stroke-linejoin:miter;stroke-opacity:1" />
        <path
           d="m 314.36543,552.92242 c 0,0.74536 -2.13496,1.3496 -4.76857,1.3496 -2.6336,0 -4.76856,-0.60424 -4.76856,-1.3496 0,-0.74536 2.13496,-1.34959 4.76856,-1.34959 2.63361,0 4.76857,0.60423 4.76857,1.34959 z"
           id="path47391"
           sodipodi:cx="309.59686"
           sodipodi:cy="552.92242"
           sodipodi:rx="4.7685652"
           sodipodi:ry="1.349594"
           sodipodi:type="arc"
           style="fill:url(#radialGradient47773);fill-opacity:1;fill-rule:nonzero;stroke:#000000;stroke-width:0.26249999;stroke-linecap:butt;stroke-linejoin:round;stroke-miterlimit:4;stroke-opacity:1" />
      </g>
      <path
         inkscape:connector-curvature="0"
         d="m 729.76559,661.16033 -0.0443,1.52679 c -2.20537,1.23176 -6.53498,1.33502 -9.31566,-0.0664 l -0.0221,-1.5268"
         id="path47393"
         sodipodi:nodetypes="cccc"
         style="fill:url(#linearGradient47775);fill-opacity:1;fill-rule:evenodd;stroke:#000000;stroke-width:0.2459347pt;stroke-linecap:butt;stroke-linejoin:miter;stroke-opacity:1" />
      <path
         d="m 314.36543,552.92242 c 0,0.74536 -2.13496,1.3496 -4.76857,1.3496 -2.6336,0 -4.76856,-0.60424 -4.76856,-1.3496 0,-0.74536 2.13496,-1.34959 4.76856,-1.34959 2.63361,0 4.76857,0.60423 4.76857,1.34959 z"
         id="path47395"
         sodipodi:cx="309.59686"
         sodipodi:cy="552.92242"
         sodipodi:rx="4.7685652"
         sodipodi:ry="1.349594"
         sodipodi:type="arc"
         style="fill:url(#radialGradient8105);fill-opacity:1;fill-rule:nonzero;stroke:#000000;stroke-width:0.26249999;stroke-linecap:butt;stroke-linejoin:round;stroke-miterlimit:4;stroke-opacity:1"
         transform="matrix(-0.98373879,0,0,0.98373879,1029.637,117.20694)" />
    </g>
    <g
       transform="matrix(0.34799592,-0.36453256,0.36453256,0.34799592,-232.18343,333.51617)"
       id="g5098">
      <path
         sodipodi:nodetypes="csssscssssssc"
         inkscape:connector-curvature="0"
         id="path5100"
         d="m 508.00226,840.00027 c -1.27131,2.69781 -6.72059,6.21724 -7.99954,8.77513 -0.32455,0.64911 3.72723,2.09296 4.16512,2.29507 2.17215,1.00252 4.54333,1.57896 6.7577,2.50757 3.55902,1.49249 6.92885,3.36833 10.49779,4.84513 1.51172,0.62554 3.39259,1.25586 4.76014,2.16757 0.0497,0.0331 0.44841,0.51956 0.55251,0.46751 1.0536,-0.5268 3.04531,-3.88979 3.74011,-4.84514 0.61983,-0.85227 1.18443,-1.7417 1.78505,-2.59257 2.84497,-4.03037 3.49429,-2.8343 -1.05322,-4.3975 -1.52245,-0.52334 -2.95751,-1.26751 -4.46263,-1.82756 -3.46185,-1.28813 -7.3992,-4.45175 -10.96531,-5.10014 -2.88531,-0.5246 -5.07755,-1.52359 -7.77772,-2.29507 z"
         style="fill:#949494;fill-opacity:1;stroke:#3b3b3b;stroke-width:0.48084629;stroke-linecap:butt;stroke-linejoin:miter;stroke-miterlimit:4;stroke-opacity:1;stroke-dasharray:none" />
      <text
         transform="matrix(0.89847654,0.43902153,-0.43902153,0.89847654,0,0)"
         sodipodi:linespacing="125%"
         id="text5102"
         y="541.12976"
         x="839.90173"
         style="font-size:14.31857491px;font-style:normal;font-variant:normal;font-weight:bold;font-stretch:normal;line-height:125%;letter-spacing:0px;word-spacing:0px;fill:#3b3b3b;fill-opacity:1;stroke:none;font-family:Purisa;-inkscape-font-specification:Purisa Bold"
         xml:space="preserve"><tspan
           y="541.12976"
           x="839.90173"
           id="tspan5104"
           sodipodi:role="line">€</tspan></text>
      <g
         inkscape:transform-center-y="0.21064975"
         inkscape:transform-center-x="-1.3785607"
         transform="matrix(0.03847814,-4.4928447e-4,4.4928447e-4,0.03847814,502.02582,840.40192)"
         id="g5106">
        <path
           id="path5108"
           d="m 103.64863,295.44696 c 1.47981,-5.58574 5.34122,-15.43866 9.55917,-24.39146 1.09506,-2.32434 7.15068,-17.15543 13.45689,-32.95796 8.11253,-20.32888 11.19455,-28.98592 10.53819,-29.60052 -0.51023,-0.47776 -2.36646,-1.05959 -4.12498,-1.29296 -5.40171,-0.71688 -17.67048,-10.15506 -16.57758,-12.75286 0.22205,-0.52782 -0.05,-2.71745 -0.60458,-4.86587 -0.55459,-2.14841 -1.20023,-8.53416 -1.43477,-14.19054 -0.39634,-9.55791 -0.14912,-11.08319 3.50034,-21.59538 4.04774,-11.65935 4.38801,-15.01505 2.68344,-26.46265 -0.39326,-2.64104 -0.37422,-6.41372 0.0424,-8.38372 0.74465,-3.52197 -0.0817,-9.6765 -1.68696,-12.56301 -0.54409,-0.97839 -0.11542,-2.58299 1.28346,-4.80507 1.8738,-2.976279 2.40442,-3.208198 4.91951,-2.150103 l 2.81918,1.186023 1.87907,-6.2617 1.87907,-6.261697 4.74771,-0.08212 c 5.31066,-0.09183 10.37443,2.443079 12.05132,6.032829 0.5609,1.200749 0.71625,5.085523 0.3452,8.632823 -0.84522,8.08042 0.76673,9.13193 3.5652,2.3257 1.87481,-4.55983 2.29442,-4.97757 4.43365,-4.41415 3.12325,0.82259 4.53109,4.09671 4.33131,10.07322 -0.0922,2.75974 0.53449,5.48166 1.43974,6.25278 0.8817,0.75105 1.28729,2.11621 0.90131,3.03367 -0.38597,0.91745 -0.58591,3.9007 -0.44429,6.62942 0.2149,4.14101 -0.26113,5.8827 -2.87912,10.53411 -1.77265,3.14946 -4.42927,6.37655 -6.1093,7.42118 -6.59757,4.10235 -8.62929,9.22069 -5.99011,15.09034 2.60994,5.80459 4.48855,5.77145 28.78158,-0.50749 5.29215,-1.36784 10.45231,-2.43601 11.46701,-2.3737 1.0147,0.0624 3.33589,-0.42171 5.15824,-1.07562 1.82234,-0.65389 5.43068,-0.8054 8.01852,-0.33666 2.58784,0.46873 5.43954,0.31027 6.33713,-0.35217 0.89759,-0.66245 3.21904,-2.26868 5.15878,-3.56943 1.93976,-1.30077 3.82947,-3.08442 4.19938,-3.96369 0.36991,-0.87927 2.16338,-3.15771 3.98549,-5.06319 2.80151,-2.92972 3.36348,-4.09974 3.64053,-7.57962 0.2467,-3.09858 0.97687,-4.9362 2.95587,-7.43905 4.72646,-5.97762 5.29257,-8.7929 3.37171,-16.76779 -2.77582,-11.524589 -2.82709,-11.168575 3.84542,-26.708716 l 6.10909,-14.227949 6.43614,-3.888967 c 8.40068,-5.076047 14.55378,-7.333529 23.70826,-8.698232 11.4494,-1.706821 19.74944,-0.587795 33.31463,4.491524 13.54475,5.071668 19.39719,9.002244 28.17015,18.919361 3.02136,3.415423 5.75044,6.317996 6.06461,6.450165 1.70689,0.718089 10.67885,24.640974 10.4271,27.802914 -0.41704,5.23803 -7.80249,21.66878 -11.64218,25.90086 -4.65798,5.13399 -10.35682,8.42215 -17.37952,10.02772 -5.99892,1.37152 -6.2224,1.5398 -7.16433,5.3945 -0.53474,2.18837 -2.23215,5.74856 -3.77205,7.91154 -2.39624,3.36585 -2.75032,4.6043 -2.45661,8.59209 0.18874,2.56267 -0.0615,4.94778 -0.55641,5.30024 -0.49476,0.35246 -0.27678,2.57887 0.48438,4.94756 1.49496,4.65216 3.2757,18.05636 4.24514,31.95422 0.33356,4.78207 1.4228,11.42974 2.42055,14.77261 2.02969,6.80051 2.54684,14.69045 1.1814,18.02481 -0.49716,1.21409 -0.78716,3.68231 -0.64441,5.48495 0.14275,1.80264 0.0223,4.38531 -0.26747,5.73925 -0.89736,4.19149 -0.73636,8.22895 0.3711,9.30698 0.5825,0.567 1.24573,4.19817 1.47384,8.06924 0.22814,3.8711 0.67794,7.15736 0.99959,7.30289 0.32167,0.14545 -0.78732,2.94309 -2.46436,6.21691 -2.79749,5.46101 -2.93168,6.24056 -1.62566,9.4435 0.78295,1.92011 2.27815,3.85065 3.32267,4.29008 1.04453,0.43944 1.98404,1.34106 2.0878,2.00362 0.32969,2.10509 -1.57302,0.61561 -15.44946,-12.09416 -8.78326,-8.04482 -14.03481,-12.23861 -14.88917,-11.89023 -0.72597,0.296 -2.20401,0.17225 -3.2846,-0.27502 -1.08078,-0.4468 -14.0972,1.5456 -28.9258,4.42859 l -26.96113,5.24179 -1.90577,3.73596 c -4.00693,7.85487 -2.4781,10.36901 28.09344,46.19959 16.19539,18.98138 17.07971,19.61958 23.53692,16.98661 2.679,-1.09237 3.94304,-1.02347 5.68049,0.30964 3.73722,2.86749 9.08973,5.34933 10.05446,4.66204 0.501,-0.3569 2.1548,-0.12559 3.67513,0.51401 1.52033,0.63961 3.39723,0.66924 4.17092,0.0659 1.622,-1.26502 10.18328,-2.11358 9.69852,-0.96129 -1.26763,3.01313 -15.54381,3.56685 -21.99438,0.85309 -4.12031,-1.73343 -8.76473,0.6374 -11.97314,6.1119 l -2.69393,4.59666 -86.3311,-36.3196 -86.33114,-36.31959 1.54225,-5.82146 z m 111.02877,-7.28933 c 6.18973,-3.5718 7.37411,-5.7224 6.7562,-12.26802 l -0.53591,-5.67674 4.3741,-0.32216 c 7.62917,-0.56193 8.28287,-1.44371 5.72344,-7.72058 -2.26671,-5.55898 -2.25772,-7.54967 0.0388,-8.55477 0.68494,-0.29981 1.8507,-1.30315 2.5906,-2.22967 0.73989,-0.92654 0.4938,-0.14763 -0.54687,1.73086 -1.2074,2.17951 -1.60432,4.12124 -1.09681,5.36585 0.43739,1.07271 0.65826,2.27604 0.49079,2.6741 -0.48029,1.14168 1.87989,6.85291 3.02466,7.3191 0.56844,0.23127 2.63013,-0.66638 4.58164,-1.99516 3.73214,-2.54115 7.76718,-10.04281 6.41949,-11.9346 -0.39188,-0.55007 -0.83885,-2.59571 -0.99329,-4.54586 -0.26901,-3.39695 -0.13691,-3.60979 3.14931,-5.07401 4.9667,-2.21299 7.54307,-6.40357 7.27979,-11.84092 -0.11843,-2.44695 -0.53601,-4.58972 -0.92784,-4.76165 -1.32107,-0.57973 0.36573,-2.91185 3.27041,-4.5216 1.58656,-0.87926 3.75518,-3.32588 4.81915,-5.43691 1.91703,-3.80358 1.96848,-3.82396 5.69769,-2.25673 4.65075,1.95454 9.43596,0.47862 11.07429,-3.41569 0.6251,-1.48585 0.70631,-2.88253 0.18048,-3.10374 -0.52584,-0.22122 -1.13528,0.0238 -1.35433,0.54449 -0.21906,0.52068 -0.92461,-0.10369 -1.56791,-1.38773 -0.64328,-1.28393 -0.70138,-2.82253 -0.12909,-3.4191 0.77135,-0.80408 0.017,-1.51528 -2.91599,-2.74918 -2.62417,-1.10399 -4.34262,-1.26203 -5.10311,-0.46928 -0.63063,0.65739 -3.14488,0.95422 -5.58722,0.65965 -2.44234,-0.29458 -5.14247,-0.35652 -6.0003,-0.13763 -0.85782,0.21888 -2.1191,-0.13866 -2.80281,-0.79457 -1.55245,-1.48925 -2.10231,-0.83572 -6.73172,8.00118 -2.1116,4.03075 -4.03365,6.74818 -4.40468,6.22737 -0.36203,-0.5082 -0.31568,-1.16806 0.10305,-1.46634 0.41872,-0.29828 0.95102,-1.93825 1.18291,-3.64434 0.37515,-2.76012 0.0915,-2.52022 -2.57345,2.17629 -1.73337,3.0548 -2.88445,6.12574 -2.73247,7.28996 0.24402,1.86938 0.31441,1.89417 0.99554,0.35075 0.4031,-0.91349 1.15395,-1.48375 1.66851,-1.26727 0.53483,0.225 -0.35378,3.30669 -2.07453,7.19445 -2.97403,6.71936 -3.02007,6.76651 -3.84171,3.93518 l -0.8316,-2.86569 -1.6117,2.14613 c -2.00419,2.66878 -1.83183,5.16803 0.29658,4.30015 2.47159,-1.00779 2.75615,-0.23183 0.98744,2.69258 -1.07125,1.77117 -1.33654,3.30369 -0.72624,4.19556 0.7662,1.11971 0.64782,1.46083 -0.58292,1.67954 -0.84944,0.15094 -1.81679,1.13648 -2.1497,2.1901 -1.40298,4.44042 -2.7464,6.07706 -4.35953,5.31111 -0.98051,-0.46561 -1.07851,-0.77106 -0.24341,-0.7588 2.40109,0.0353 2.88759,-2.87454 0.53697,-3.21167 -1.70183,-0.24406 -1.9527,-0.95619 -1.33849,-3.79919 0.41576,-1.92435 1.33233,-4.09968 2.03703,-4.83398 0.70452,-0.73439 4.31448,-8.71393 8.02215,-17.73232 3.70763,-9.01842 7.13324,-17.32964 7.61237,-18.46943 0.66881,-1.591 -0.23137,-3.34187 -3.87558,-7.53811 -2.61089,-3.00624 -5.06948,-5.60154 -5.46372,-5.7674 -1.40592,-0.59147 0.51045,3.65115 3.23056,7.15206 1.52159,1.95839 2.62822,4.57143 2.45918,5.8068 -0.40322,2.94687 -4.58194,12.49246 -7.94998,18.1604 l -2.67468,4.50111 -0.35418,-3.73329 c -0.33548,-3.53633 -0.17211,-3.91286 3.09635,-7.13688 4.68316,-4.61952 5.91547,-8.54489 4.4542,-14.18808 l -1.22944,-4.74791 -2.80646,1.4743 c -1.9787,1.03948 -2.78007,1.0473 -2.71691,0.0265 0.0637,-1.02942 -0.56502,-1.03604 -2.1754,-0.023 -1.78448,1.12265 -2.1445,1.82205 -1.69715,3.2969 0.31229,1.02959 -0.15506,2.95838 -1.03854,4.28619 -0.95324,1.43265 -1.51208,4.23054 -1.37451,6.88161 0.24124,4.64817 -0.87893,6.38853 -4.89624,7.60706 -2.8251,0.85692 -4.97036,6.61028 -3.90699,10.4782 1.12915,4.10717 0.77445,4.87075 -3.6253,7.80414 -4.3852,2.9237 -6.43858,6.7326 -6.22274,11.5429 0.19199,4.27847 3.01279,9.07078 4.65184,7.90313 0.63366,-0.45143 1.16277,0.72235 1.27394,2.82617 0.10453,1.97906 1.09647,4.81809 2.2042,6.30895 l 2.01404,2.71068 -2.95037,1.82432 c -1.88321,1.16446 -3.61405,3.40187 -4.7852,6.18569 -1.55687,3.70063 -1.54345,5.17165 0.0885,9.70966 1.05789,2.94157 2.16282,5.43055 2.45545,5.53111 0.29259,0.10074 2.39206,-0.89052 4.66543,-2.20238 z m 0.57712,-16.41936 c 0.61052,-0.63642 1.39504,-0.75707 1.74338,-0.26812 0.87735,1.23153 0.62089,1.53582 -1.24437,1.47645 -1.07333,-0.0341 -1.23947,-0.43648 -0.49901,-1.20833 z m 10.75312,-9.48831 c -1.68022,-4.48714 -0.71481,-4.78623 1.52004,-0.47089 0.7988,1.54242 1.12146,3.1817 0.71701,3.64286 -0.40443,0.46116 -1.41112,-0.96623 -2.23705,-3.17197 z m -10.51433,-10.55647 c 1.40411,-0.94529 2.94347,-2.64697 3.42077,-3.78154 0.73933,-1.7574 1.01103,-1.78761 1.83518,-0.20402 0.53202,1.02233 1.05546,2.95025 1.16318,4.28426 0.10779,1.33402 -0.014,1.9563 -0.27056,1.38287 -0.25653,-0.57347 -1.39106,-0.74793 -2.52117,-0.38777 -1.13008,0.3602 -2.98299,0.60314 -4.11753,0.53991 -1.95545,-0.10895 -1.92993,-0.20444 0.49013,-1.83371 z m 24.30896,-0.9906 c 0.66985,-0.69824 1.63796,-1.09284 2.15134,-0.87687 1.25663,0.52869 -0.44439,2.37053 -2.07398,2.24567 -0.7966,-0.0609 -0.82637,-0.588 -0.0773,-1.3688 z m -20.10657,-11.91726 -0.75133,-4.08211 4.41157,-2.4162 4.4116,-2.4162 -3.32163,6.36022 c -1.82691,3.49813 -3.47401,6.42235 -3.66025,6.4983 -0.18625,0.076 -0.67672,-1.69887 -1.08996,-3.94401 z m 17.60321,3.88957 c 2.57541,-6.46002 3.4948,-6.79783 3.46427,-1.27284 -0.0206,3.70975 -2.32938,7.52006 -4.50679,7.4375 -1.02104,-0.0388 -0.7421,-1.68821 1.04252,-6.16466 z m 6.49026,-0.39608 c 0.0868,-0.20664 0.93355,-0.35104 1.88134,-0.32088 0.98817,0.0315 1.30452,0.35317 0.74156,0.75421 -0.94364,0.67226 -2.94866,0.34101 -2.6229,-0.43333 z m 5.63777,-11.62512 c 0.47134,-0.62594 0.93267,-1.31801 1.0252,-1.53792 0.0925,-0.21991 0.59845,-0.21885 1.12427,0.002 0.52584,0.2212 0.67388,1.07295 0.32901,1.89271 -0.34489,0.81979 -0.91825,1.08178 -1.27412,0.58225 -0.35585,-0.49955 -0.96526,-0.65923 -1.35419,-0.35482 -0.38895,0.30441 -0.32153,0.0413 0.14983,-0.58463 z m -26.67925,-11.74312 c 0.7557,-0.79185 1.51351,-1.09755 1.68403,-0.67936 0.17054,0.4182 -0.44777,1.06607 -1.37398,1.43971 -1.33851,0.53996 -1.40212,0.38394 -0.31005,-0.76035 z m 22.96084,5.00096 c 1.84736,-3.72434 2.78994,-4.79251 3.56933,-4.04483 1.57153,1.50757 0.58923,5.75072 -1.85274,8.00315 -3.65837,3.37445 -4.44925,1.55079 -1.71659,-3.95832 z m -17.98176,-20.80907 c 0.33659,-1.14303 4.42147,-4.66311 5.0866,-4.38331 0.85287,0.35881 2.00552,3.3628 1.63144,4.2519 -0.17001,0.40417 -0.85029,0.21571 -1.51171,-0.4188 -0.66141,-0.63448 -1.41361,-0.65196 -1.67155,-0.0389 -0.25795,0.61312 -0.76016,0.70605 -1.11604,0.20651 -0.35587,-0.49955 -1.09232,-0.45948 -1.63651,0.0891 -0.54423,0.54853 -0.89623,0.68061 -0.78223,0.2935 z m 27.69017,8.90355 c 0.19722,-0.44742 1.03889,-1.28684 1.86949,-1.86574 1.32078,-0.92059 1.63175,-0.75446 2.47982,1.32457 0.5333,1.30743 0.48242,2.17219 -0.11312,1.92166 -0.5955,-0.25054 -1.87313,-0.48068 -2.83914,-0.51141 -0.96604,-0.0308 -1.59474,-0.42184 -1.3971,-0.86908 z m -2.97678,-3.62326 c 0.17355,-0.39116 1.00485,-1.18077 1.84641,-1.75505 1.23729,-0.84439 1.35972,-0.63139 0.63975,1.11309 -0.49008,1.18633 -1.32057,1.97628 -1.84639,1.75506 -0.52585,-0.22122 -0.81373,-0.7221 -0.63977,-1.1131 z m 9.16941,-0.2837 c -0.44772,-1.47603 -0.0727,-1.89033 1.87605,-2.07244 1.93231,-0.18057 2.42471,0.11542 2.38279,1.43272 -0.1086,3.41411 -3.27315,3.88942 -4.25884,0.63972 z m 6.08916,3.4259 c 0.76884,0.0116 1.84441,0.46379 2.39013,1.00553 0.5457,0.54173 -0.0833,0.5325 -1.39795,-0.0204 -1.31457,-0.55305 -1.76106,-0.99631 -0.99218,-0.985 z m -127.67682,-16.1462 c 4.21543,-0.0413 4.24954,-0.0709 6.62712,-5.72227 3.22307,-7.66118 2.90497,-16.13996 -0.98075,-26.14116 -1.07078,-2.75608 -1.37313,-6.3577 -0.81763,-9.74018 0.48481,-2.95185 0.34463,-5.88201 -0.31148,-6.51141 -0.65611,-0.62942 -3.48353,-1.0205 -6.28314,-0.8691 -2.79962,0.15141 -6.56936,-0.34697 -8.37721,-1.10754 -4.68266,-1.97 -6.54523,-0.0997 -10.18719,10.22958 -4.44043,12.59393 -3.51339,28.48627 1.94853,33.40377 3.36859,3.03286 13.26122,6.50857 18.38175,6.45831 z m 172.30741,67.47983 c -0.18404,-0.45133 -0.64756,0.0182 -1.03005,1.04358 -0.42266,1.13306 -0.29143,1.45489 0.3346,0.82062 0.56652,-0.57397 0.87948,-1.41285 0.69549,-1.86418 z m -62.92023,-59.53563 c -0.16574,-1.05837 -2.76726,-2.59654 -3.09081,-1.82747 -0.0925,0.21992 -0.19377,1.20298 -0.22504,2.18459 -0.0437,1.37417 0.3504,1.66126 1.71317,1.24789 0.97349,-0.29527 1.69469,-1.01753 1.60268,-1.60501 z m 9.30263,-6.36759 c 3.82716,-2.25801 7.16315,-4.57108 7.41326,-5.14012 0.53663,-1.22069 -2.7283,-4.98554 -5.23976,-6.04212 -0.9668,-0.40675 -3.23147,-0.62085 -5.03259,-0.4758 -1.80677,0.14548 -3.57809,-0.27749 -3.95143,-0.9436 -1.03265,-1.84252 -7.23728,-5.38576 -8.21338,-4.69037 -0.97134,0.69198 -1.34685,9.43737 -0.50488,11.75874 0.30156,0.83141 0.91478,2.7351 1.3627,4.23041 0.53257,1.77779 1.92078,3.18417 4.01103,4.06354 2.80966,1.18203 4.03882,0.84788 10.15505,-2.76068 z M 139.50186,144.21252 c 2.32476,-0.602 5.69221,-1.00241 7.48321,-0.88979 3.95946,0.24896 9.06916,-3.25606 10.53278,-7.22504 0.87614,-2.37583 0.59422,-3.31753 -1.50735,-5.03501 -3.80527,-3.10985 -4.24768,-10.45936 -0.90765,-15.07893 1.3628,-1.88489 2.36737,-3.69792 2.23238,-4.02897 -0.61269,-1.50262 -4.77757,-2.93636 -5.7091,-1.96532 -0.57017,0.59436 -2.73166,1.12512 -4.80333,1.17949 -7.99872,0.20989 -7.95524,0.25309 -9.06492,-9.00954 -0.56434,-4.710442 -0.96835,-9.463738 -0.8978,-10.562874 0.17289,-2.694524 -3.18485,-3.282721 -4.66382,-0.817008 -0.64421,1.074016 -0.97103,5.160867 -0.72629,9.081898 0.24477,3.921044 0.25731,7.575364 0.0277,8.120734 -0.22944,0.54535 0.10358,1.85804 0.74022,2.91709 1.88667,3.13889 -0.56117,2.95818 -3.43243,-0.25341 -1.59175,-1.78042 -2.43198,-3.8356 -2.09951,-5.13541 0.75598,-2.95561 -1.46172,-6.056817 -3.36836,-4.71027 -1.60705,1.13496 -2.10913,5.5804 -0.64064,5.67222 0.53396,0.0334 0.8061,1.16062 0.60478,2.50495 -0.20133,1.34436 0.21535,2.54975 0.92597,2.67862 0.72078,0.13076 0.8002,0.58473 0.17962,1.02684 -0.61183,0.43585 -1.05482,1.90773 -0.98445,3.27083 0.0704,1.36313 0.007,4.75721 -0.13879,7.54246 -0.28885,5.48421 2.29567,16.14382 4.31946,17.81508 3.46464,2.86116 7.88794,3.93976 11.89814,2.90136 z m 22.72097,-23.79199 c 1.10015,-2.43155 -0.53166,-3.86754 -2.83994,-2.49913 -3.30934,1.9619 -4.44598,4.06133 -3.48057,6.42891 0.83384,2.045 1.08041,2.0405 3.24978,-0.0592 1.2911,-1.24962 2.67293,-2.99139 3.07073,-3.87058 z m 117.37191,41.4107 c 0.062,-0.80855 -20.05848,-10.47761 -20.35185,-9.78028 -0.0612,0.14538 0.42389,1.4544 1.0779,2.90894 0.93497,2.07939 2.3403,3.05255 6.57553,4.55343 2.96255,1.04988 6.1792,2.67735 7.14818,3.61658 1.28172,1.24245 2.26815,1.4248 3.62037,0.66927 1.02227,-0.57115 1.89068,-1.45673 1.92987,-1.96794 z M 145.92436,107.92727 c 2.24321,-0.91469 2.56285,-2.07256 0.77928,-2.82291 -0.8905,-0.37465 -1.09858,-1.25777 -0.51504,-2.1859 0.53851,-0.85653 0.8639,-2.26331 0.72312,-3.12623 -0.20991,-1.286421 -0.62149,-1.459566 -2.28586,-0.96166 -1.78352,0.533583 -1.8218,0.329155 -0.31537,-1.684552 1.83699,-2.455587 1.1304,-6.076116 -1.39297,-7.137699 -1.98619,-0.835594 -3.03973,2.547087 -1.69192,5.432369 0.63695,1.363499 0.64732,4.484582 0.0232,6.935732 -0.94279,3.70195 -0.781,4.60554 0.95539,5.33604 1.14972,0.48369 2.82385,0.58033 3.72032,0.21481 z m -3.68772,-4.07314 c 0.0976,-0.23188 0.71945,-0.50649 1.38201,-0.61026 0.66257,-0.10379 1.01297,0.26695 0.7787,0.82381 -0.23428,0.55686 -0.85619,0.8315 -1.38203,0.61028 -0.5258,-0.22122 -0.87623,-0.59194 -0.77868,-0.82383 z m 149.29223,54.15918 c 3.43873,-2.95242 4.48586,-4.6427 6.75629,-10.90592 1.47776,-4.07659 2.43256,-8.03558 2.12177,-8.79779 -0.3842,-0.94225 -0.87899,-0.77306 -1.54578,0.52864 -0.53943,1.05296 -1.70865,2.29329 -2.59837,2.75633 -1.85908,0.96749 -5.39915,-0.50146 -4.78747,-1.98658 0.52386,-1.27196 -3.12401,-5.32134 -4.84431,-5.37747 -1.38409,-0.0451 -4.32205,6.61631 -5.11514,11.598 -0.41521,2.60815 -0.53395,2.6714 -1.35141,0.71995 -0.55679,-1.32918 -0.1021,-4.54739 1.20028,-8.49719 1.94134,-5.88723 2.37206,-6.48027 5.81977,-8.01328 3.34304,-1.48649 4.18156,-1.40872 8.21122,0.76149 4.45083,2.39702 4.49361,2.39408 5.17187,-0.3548 0.37616,-1.5245 0.58186,-3.86401 0.45711,-5.19893 -0.12473,-1.33491 0.26859,-3.60461 0.87407,-5.04382 0.60547,-1.4392 0.72421,-3.82779 0.26386,-5.308 -0.83655,-2.6898 -0.83624,-2.68978 0.55155,0.0427 1.71356,3.37399 2.77368,3.08605 2.90902,-0.79016 0.16749,-4.79707 -5.58863,-8.87053 -14.06856,-9.95596 -3.42476,-0.43838 -4.37063,0.002 -7.38287,3.44501 -2.04706,2.33915 -6.26944,5.25017 -10.36211,7.14391 l -6.90725,3.19612 5.03379,2.69509 c 4.09391,2.19189 5.2602,3.39804 6.24657,6.46008 1.23944,3.84772 0.32959,7.98541 -1.83032,8.32368 -2.16009,0.33829 -2.85301,-1.80825 -0.91011,-2.81936 4.06012,-2.11295 -3.72691,-6.0957 -8.28465,-4.23727 -2.50268,1.02049 -3.98604,-0.32084 -3.09429,-2.79798 0.38651,-1.07362 0.57077,-2.97963 0.40955,-4.23557 -0.25188,-1.96206 -0.52006,-1.75569 -1.9047,1.46571 -0.88633,2.06212 -3.38016,5.97354 -5.54179,8.69206 -3.38127,4.25236 -3.97885,5.55338 -4.27829,9.3143 -0.4987,6.26388 1.19603,7.83883 6.12279,5.69007 5.55536,-2.4229 10.07237,-2.17733 16.57256,0.90095 7.02847,3.32849 8.73357,5.75198 8.09206,11.50152 -0.4754,4.26065 -0.35875,4.505 1.7068,3.57577 1.21939,-0.54857 4.0483,-2.56966 6.28649,-4.49135 z m 4.87937,-50.17056 c -1.27362,-1.38597 -1.66858,-2.25262 -0.87768,-1.92587 0.79088,0.32676 2.25487,1.66142 3.25329,2.96594 2.29574,2.99955 0.69084,2.29691 -2.37561,-1.04008 z m -138.04118,-1.48869 c 2.31823,-2.57048 0.36371,-5.39119 -2.83258,-4.08788 -1.16665,0.4757 -1.45789,1.11204 -1.07969,2.35894 0.65373,2.15522 2.70875,3.06339 3.91227,1.72894 z m 113.27466,17.53547 c -0.10537,-0.67335 -0.69637,-1.14525 -1.31315,-1.04867 -1.67088,0.26169 -1.66497,0.9394 0.0144,1.6459 0.81977,0.34488 1.4042,0.0761 1.29875,-0.59723 z m 21.56616,9.44785 c -0.57399,-0.56654 -1.41289,-0.87948 -1.86421,-0.69545 -0.45135,0.18404 0.0182,0.64757 1.04357,1.03006 1.13305,0.42268 1.4549,0.29143 0.82064,-0.33461 z M 264.3145,91.850375 c 6.99157,-2.70513 14.19934,-4.061043 22.04591,-4.147228 6.50767,-0.07147 7.33908,0.155856 11.76626,3.217121 6.25554,4.325506 11.80303,10.773742 16.09649,18.710022 1.91485,3.53953 3.67328,6.36156 3.90763,6.27121 1.08985,-0.4202 -0.6014,-11.97363 -2.43819,-16.655804 -2.51939,-6.422202 -6.56034,-10.827074 -14.41861,-15.717044 -6.51267,-4.052663 -8.19737,-4.528792 -18.74863,-5.298804 -12.59655,-0.91927 -27.04027,7.244146 -26.75552,15.12191 0.10675,2.953143 0.2056,3.038851 1.97644,1.713675 1.02524,-0.767214 3.98093,-2.213997 6.56822,-3.215058 z m 48.32612,265.048075 c 1.58329,-3.87526 2.58053,-4.15904 9.85663,-2.80444 2.18729,0.40721 3.23732,0.99784 2.9573,1.66342 -0.2388,0.56763 -1.32289,0.65813 -2.40912,0.20116 -3.15864,-1.32884 -6.49927,-0.57832 -9.29125,2.08741 l -2.59439,2.47705 1.48087,-3.62458 z m 2.67915,-13.2612 c -0.2425,-1.54828 -0.54742,-1.41188 7.75212,-3.46738 3.66603,-0.90794 7.23315,-1.41198 7.92694,-1.1201 1.89339,0.79654 0.55745,2.92001 -1.96646,3.12562 -1.2166,0.0993 -4.75413,0.75907 -7.86119,1.46657 -3.57093,0.81314 -5.7236,0.81139 -5.85141,-0.004 z m 9.22732,4.08188 c -0.71573,-1.00466 -0.47902,-1.40409 1.11935,-1.88892 2.45665,-0.74515 3.2014,0.50114 1.22196,2.0449 -0.87091,0.67925 -1.78993,0.61802 -2.34131,-0.15598 z m 15.22704,-9.47765 c 0.19943,-3.55651 0.28383,-3.67958 1.11896,-1.63147 0.4968,1.21835 0.39971,2.94937 -0.2157,3.84668 -0.82965,1.20964 -1.0632,0.63686 -0.90326,-2.21521 z"
           style="opacity:0.38837843;fill:#3b3b3b;fill-opacity:1"
           inkscape:connector-curvature="0" />
      </g>
    </g>
  </g>
</svg>
