<?xml version="1.0" encoding="UTF-8" standalone="no"?>
<!-- Created with Inkscape (http://www.inkscape.org/) -->

<svg
   xmlns:dc="http://purl.org/dc/elements/1.1/"
   xmlns:cc="http://creativecommons.org/ns#"
   xmlns:rdf="http://www.w3.org/1999/02/22-rdf-syntax-ns#"
   xmlns:svg="http://www.w3.org/2000/svg"
   xmlns="http://www.w3.org/2000/svg"
   xmlns:xlink="http://www.w3.org/1999/xlink"
   xmlns:sodipodi="http://sodipodi.sourceforge.net/DTD/sodipodi-0.dtd"
   xmlns:inkscape="http://www.inkscape.org/namespaces/inkscape"
   width="22.927868"
   height="22.927868"
   id="svg9161"
   version="1.1"
   inkscape:version="0.48.2 r9819"
   sodipodi:docname="Nouveau document 31">
  <defs
     id="defs9163">
    <filter
       color-interpolation-filters="sRGB"
       inkscape:collect="always"
       id="filter49004-4">
      <feGaussianBlur
         inkscape:collect="always"
         stdDeviation="1.7467425"
         id="feGaussianBlur49006-8" />
    </filter>
    <radialGradient
       inkscape:collect="always"
       xlink:href="#linearGradient48928-2"
       id="radialGradient49001-9"
       gradientUnits="userSpaceOnUse"
       gradientTransform="matrix(0.34456954,0,0,0.34456954,203.44897,442.54065)"
       cx="350.48438"
       cy="259.51562"
       fx="350.48438"
       fy="259.51562"
       r="29.078125" />
    <linearGradient
       id="linearGradient48928-2">
      <stop
         style="stop-color:#e9e9e9;stop-opacity:1;"
         offset="0"
         id="stop48930-3" />
      <stop
         style="stop-color:#a8a8a8;stop-opacity:1;"
         offset="1"
         id="stop48932-5" />
    </linearGradient>
    <radialGradient
       r="29.078125"
       fy="259.51562"
       fx="350.48438"
       cy="259.51562"
       cx="350.48438"
       gradientTransform="matrix(0.34456954,0,0,0.34456954,203.44897,442.54065)"
       gradientUnits="userSpaceOnUse"
       id="radialGradient9159"
       xlink:href="#linearGradient48928-2"
       inkscape:collect="always" />
  </defs>
  <sodipodi:namedview
     id="base"
     pagecolor="#ffffff"
     bordercolor="#666666"
     borderopacity="1.0"
     inkscape:pageopacity="0.0"
     inkscape:pageshadow="2"
     inkscape:zoom="0.35"
     inkscape:cx="11.463934"
     inkscape:cy="11.463934"
     inkscape:document-units="px"
     inkscape:current-layer="layer1"
     showgrid="false"
     fit-margin-top="0"
     fit-margin-left="0"
     fit-margin-right="0"
     fit-margin-bottom="0"
     inkscape:window-width="634"
     inkscape:window-height="420"
     inkscape:window-x="0"
     inkscape:window-y="54"
     inkscape:window-maximized="0" />
  <metadata
     id="metadata9166">
    <rdf:RDF>
      <cc:Work
         rdf:about="">
        <dc:format>image/svg+xml</dc:format>
        <dc:type
           rdf:resource="http://purl.org/dc/dcmitype/StillImage" />
        <dc:title></dc:title>
      </cc:Work>
    </rdf:RDF>
  </metadata>
  <g
     inkscape:label="Calque 1"
     inkscape:groupmode="layer"
     id="layer1"
     transform="translate(-363.53607,-520.89825)">
    <g
       transform="translate(50.779974,0.40112445)"
       style="display:inline;filter:url(#filter59863)"
       id="g57378">
      <path
         transform="matrix(0.34456954,0,0,0.34456954,388.50023,325.40632)"
         inkscape:connector-curvature="0"
         id="path48962"
         d="m -189.81782,570.37921 c -1.03017,0 -1.84375,0.84483 -1.84375,1.875 l 0,4.875 c -2.52989,0.59696 -4.90524,1.60683 -7.03125,2.96875 l -3.5,-3.5 c -0.72843,-0.72843 -1.89656,-0.72844 -2.625,0 l -4.59375,4.59375 c -0.72843,0.72843 -0.72843,1.92782 0,2.65625 l 3.5625,3.5625 c -1.29623,2.10995 -2.22664,4.44671 -2.78125,6.9375 l -5.125,0 c -1.03016,0 -1.875,0.81359 -1.875,1.84375 l 0,6.53125 c 0,1.03017 0.84484,1.84375 1.875,1.84375 l 5.1875,0 c 0.58082,2.45928 1.538,4.7642 2.84375,6.84375 l -3.6875,3.6875 c -0.72844,0.72844 -0.72844,1.89656 0,2.625 l 4.59375,4.59375 c 0.72844,0.72844 1.89656,0.72844 2.625,0 l 3.6875,-3.6875 c 2.07955,1.30576 4.38447,2.26293 6.84375,2.84375 l 0,5.1875 c 0,1.03016 0.81358,1.875 1.84375,1.875 l 6.53125,0 c 1.03017,0 1.84375,-0.84484 1.84375,-1.875 l 0,-5.125 c 2.49956,-0.55656 4.85298,-1.4781 6.96875,-2.78125 l 3.5625,3.5625 c 0.72844,0.72844 1.89657,0.72843 2.625,0 l 4.59375,-4.59375 c 0.72844,-0.72844 0.72844,-1.89656 0,-2.625 l -3.5,-3.5 c 1.36113,-2.12478 2.37164,-4.50301 2.96875,-7.03125 l 4.875,0 c 1.03016,0 1.875,-0.81358 1.875,-1.84375 l 0,-6.53125 c 0,-1.03016 -0.84484,-1.84375 -1.875,-1.84375 l -4.8125,0 c -0.57003,-2.56007 -1.55493,-4.96941 -2.90625,-7.125 l 3.375,-3.375 c 0.72844,-0.72844 0.72844,-1.92781 0,-2.65625 l -4.59375,-4.59375 c -0.72844,-0.72844 -1.89656,-0.72844 -2.625,0 l -3.40625,3.40625 c -2.15989,-1.3562 -4.55846,-2.36632 -7.125,-2.9375 l 0,-4.8125 c 0,-1.03017 -0.81358,-1.875 -1.84375,-1.875 l -6.53125,0 z m 3.40625,16.65625 c 6.7777,0 12.25,5.50355 12.25,12.28125 0,6.77769 -5.4723,12.28125 -12.25,12.28125 -6.7777,0 -12.28125,-5.50356 -12.28125,-12.28125 0,-6.7777 5.50355,-12.28125 12.28125,-12.28125 z"
         style="opacity:0.43010757;color:#000000;fill:#000000;fill-opacity:1;fill-rule:nonzero;stroke:none;stroke-width:1.23782158;marker:none;visibility:visible;display:inline;overflow:visible;filter:url(#filter49004-4);enable-background:accumulate" />
      <path
         inkscape:connector-curvature="0"
         id="path48879"
         d="m 323.0948,521.94162 c -0.35496,0 -0.6353,0.29109 -0.6353,0.64607 l 0,1.67978 c -0.87172,0.20568 -1.6902,0.55365 -2.42274,1.02294 l -1.20601,-1.20601 c -0.25099,-0.25099 -0.6535,-0.25099 -0.90449,0 l -1.58287,1.58287 c -0.25099,0.25101 -0.25099,0.66428 0,0.91527 l 1.22753,1.22754 c -0.44664,0.72702 -0.76723,1.5322 -0.95834,2.39043 l -1.76591,0 c -0.35497,0 -0.64607,0.28036 -0.64607,0.63531 l 0,2.25047 c 0,0.35497 0.2911,0.6353 0.64607,0.6353 l 1.78745,0 c 0.20014,0.84739 0.52995,1.6416 0.97987,2.35814 l -1.2706,1.27061 c -0.25099,0.251 -0.25099,0.65349 0,0.90449 l 1.58287,1.58287 c 0.25099,0.25099 0.6535,0.25099 0.90449,0 l 1.2706,-1.27061 c 0.71655,0.44993 1.51075,0.77974 2.35815,0.97988 l 0,1.78746 c 0,0.35496 0.28034,0.64605 0.6353,0.64605 l 2.25047,0 c 0.35497,0 0.63529,-0.29109 0.63529,-0.64605 l 0,-1.76592 c 0.86129,-0.19178 1.67219,-0.50932 2.40123,-0.95835 l 1.22754,1.22754 c 0.25099,0.25099 0.6535,0.25099 0.90448,0 l 1.58288,-1.58287 c 0.25099,-0.251 0.25099,-0.65349 0,-0.90449 l -1.20602,-1.20599 c 0.46902,-0.73215 0.8172,-1.55161 1.02297,-2.42276 l 1.67977,0 c 0.35496,0 0.64606,-0.28033 0.64606,-0.6353 l 0,-2.25047 c 0,-0.35495 -0.2911,-0.63531 -0.64606,-0.63531 l -1.65824,0 c -0.19642,-0.88212 -0.53579,-1.71231 -1.0014,-2.45505 l 1.16292,-1.16292 c 0.25099,-0.25099 0.25099,-0.66426 0,-0.91527 l -1.58288,-1.58287 c -0.251,-0.25099 -0.65349,-0.25099 -0.90448,0 l -1.1737,1.1737 c -0.74424,-0.4673 -1.57072,-0.81536 -2.45507,-1.01218 l 0,-1.65823 c 0,-0.35498 -0.28032,-0.64607 -0.63529,-0.64607 l -2.25047,0 z m 1.1737,5.73923 c 2.33538,0 4.22096,1.89636 4.22096,4.23174 0,2.33539 -1.88558,4.23176 -4.22096,4.23176 -2.3354,0 -4.23174,-1.89637 -4.23174,-4.23176 0,-2.33538 1.89634,-4.23174 4.23174,-4.23174 z"
         style="color:#000000;fill:url(#radialGradient9159);fill-opacity:1;fill-rule:nonzero;stroke:none;stroke-width:1.23782158;marker:none;visibility:visible;display:inline;overflow:visible;enable-background:accumulate" />
    </g>
  </g>
</svg>
