<?xml version="1.0" encoding="UTF-8" standalone="no"?>
<!-- Created with Inkscape (http://www.inkscape.org/) -->

<svg
   xmlns:dc="http://purl.org/dc/elements/1.1/"
   xmlns:cc="http://creativecommons.org/ns#"
   xmlns:rdf="http://www.w3.org/1999/02/22-rdf-syntax-ns#"
   xmlns:svg="http://www.w3.org/2000/svg"
   xmlns="http://www.w3.org/2000/svg"
   xmlns:xlink="http://www.w3.org/1999/xlink"
   xmlns:sodipodi="http://sodipodi.sourceforge.net/DTD/sodipodi-0.dtd"
   xmlns:inkscape="http://www.inkscape.org/namespaces/inkscape"
   width="174.31299"
   height="136.11325"
   id="svg15925"
   version="1.1"
   inkscape:version="0.48.0 r9654"
   sodipodi:docname="stamp_failed_fr.svg">
  <defs
     id="defs15927">
    <linearGradient
       id="linearGradient4005">
      <stop
         id="stop4007"
         offset="0"
         style="stop-color:#ac2020;stop-opacity:1;" />
      <stop
         id="stop4009"
         offset="1"
         style="stop-color:#892619;stop-opacity:1;" />
    </linearGradient>
    <linearGradient
       id="linearGradient4608">
      <stop
         style="stop-color:#449a32;stop-opacity:1;"
         offset="0"
         id="stop4610" />
      <stop
         style="stop-color:#357a28;stop-opacity:1;"
         offset="1"
         id="stop4612" />
    </linearGradient>
    <linearGradient
       inkscape:collect="always"
       xlink:href="#linearGradient4608"
       id="linearGradient4614"
       x1="191.17137"
       y1="168.73125"
       x2="282.33765"
       y2="273.78711"
       gradientUnits="userSpaceOnUse" />
    <linearGradient
       inkscape:collect="always"
       xlink:href="#linearGradient4608"
       id="linearGradient3937"
       gradientUnits="userSpaceOnUse"
       x1="191.17137"
       y1="168.73125"
       x2="282.33765"
       y2="273.78711" />
    <linearGradient
       inkscape:collect="always"
       xlink:href="#linearGradient4005"
       id="linearGradient4003"
       x1="148.02338"
       y1="223.44072"
       x2="321.4024"
       y2="223.44072"
       gradientUnits="userSpaceOnUse" />
    <linearGradient
       inkscape:collect="always"
       xlink:href="#linearGradient4005"
       id="linearGradient4011"
       gradientUnits="userSpaceOnUse"
       x1="289.1922"
       y1="261.57397"
       x2="189.83003"
       y2="172.68056" />
    <linearGradient
       inkscape:collect="always"
       xlink:href="#linearGradient4005"
       id="linearGradient4013"
       gradientUnits="userSpaceOnUse"
       x1="148.02338"
       y1="223.44072"
       x2="321.4024"
       y2="223.44072" />
    <linearGradient
       inkscape:collect="always"
       xlink:href="#linearGradient4005"
       id="linearGradient4015"
       gradientUnits="userSpaceOnUse"
       x1="148.02338"
       y1="223.44072"
       x2="321.4024"
       y2="223.44072" />
    <linearGradient
       inkscape:collect="always"
       xlink:href="#linearGradient4005"
       id="linearGradient4017"
       gradientUnits="userSpaceOnUse"
       x1="148.02338"
       y1="223.44072"
       x2="321.4024"
       y2="223.44072" />
    <linearGradient
       inkscape:collect="always"
       xlink:href="#linearGradient4005"
       id="linearGradient3883"
       gradientUnits="userSpaceOnUse"
       x1="148.02338"
       y1="223.44072"
       x2="321.4024"
       y2="223.44072" />
    <linearGradient
       inkscape:collect="always"
       xlink:href="#linearGradient4005"
       id="linearGradient3886"
       gradientUnits="userSpaceOnUse"
       x1="148.02338"
       y1="223.44072"
       x2="321.4024"
       y2="223.44072" />
    <linearGradient
       inkscape:collect="always"
       xlink:href="#linearGradient4005"
       id="linearGradient3889"
       gradientUnits="userSpaceOnUse"
       x1="148.02338"
       y1="223.44072"
       x2="321.4024"
       y2="223.44072"
       gradientTransform="translate(3.1799416e-6,-1.0964838e-6)" />
    <linearGradient
       inkscape:collect="always"
       xlink:href="#linearGradient4005"
       id="linearGradient3892"
       gradientUnits="userSpaceOnUse"
       x1="289.1922"
       y1="261.57397"
       x2="189.83003"
       y2="172.68056"
       gradientTransform="translate(3.2455944e-7,2.3448026e-6)" />
    <linearGradient
       inkscape:collect="always"
       xlink:href="#linearGradient4005"
       id="linearGradient3895"
       gradientUnits="userSpaceOnUse"
       x1="148.02338"
       y1="223.44072"
       x2="321.4024"
       y2="223.44072" />
    <linearGradient
       inkscape:collect="always"
       xlink:href="#linearGradient4005"
       id="linearGradient3909"
       x1="173.78226"
       y1="186.04694"
       x2="292.98026"
       y2="268.62689"
       gradientUnits="userSpaceOnUse" />
    <linearGradient
       inkscape:collect="always"
       xlink:href="#linearGradient4005"
       id="linearGradient3919"
       gradientUnits="userSpaceOnUse"
       x1="173.78226"
       y1="186.04694"
       x2="292.98026"
       y2="268.62689"
       gradientTransform="translate(0,-2)" />
    <linearGradient
       inkscape:collect="always"
       xlink:href="#linearGradient4005"
       id="linearGradient7097"
       gradientUnits="userSpaceOnUse"
       x1="173.78226"
       y1="186.04694"
       x2="292.98026"
       y2="268.62689" />
    <linearGradient
       inkscape:collect="always"
       xlink:href="#linearGradient4005"
       id="linearGradient7099"
       gradientUnits="userSpaceOnUse"
       x1="173.78226"
       y1="186.04694"
       x2="292.98026"
       y2="268.62689" />
    <linearGradient
       inkscape:collect="always"
       xlink:href="#linearGradient4005"
       id="linearGradient7101"
       gradientUnits="userSpaceOnUse"
       x1="173.78226"
       y1="186.04694"
       x2="292.98026"
       y2="268.62689" />
    <linearGradient
       inkscape:collect="always"
       xlink:href="#linearGradient4005"
       id="linearGradient3125"
       gradientUnits="userSpaceOnUse"
       x1="173.78226"
       y1="186.04694"
       x2="292.98026"
       y2="268.62689" />
    <linearGradient
       inkscape:collect="always"
       xlink:href="#linearGradient4005"
       id="linearGradient3127"
       gradientUnits="userSpaceOnUse"
       x1="173.78226"
       y1="186.04694"
       x2="292.98026"
       y2="268.62689" />
    <linearGradient
       inkscape:collect="always"
       xlink:href="#linearGradient4005"
       id="linearGradient3129"
       gradientUnits="userSpaceOnUse"
       x1="173.78226"
       y1="186.04694"
       x2="292.98026"
       y2="268.62689" />
    <linearGradient
       inkscape:collect="always"
       xlink:href="#linearGradient4005"
       id="linearGradient3131"
       gradientUnits="userSpaceOnUse"
       gradientTransform="translate(0,-2)"
       x1="173.78226"
       y1="186.04694"
       x2="292.98026"
       y2="268.62689" />
    <linearGradient
       inkscape:collect="always"
       xlink:href="#linearGradient4005"
       id="linearGradient3133"
       gradientUnits="userSpaceOnUse"
       x1="173.78226"
       y1="186.04694"
       x2="292.98026"
       y2="268.62689" />
  </defs>
  <sodipodi:namedview
     id="base"
     pagecolor="#ffffff"
     bordercolor="#666666"
     borderopacity="1.0"
     inkscape:pageopacity="0.0"
     inkscape:pageshadow="2"
     inkscape:zoom="2.8"
     inkscape:cx="85.317656"
     inkscape:cy="86.073399"
     inkscape:document-units="px"
     inkscape:current-layer="g3897"
     showgrid="false"
     inkscape:window-width="958"
     inkscape:window-height="1155"
     inkscape:window-x="0"
     inkscape:window-y="19"
     inkscape:window-maximized="0"
     fit-margin-top="0"
     fit-margin-left="0"
     fit-margin-right="0"
     fit-margin-bottom="0" />
  <metadata
     id="metadata15930">
    <rdf:RDF>
      <cc:Work
         rdf:about="">
        <dc:format>image/svg+xml</dc:format>
        <dc:type
           rdf:resource="http://purl.org/dc/dcmitype/StillImage" />
        <dc:title />
      </cc:Work>
    </rdf:RDF>
  </metadata>
  <g
     inkscape:label="Calque 1"
     inkscape:groupmode="layer"
     id="layer1"
     transform="translate(-147.50479,-155.37441)">
    <g
       id="g3897"
       style="fill:url(#linearGradient3909);fill-opacity:1;stroke:none"
       transform="matrix(0.96592583,0.25881905,-0.25881905,0.96592583,65.828362,-53.134608)">
      <g
         id="g3119"
         style="fill:url(#linearGradient3133)"
         transform="matrix(0.8660254,-0.5,0.5,0.8660254,-80.283805,147.26619)">
        <path
           style="font-size:medium;font-style:normal;font-variant:normal;font-weight:normal;font-stretch:normal;text-indent:0;text-align:start;text-decoration:none;line-height:normal;letter-spacing:normal;word-spacing:normal;text-transform:none;direction:ltr;block-progression:tb;writing-mode:lr-tb;text-anchor:start;baseline-shift:baseline;color:#000000;fill:url(#linearGradient3125);fill-opacity:1;stroke:none;stroke-width:4;marker:none;visibility:visible;display:inline;overflow:visible;enable-background:accumulate;font-family:Sans;-inkscape-font-specification:Sans"
           d="m 234.65625,173.28125 c -3.45255,-0.41369 -7.52474,0.30577 -8.06941,3.37033 -0.53869,-1.38815 1.57104,-4.26662 -1.80292,-2.39284 -9.51999,2.01563 -18.86668,6.52952 -25.31522,13.96001 -3.42877,2.23106 -5.61806,6.3045 -7.44795,9.54934 -3.15344,2.73202 -3.12321,7.13252 -4.67346,9.7443 4.2301,1.50353 11.78207,-1.82507 13.12967,-3.89679 -3.47961,0.29821 -5.74638,0.67408 -8.68943,-0.46137 2.40594,-2.88277 5.1626,-5.61987 7.4833,-9.19746 10.54151,-12.9341 28.48063,-19.41658 44.80357,-15.7041 10.72875,2.2544 20.62181,8.4154 27.1575,17.23761 3.05745,3.22092 4.48314,7.60963 5.43607,11.15836 2.01663,0.31124 4.6027,0.52325 5.32542,0.6807 0.79269,-2.64451 -4.29188,-1.80192 -1.25636,-4.19696 -3.37855,-6.59332 -7.76536,-13.09855 -13.62334,-17.91527 -2.55128,-2.73561 -6.32531,-4.08584 -9.69447,-4.33897 2.08367,0.21551 5.87117,0.36239 1.72445,-1.2154 -7.47061,-4.10775 -15.94093,-6.439 -24.48742,-6.38149 z m -0.4375,0.15625 c 3.11046,2.57787 -5.67992,4.94438 -0.97731,1.28596 0.33609,-0.42077 0.6533,-0.85598 0.97731,-1.28596 z m 6.09375,0.34375 c 3.08173,0.53054 -2.90991,1.38278 -0.65917,0.24118 l 0.65917,-0.24118 z m 3.78125,1.46875 c 0.85505,1.4346 -1.83865,0.91381 0,0 z m -16.25,1.71875 c 0.28658,0.24534 -0.43694,0.0684 0,0 z m -13.875,2.40625 c 3.25037,1.44431 -3.52004,2.02033 0,0 z m 2.5,0.78125 c 0.35381,1.39212 -1.83505,0.13092 -5e-5,0 l 5e-5,0 z m 44.0625,2.75 c -0.59455,1.28204 -0.82281,-0.68191 0,0 z m -62.84375,8.03125 c 3.04045,0.65704 1.69352,2.6448 0.28796,0.46609 l -0.1454,-0.23533 -0.14256,-0.23076 z m -1.40625,6.6875 c -0.41025,0.37296 -0.3508,0.31891 0,0 z m -4.75,2.375 c 2.40199,0.54525 -2.02498,1.70314 0,0 z m 0.0312,1.21875 c -0.15365,0.58831 -0.37754,-0.15607 0,0 z m 20,2.46875 c -3.37153,3.14638 5.4863,2.2275 7.3168,1.57913 3.26796,-1.44822 -0.53553,3.91927 2.97914,2.41181 8.84922,-0.0321 17.69984,0.12083 26.54786,-0.0847 0.0642,-2.90242 -5.61737,-0.49636 -6.74505,-2.98409 -5.65173,-0.16786 -11.08922,3.19505 -16.73251,1.88761 -0.26932,-2.01057 5.52046,-3.30281 0.96689,-2.82079 -4.7777,-0.005 -9.55581,0.12018 -14.33313,0.0111 z m 35.21875,0 c 2.92575,1.005 7.45614,6.07154 9.86169,3.28435 -2.1549,-2.71286 -5.57964,-3.63263 -8.88917,-3.28435 -0.32418,0 -0.64835,0 -0.97252,0 z m 25.65625,0 c -2.20063,1.33261 -9.16435,5.58517 -3.42366,2.39651 1.05634,-0.76343 2.96026,-1.13692 3.42366,-2.39651 z m -47.625,0.84375 c -1.26442,1.67449 -2.99748,0.46392 0,0 z m -37.34375,34.8125 c 0.29343,4.85319 3.7191,8.77433 5.99842,12.8658 6.73193,9.69125 16.98011,16.89163 28.40783,19.85295 1.19564,-1.02036 2.77794,2.56987 3.56626,-0.78994 2.08917,-2.74421 0.009,3.74759 3.36386,2.18946 8.03466,0.5797 16.39981,-0.0404 23.89136,-3.17079 1.2609,-1.24469 1.29295,-4.59357 2.51222,-1.16907 2.69245,-0.78945 7.86221,-3.68467 7.43225,-4.86259 4.11504,-1.4618 7.4063,-4.48292 8.65867,-8.73777 1.79029,2.79999 4.7395,-4.37033 6.58885,-6.54471 1.48175,-2.60045 4.26411,-7.82387 3.97197,-9.22827 -2.07696,1.91848 -5.92048,2.3361 -7.78302,3.59482 5.29002,-0.12474 -1.92406,5.18475 -2.24256,7.54659 -3.69868,4.24745 -7.32417,9.04559 -12.41266,11.52483 -4.12349,3.5859 -9.59547,4.61251 -14.667,6.2113 -8.74693,2.14605 -18.03784,1.32279 -26.39952,-1.96947 -3.31545,-0.64136 -5.29256,-3.31824 -7.63176,-1.61515 1.20735,-2.76544 -3.12378,0.8195 -0.0987,-1.66686 -3.76564,-3.69932 -8.94702,-6.04161 -11.57952,-10.83392 -0.68516,-1.60242 -3.13034,-3.77555 -4.20178,-1.19733 1.12222,-3.01664 0.0595,-5.03982 -1.81699,-7.49189 1.25657,-5.34495 6.77049,1.71146 9.85938,-0.7819 4.92835,0.51744 9.93238,0.17471 14.89511,0.27384 -2.57477,-1.13567 -10.05559,-0.24767 -9.67591,-2.87025 4.35219,-2.12867 -4.98336,2.77185 -6.6409,-0.59474 -3.73514,-1.51449 -7.25055,0.69703 -10.8117,-0.53496 -1.06139,1e-5 -2.12283,-3e-5 -3.18419,2e-5 z m 23.5938,24.03125 c -0.29943,0.22118 0.2225,-0.0148 0,0 z m 0.0625,0 c 0.41674,0.26674 0.14131,-0.23754 0,0 z m -23.25,-23.4375 c 0.55765,0.46869 -1.32043,0.38652 0,0 z m 92.6875,1.75 c 0.61964,0.85023 -1.85284,0.72289 0,0 z m -0.375,1.125 -0.21763,0.12355 0.21763,-0.12355 z m -90.59375,1.25 c 0.69778,1.0787 -1.82836,-0.21591 0,0 z m 1.5,1.84375 c 3.36469,-0.33508 1.8278,2.53653 0,0 z m 87.34375,0.0625 c -0.52895,1.89519 -2.46344,-0.60438 0,0 z m -2.3125,3.34375 c -0.8389,3.61196 -3.81886,-0.25034 0,0 z m -6.15625,8.90625 c 0.16081,0.37468 -0.45968,-0.0526 0,0 z m -66.3125,1.03125 c 1.19951,-0.52782 0.80019,1.29837 0,0 z m 62.28125,0.1875 c 0.48992,0.71353 -0.54706,0.22271 0,0 z m -6.25,3.6875 c 1.99996,1.65343 -2.65603,2.72488 -5e-5,0 l 5e-5,0 z m -51.46875,0.25 c 0.98196,-0.45939 -0.2801,0.80941 0,0 z m 45.65625,4.53125 0.0651,0.14593 -0.0651,-0.14593 z M 247,268.5 c -0.0177,2.07257 -1.9657,-0.38976 0,0 z m -22.65625,0.96875 c -0.26508,1.18485 -1.33724,0.90316 0,0 z M 220.5,269.6875 c 0.1854,2.28946 -1.11565,1.1286 0,0 z m 28.03125,0.34375 c -0.0701,2.24096 -2.41209,0.26508 0,0 z"
           id="path15950"
           inkscape:connector-curvature="0" />
        <path
           style="font-size:medium;font-style:normal;font-variant:normal;font-weight:normal;font-stretch:normal;text-indent:0;text-align:start;text-decoration:none;line-height:normal;letter-spacing:normal;word-spacing:normal;text-transform:none;direction:ltr;block-progression:tb;writing-mode:lr-tb;text-anchor:start;baseline-shift:baseline;color:#000000;fill:url(#linearGradient3127);fill-opacity:1;stroke:none;stroke-width:4;marker:none;visibility:visible;display:inline;overflow:visible;enable-background:accumulate;font-family:Sans;-inkscape-font-specification:Sans"
           d="m 314.9077,243.35429 c 4.90787,0.71622 9.11105,-8.87502 3.5625,-6.90635 3.59627,-0.1249 2.50152,-2.88858 2.71875,-4.8152 -0.0818,-2.32154 0.0394,-5.7408 0,-8.5599 -2.40674,3.46377 1.07905,-3.3046 -5e-5,-5.43674 -0.37171,-4.37412 1.37201,-9.84374 -2.81859,-12.86607 -4.05105,-1.96669 -8.76329,-0.77665 -13.14273,-1.10339 -2.86038,-1.23299 -5.32332,2.18591 -6.03133,1.55605 -1.45734,-2.72459 -4.87999,-1.1336 -7.38693,-1.55605 -1.38259,-0.16857 -1.3976,3.75967 -1.93287,0 -4.52083,0 -9.04167,0 -13.5625,0 -2.17278,3.30362 3.27864,6.18587 2.9999,2.25 0.98028,2.98388 4.47725,1.32516 6.83703,1.75 2.88926,-0.13408 5.99826,0.26236 8.75672,-0.1875 -0.20664,-4.06428 3.04507,2.00173 6.15554,0.1875 4.40594,-0.0422 8.98036,0.0841 13.28196,-0.0625 -1.33051,-3.90224 4.01837,-4.2724 0.40625,-0.4688 0.21439,3.03167 4.52908,-4.04799 3.00005,0.9063 -1.05517,3.37627 0.0639,4.91082 -0.5624,6.1874 -0.23022,2.48963 -0.0305,4.53651 1.35749,3.96855 0.005,0.93209 -3.11083,2.75546 -0.16999,1.719 -1.25652,2.28875 -1.35402,5.03096 -1.1875,8.05578 -1.00424,5.66101 2.29117,-4.57251 1.52441,-0.18093 -1.25535,2.21659 -0.0399,4.05102 -1.52446,3.8353 -0.37987,2.63402 1.29229,7.07929 -2.375,7.7274 -2.38534,-0.3455 -6.21079,0.53261 -7.1875,0 -2.30953,-0.1363 -4.35895,0.26508 -6.42015,0 -9.93285,0 -19.8657,0 -29.79855,0 0.26868,2.66804 -5.08171,-1.25535 -7.95943,0 -3.33828,-0.11529 -4.79213,1.02388 -7.81586,0 -10.31451,0 -20.62901,0 -30.94351,0 2.14486,2.08169 -5.8461,3.85639 -2.2812,5e-5 -2.23958,0 -4.47917,0 -6.71875,0 3.48059,5.10891 -2.29665,-1.6698 -5.0625,0.0625 -2.52419,0.14844 -5.33175,-0.20674 -8.05578,-0.0625 -6.81474,0 -13.62948,0 -20.44422,0 2.24183,4.57875 -4.10513,1.26449 -5.19005,5e-5 -4.96786,0 -9.93573,0 -14.9036,0 0.34138,2.7563 -2.44928,0.81544 -1.16755,0 -2.21445,-0.0211 -4.4331,0.0421 -6.64495,-0.0312 -3.1543,0.56469 -1.77103,-4.22459 -2.0625,-6.99063 0.11683,-7.73046 -0.23592,-15.50519 0.18041,-23.2074 1.84168,-2.54984 5.49828,-1.05524 8.23042,-1.45822 2.72764,0 5.45528,0 8.18292,0 -0.92016,-1.30077 3.37947,1.14416 4.69513,-0.46012 2.28737,-2.34045 3.22046,1.84515 7.108,0.46022 10.54002,-3.6e-4 21.15803,2.7e-4 31.72802,0 0.0595,-0.57634 7.16291,1.5065 3.5625,-2.1875 1.13903,3.49013 4.91502,1.79482 7.62958,2.1875 5.41514,0 10.83028,0 16.24542,0 -1.98159,-2.97849 3.37449,-1.14116 1.4488,0 3.12603,-0.49873 2.53962,0.0727 6.22664,0 2.62951,0.0101 5.16091,0.71256 4.66826,-2.59375 4.01951,0.2339 -1.08687,3.60662 3.71539,2.59375 1.57108,-1.26237 3.36767,0.64947 6.35765,-5e-5 4.49647,0 8.99294,0 13.48941,0 -2.34148,-3.73503 -1.0515,-4.46198 -5.76059,-4 -1.699,-0.12005 -4.65481,0.177 -5.27061,-1e-4 -7.11012,0.0209 -14.42178,-0.0417 -21.4063,0.0312 0.47141,0.4736 -3.06091,-0.37528 -5.46799,-0.0312 -12.45857,0 -24.91714,0 -37.37571,0 -0.41153,1.69708 -3.99587,-0.96062 -6.81438,0 -6.19728,0 -12.39455,0 -18.59182,0 0.8312,2.33085 -5.24454,5.7935 -2.95403,0.96605 0.034,-2.02177 -4.31613,-0.4887 -6.18685,-0.96605 -2.15059,0.28568 -4.95792,-0.58857 -6.67162,0.46875 -1.8595,-0.91777 -6.45579,-1.1464 -6.56245,2.12495 -3.07567,-4.02929 -5.09314,3.96986 -4.40625,7.00794 0.15693,6.55097 -0.31817,13.16665 0.245,19.67604 -0.37699,1.53074 -0.8494,7.35268 2.36528,8.51898 0.31198,2.09395 7.2494,3.27672 4.10847,-0.23421 2.73969,1.31192 1.1762,2.69243 5.57375,2.12505 2.30881,0.46732 6.26625,-0.7598 5.62505,0 1.68932,-0.74219 5.46363,1.4068 5.20745,-1.28125 1.92079,0.55309 4.85523,0.96144 0.96875,1.2812 6.48958,0 12.97917,0 19.46875,0 3.78305,-1.61687 3.34052,1.46023 6.7187,-1.4062 3.4526,-2.52759 3.02344,1.59769 0.79255,1.4063 8.32263,-0.0246 16.73236,0.0139 25.2074,-5e-5 2.04983,-0.0907 6.74884,-1.81088 4.6363,0 2.24311,0.0332 3.00071,-1.37239 3.48005,0 2.46022,0.16946 4.311,0.17772 4.7274,-1.59375 1.35441,2.85233 5.59867,1.05107 7.1562,1.59375 2.10814,-0.53079 5.8816,1.28189 6.46875,-1.375 1.29591,2.31878 4.36836,1.05553 6.67549,1.375 1.72778,-0.29112 3.16248,0.12872 5.82385,5e-5 8.56273,0 17.12547,0 25.68821,0 0.54809,0.2842 3.60342,-0.68659 4.28125,0 4.95474,0.01 10.13255,-0.0144 14.8437,0 1.71671,-1.10484 3.16514,0.5818 5.89159,5e-5 0.82231,0.47974 -0.11822,-1.21286 0.79596,0 z m -34,-0.3125 c -3.10904,-1.82585 -3.50989,-2.39237 0.5,-2.93745 -0.43341,1.96089 1.9086,3.39362 -0.5,2.93745 z m 23.25,-0.0937 c -3.08061,-0.34285 2.7957,-5.01241 0,0 z m -37.78125,-0.40625 c -2.51879,-2.37743 3.15555,-0.4891 0,0 z m -43.03125,-0.375 c 3.7472,-1.79224 4.70496,-0.68787 0,0 z m -37.75,-0.1875 c -3.65109,0.69944 0.84522,-0.96915 0,0 z m 63.09375,-0.0312 c -1.03316,-0.97163 1.24898,-0.63277 0,0 z m -22.3125,-0.1875 c 1.85285,-2.21592 6.75675,-0.78086 1.87955,-0.28668 l -0.94859,0.14708 -0.93096,0.13955 0,5e-5 z m 73.6875,-0.0625 c -1.40953,0.87878 -0.58505,-2.51092 0,0 z m -14.90625,0 c -1.48945,-3.21046 2.21697,-1.02305 0,-1e-4 l 0,1e-4 z m -119.71875,-0.21875 c 0.72469,-1.44235 2.86128,-0.94244 0,0 z m 109.75,-0.1875 c -2.5455,-1.78866 2.11014,-1.30874 0,0 z m -81.9375,-0.0625 c -1.06341,0.37018 -0.12478,-0.42846 0,0 z m -1.75,-0.4375 c -0.68838,-0.64104 2.7995,-0.41077 0,0 z m 6.625,-0.3125 c -1.98431,-2.27245 3.24249,0.2813 0,0 z m 56,-0.0937 c -0.19979,-0.25173 -0.63335,-1.16453 0,0 z m 61.53125,-0.0937 c -1.2818,0.32422 -0.12495,-1.76493 0,0 z m -156.78125,-0.40645 c -0.10051,-0.0148 0.0713,-0.13593 0,0 z m 160.96875,-2 c -1.47307,-0.81878 2.06868,-1.49151 0,0 z m -0.78125,-2.90625 c -0.0256,-0.15841 0.15817,0.0258 0,0 z m -168.53125,-18.125 c -0.42849,-0.81064 0.31718,-0.0541 0,0 z m 168.09375,-0.875 c 0.0222,-0.37285 0.46821,-0.12446 0,0 z m -0.0312,-0.46875 c 0.44839,-0.60109 0.29576,0.22573 0,0 z m -117.75,-8.53125 c -1.5929,-1.53787 -0.3773,-1.98335 0,0 z m 47.4375,-0.375 c -0.92365,-1.81589 0.72791,-1.58612 0,0 z m 62.2812,-0.28125 c -3.28189,-1.96538 2.30339,-3.93361 0,0 z m -5.3125,-0.34375 c -0.43553,-0.92623 0.83345,3.6e-4 0,0 z m -142.71875,-0.0312 c -0.26004,-1.39082 0.59165,0.008 0,0 z m 76.25,-0.1875 c -0.85444,-0.95213 0.92375,-0.36907 0,0 z m 31.28125,-0.12505 c -2.16946,-0.79913 0.88237,-1.87568 0,0 z m -83.96875,-0.5625 c -0.35094,-1.1731 0.63537,-0.0469 0,0 z m 3.46875,-1.09375 c -0.28349,-0.0318 0.0837,-0.35944 0,0 z"
           id="rect15954"
           inkscape:connector-curvature="0" />
        <path
           style="font-size:medium;font-style:normal;font-variant:normal;font-weight:normal;font-stretch:normal;text-indent:0;text-align:start;text-decoration:none;line-height:normal;letter-spacing:normal;word-spacing:normal;text-transform:none;direction:ltr;block-progression:tb;writing-mode:lr-tb;text-anchor:start;baseline-shift:baseline;color:#000000;fill:url(#linearGradient3129);fill-opacity:1;stroke:none;stroke-width:4;marker:none;visibility:visible;display:inline;overflow:visible;enable-background:accumulate;font-family:Sans;-inkscape-font-specification:Sans"
           d="m 234.91415,291.44531 c 10.95606,-0.24065 22.27298,-2.49272 31.79326,-8.10341 7.44213,-3.60802 14.02017,-9.06614 19.45449,-15.27807 2.68403,-3.21485 8.51383,-10.99586 11.0009,-17.00487 -0.18808,-3.38993 5.19613,-8.56087 3.07576,-12.05391 -6.86975,1.31122 -4.14904,10.19416 -8.46269,13.58932 -5.27863,10.8595 -13.96494,19.71223 -24.28067,25.89396 -5.36771,4.06198 -12.02705,5.31829 -18.28316,7.56469 -11.3779,2.17494 -23.38614,1.91727 -34.42294,-1.85761 -2.81207,0.70624 -2.41236,-0.42384 -1.62499,-0.77677 -0.80455,-0.67027 -5.66861,0.80175 -2.59376,-0.78573 -16.4711,-6.75807 -29.82654,-20.8954 -35.83526,-37.65014 0.43309,-4.96044 8.8585,1.16394 8.10785,-4.63527 1.75717,-2.27502 -4.1747,-0.67495 -5.98511,-1.15199 -2.60353,-0.32121 -2.31237,3.95315 -5.61051,0.18414 -1.76687,-0.31248 2.73504,4.34681 -0.71778,5.62629 1.43009,4.80757 4.08103,8.79541 6.68094,14.39059 7.16887,11.46734 18.17218,21.25275 30.47678,26.21824 5.48334,1.84818 10.85152,5.29061 16.93075,4.40716 4.0757,-0.53866 6.13507,2.27754 10.29614,1.42338 z m 0.34375,-0.53125 c -2.34356,0.25933 -0.80963,-1.42594 0,0 z m 5.875,-0.8125 c -4.06207,0.83027 -3.84685,-2.84859 0,0 z m 2.75,-0.28125 c -3.15325,-0.96005 2.19597,-0.5199 0,0 z m -6.96875,-0.5 -0.0277,-0.0392 0.0277,0.0392 z m -11.09375,-0.3125 c -5.15546,-0.59558 4.84984,-0.42956 0,0 z m -7.59375,-0.5625 c -0.88359,-1.12197 2.72063,0.59368 0,0 z m 18.125,-0.21875 c 1.28106,-1.12445 0.97342,0.26746 0,0 z m -24.65625,-0.9375 c -1.71448,-3.70201 6.51433,0.56882 0.33566,-0.0255 l -0.33571,0.0255 5e-5,5e-5 0,-5e-5 z m 39.90625,-0.78125 c -0.66558,-0.85871 2.57745,-1.03684 0,0 z m 13.96875,-3.625 c -2.23484,-0.0559 1.34871,-2.21196 0,0 z m -63.78125,-1.34375 c -2.26908,-0.41277 -1.20789,-2.75246 0,0 z m 63.15625,-0.25 c -0.1775,-0.32693 0.4199,-0.0312 0,0 z m -61.1875,-1.125 c -2.22976,-0.71302 1.36245,-1.40119 0,0 z m 64.4375,-0.0625 c -1.1266,-0.39656 0.94087,-1.72768 0,0 z m 2.75,-0.5 0.0606,-0.0966 -0.0606,0.0966 z m -73.1875,-0.59375 c -3.34132,-1.74961 0.48497,-1.19455 0,0 z m 74.40625,-1 c 1.01947,-1.78453 1.5009,-1.69736 0,0 z m -1.59375,-0.0937 c -0.2152,-2.38088 2.63645,-1.98356 0,0 z m 4.90625,-0.6875 c -0.17007,-1.45273 3.069,0.26684 0,0 z m 0.125,-1.40625 0.0673,-0.1763 -0.0673,0.1763 z m 0.25,-0.625 c -0.2738,-0.51379 0.95258,-0.59228 0,0 z m 1.90625,-0.0312 c -0.21125,-1.3508 1.90527,-0.59132 0,0 z m -1.28125,-1.21875 c -0.55825,-0.54214 1.07694,-0.72126 0,0 z m 0.5625,-1.65625 c 0.0137,-0.69774 0.50827,0.006 0,0 z m 2.09375,-0.28125 c -0.003,-2.17641 2.42341,-0.709 0,0 z m -91.03125,-4.1563 c -0.69217,0.12476 0.12227,-0.94582 0,0 z m 95.09375,-0.15625 c 0.2287,-2.60408 3.04594,-1.50868 0,0 z m 2.78125,-1.0625 c 1.60176,-2.25254 1.69172,-0.41554 0,0 z m -103.75,-2.96875 c -2.11668,-1.2541 1.84629,-1.66 0,0 z m 110.71875,-7.8125 c -1.5451,-4.0751 4.61075,0.35298 0,0 z m 2.25,-3.8125 c -0.36046,0.23936 0.006,-0.30542 0,0 z m -0.4375,-0.625 c -0.28434,-0.36347 0.60236,-0.016 0,0 z m -119.1875,-2.28125 c -1.68935,-0.53381 0.18124,-3.81644 0,0 z m 121.09375,-2.4375 c -0.20165,-0.78096 0.99963,0.30975 0,0 z m -123.1875,-1.25 c -0.89234,-2.15026 2.58012,-0.70557 0,0 z m 125.75,-1.59375 c -3.44063,0.90969 0.47304,-2.33744 -1e-4,5e-5 l 1e-4,-5e-5 z m -1.15625,-1.46875 c 0.0349,-4.08681 2.97792,-1.18469 0,0 z m -123,-0.0312 c 2.13642,-4.24409 6.02337,0.68998 0,0 z m 6.0625,-1.40625 c -2.64531,-1.24111 1.08358,-1.63365 5e-5,-5e-5 l -5e-5,5e-5 z m -5.09375,-0.28125 c -0.004,-2.4605 2.95569,-0.58521 0,0 z M 297.9454,207.53911 c 5.40802,-4.30293 -2.31542,-12.1798 -3.65544,-17.44829 -6.25991,-11.16138 -15.7017,-20.53324 -26.96951,-26.61421 -0.69381,2.24189 -3.84489,-3.36431 -6.6578,-2.94285 -24.81753,-10.97285 -55.95277,-4.27782 -74.49996,15.41968 -6.43478,6.67514 -11.62802,14.54645 -14.69244,23.32184 -1.81675,3.92566 -1.65936,10.68113 4.38724,7.94988 4.53404,2.09358 3.98869,-7.09931 0.69927,-1.94905 -4.98368,-4.73002 3.49814,-13.12749 5.74393,-18.16178 4.83782,-6.42559 9.96541,-12.90591 16.8763,-16.72535 13.60723,-9.53372 31.30776,-13.35372 47.59395,-9.88248 6.65253,0.73505 13.06188,3.04965 18.81973,6.71147 0.82927,2.2559 11.72072,2.47911 5.6413,2.59203 5.07369,5.65664 12.03723,9.57486 15.86647,16.39587 2.20355,3.96634 6.15544,10.51181 7.72459,11.38891 3.01679,-0.84854 -3.78835,1.82868 0.3073,3.01088 1.3874,2.47071 -5.10152,9.60012 0.47881,4.87208 1.01722,0.64884 0.26807,3.14535 2.33626,2.06137 z m -6.46875,0 c 3.17539,-4.38857 -0.86105,-4.58862 -4.34975,-3.95824 4.13716,-0.82549 3.07068,2.49275 2.65814,3.99023 l 0.88912,-0.042 0.80249,0.01 z m -121.96875,0 c -0.18612,-2.21234 -1.73932,0.89645 0,0 z m 4.34375,-5.34375 c -1.3678,-1.55467 1.69689,-2.31504 0,0 z m 0.625,-2.78125 c -1.56687,0.67105 0.41271,-0.8104 0,0 z m -0.4375,-0.75 c 0.80368,-1.45092 1.32324,-0.12722 0,0 z m 2,-4.59375 c -2.00062,-3.76348 1.58112,-4.00325 0,0 z m 117.9375,-0.46875 c -2.99051,-1.71984 -3.06521,-3.01649 -0.19346,-0.21044 l 0.19346,0.21044 z m -2.5,-4.28125 c -1.92037,0.0494 -0.58022,-2.2651 0,0 z m -113.75,0 1e-4,-0.0994 -1e-4,0.0994 z m 3.875,-2.90625 c 0.69283,-2.5342 1.59024,-1.45785 0,0 z m -2.09375,-0.65625 c 0.15124,-1.59489 2.32053,-1.50105 0,0 z m 110.3125,-0.3125 c -1.41436,-1.26018 1.36436,-1.80371 0,0 z m -0.8125,-1.5625 c -1.72983,-1.05322 0.78955,-0.64219 0,0 z m -105.78125,-0.125 c -1.82331,-1.72612 2.16502,-1.67553 0,0 z m 3.46875,-2.5625 c -1.10406,0.58251 0.25114,-1.38095 0,0 z m -1.56255,-2 c 1.08819,-1.80096 0.90625,0.63312 0,0 z m 4.8125,-2.21875 c -1.24016,0.16893 0.42111,-0.86213 0,0 z m 2.59375,-3.25 c 0.67709,-2.2492 3.70527,-1.04571 0,0 z m -1.375,-1.03125 0.18246,-0.75213 -0.18246,0.75213 z m 1.8125,-0.5625 c -0.009,-0.58271 0.9617,0.21034 0,0 z m 78.375,-1.875 -0.3201,-0.15363 0.3201,0.15363 z m 0.15625,-2.4375 c 0.53274,-0.54601 1.76279,0.60173 0,0 z m -69.15625,-0.4375 c -2.13117,-3.01436 3.71741,-1.09748 0,0 z m -2.4375,-0.5 c -1.62645,0.0113 0.36924,-1.12142 0,0 z m 64.1875,-1.625 c -2.15775,-0.18024 -0.0165,-1.38101 0,0 z m -1.3437,-0.90625 c -1.41651,-0.92174 2.32336,-0.51926 0,0 z m -0.5,-0.875 c -0.12515,-0.92028 1.11194,0.099 0,0 z m -5.875,-0.53125 0.3928,-0.12199 -0.3928,0.12199 z m -39.59375,-1.125 c -2.01645,0.002 -3.82266,-0.55623 0,0 z m 36.6875,-0.25 c 2.81473,-1.01043 2.55368,0.62049 0,0 z m -42.21875,-0.28125 -0.0804,-0.1117 0.0804,0.1117 z m -0.3125,-0.0625 c -0.4895,-0.0312 1.00781,-0.33901 0,0 z m -1.25,-0.1875 c -0.83009,-1.79375 4.17385,-0.29062 0,0 z m 7.59375,-0.8125 c -1.60716,0.92375 -0.40557,-0.94218 0,0 z m 4.1875,-0.3125 c -1.78968,-4.01235 7.1867,-0.52421 0,0 z m 25.09375,-0.71875 c -2.40151,0.432 -0.65923,-1.33022 0,0 z m -1.84375,-0.25 c -3.54147,-1.69113 2.95159,-0.51705 0,0 z m -10.8125,-0.375 c -0.48414,-0.23905 0.6613,-0.0149 0,0 z m 8.34375,-0.0625 c -2.27018,0.12235 1.81765,-2.55688 0,0 z m -1.96875,-0.40625 c -3.18749,-3.68939 2.67716,-1.87738 0,0 z m -4.78125,-1.6875 c -0.3024,-0.3795 0.72031,-0.31958 0,0 z m -7.96875,-0.34375 c -0.13371,-1.5942 2.9591,1.10411 0,0 z"
           id="path3788"
           inkscape:connector-curvature="0" />
        <path
           style="font-size:28px;font-style:normal;font-variant:normal;font-weight:bold;font-stretch:normal;line-height:125%;letter-spacing:0px;word-spacing:0px;fill:url(#linearGradient3131);fill-opacity:1;stroke:none;font-family:Arial;-inkscape-font-specification:Arial Bold"
           d="m 202.23701,208.60799 c -0.18197,2.31049 -0.26027,1.44162 -0.7319,0.80552 -0.49561,1.09608 -0.99123,2.19215 -1.48685,3.28823 1.00014,0.053 0.37166,-1.89277 0.6875,0 1.26139,0.57005 2.7736,-0.91596 2.5625,-0.90625 1.05785,-0.67268 2.04651,-2.79531 0.5908,-3.1875 -0.54068,0 -1.08137,0 -1.62205,0 z m -7.375,5.25 c 0,6.67708 0,13.35417 0,20.03125 3.16808,-0.0117 6.4607,0.0273 9.4375,-0.0312 1.21833,0.0444 2.93604,0.0309 4.36736,0.0312 1.34089,0.34116 1.67663,-0.32284 1.44514,-1.55405 0.11739,-1.17144 0.15123,-2.25933 -1.3412,-1.82095 -3.2821,0 -6.5642,0 -9.8463,0 0,-1.8125 0,-3.625 0,-5.4375 2.42708,0 4.85417,0 7.28125,0 -0.27708,-1.70171 0.40427,0.81887 1.96916,0 1.41868,0.36562 0.59589,-1.51024 0.81209,-2.34711 0.4938,-1.50703 -1.09326,-0.93321 -2.01181,-1.02789 -2.72766,-0.006 -5.40064,0.0107 -8.05069,0 0,-1.48958 0,-2.97917 0,-4.46875 3.60417,0 7.20833,0 10.8125,0 0.57652,-1.1703 -0.9665,-2.2641 0,-1.9375 0.38375,-1.42175 -0.43098,-1.64503 -1.67651,-1.4375 -1.418,0.19025 -1.82856,0.43496 -1.25254,0 -2.01323,0 -4.02647,0 -6.0397,0 -0.0885,1.89078 -0.23847,0.45852 -0.7103,0 -1.73198,0 -3.46397,0 -5.19595,0 z m 34.25,0 c 0,6.67708 0,13.35417 0,20.03125 1.28125,0 2.5625,0 3.84375,0 0.0767,-3.16777 -0.18235,-6.35823 0.1939,-9.50695 -0.20775,-2.63299 4.14924,-1.52759 2.69685,-3.76683 0.77152,-2.55674 -0.21324,2.35686 1.6405,1.74253 1.58032,1.4239 0.83048,3.80266 1,5.71916 0.091,1.93141 -0.19046,3.91969 0.15625,5.81209 1.22917,0 2.45833,0 3.6875,0 -0.0637,-3.39033 0.13874,-6.84134 -0.125,-10.1875 -1.82908,0.66435 0.98929,-2.64468 -0.8125,-1.65625 0.74526,-1.21515 -1.21206,-2.65032 -3.03125,-2.90625 0.51567,1.04094 -1.87327,-0.97159 -2.803,0.21628 -1.7448,0.74748 -3.03424,2.91271 -2.60325,0.0333 0,-1.84361 0,-3.68722 0,-5.53084 -1.23891,0.22584 -0.8774,-0.0345 -2.64526,0 -0.39949,0 -0.79899,0 -1.19849,0 z m -31.625,0.1875 c -0.44983,2.04594 -2.19158,0.64907 0,0 z m -1,0.0937 c 0.2305,0.97735 -1.12822,-0.23851 0,0 z m 0,0.15625 c -0.0488,0.22265 -0.69078,0.27659 0,0 z m 33.03125,0.59375 c 1.28041,1.1887 -0.14005,3.5164 -0.15825,0.72574 0.0754,-0.23209 0.0321,-0.50885 0.15825,-0.72574 z m -23.1875,0.59375 c 0.69937,-0.21309 -0.32465,1.07267 0,0 z m -3.28125,0.40625 c 0.26423,1.60533 -1.77419,-0.004 0,0 z m -2.25,0.28125 c 0.15075,0.37548 -0.20225,-0.005 0,0 z m -1.9375,1.96875 c 0.22892,0.0469 -0.5987,0.11473 0,0 z m 20.875,0.90625 c -2.15246,-0.33104 -5.36514,1.6592 -5.4375,2.71875 2.87429,-1.27521 -1.96776,0.50614 -1.29751,2.29407 -0.28992,1.89333 -0.89515,5.40404 1.04751,6.04968 -1.40895,1.47318 2.52017,4.0666 4.47488,4.05525 2.28931,0.52131 3.62129,-0.98399 4.95551,-0.82229 0.83097,-0.58044 3.17435,-2.88347 1.41336,-2.51421 2.64353,-1.10554 0.64184,-2.40448 -0.34375,-2.15625 -1.0425,-0.31228 -2.48539,-0.60197 -2.5,1.3125 -1.55264,0.66646 -0.15269,1.34125 -1.1875,1.53125 0.14894,-1.45434 -1.99843,0.54914 -2.07643,-0.59395 -2.7647,-0.81657 -2.22509,-4.41512 -1.79857,-6.9373 0.66158,-0.97439 1.54385,-2.6072 2.12182,-1.84381 2.71065,-1.21119 2.53845,2.77413 4.4703,2.00888 0.97168,-0.38095 3.45797,0.0611 2.2177,-1.56825 -0.99372,-1.93136 -1.88893,-2.13197 -3.86847,-3.28188 -1.57025,-0.55065 -1.73061,0.85236 -1.81032,-0.24338 l -0.38103,-0.009 z m 32.0625,0 c -1.97473,-0.40598 -2.60058,1.40777 -3.4557,0.96228 -2.49566,0.70626 -2.89567,5.36716 -3.15661,5.52094 0.032,1.07038 -0.6568,3.77151 1.20611,2.82928 -2.61007,0.89788 1.169,5.48218 3.63168,5.62461 0.37636,0.38367 2.11531,-0.96475 1.05577,0.18789 1.51441,0.29566 5.123,-0.30342 3.55192,-0.97731 1.46296,0.34423 3.72395,-1.52064 3.68891,-3.30025 -1.45236,-0.58656 -0.17814,1.81982 -1.77404,0.15514 -1.55798,-2.07469 -2.28358,0.80101 -3.90653,1.27794 -2.05166,1.15249 -5.30418,-3.90648 -2.41806,-3.59302 1.74825,-0.0811 3.54942,0.16388 5.26395,-0.125 0.13331,-1.49854 0.47847,-4.99521 0.45566,-1.70252 -1.13506,2.01944 0.29421,1.95678 1.89145,1.82752 2.0657,-0.16849 0.24906,-4.27911 -0.30811,-5.65279 -1.8338,-2.64424 -3.3834,-2.65572 -5.7264,-3.03471 z m 15.90625,0 c -2.99954,-0.0394 -5.8706,2.14616 -6.4375,5.125 1.10375,0.3269 -1.26973,1.28143 0.25005,1.28125 -0.15526,1.16883 -0.84545,0.68419 -0.4547,2.39819 0.51689,0.61363 -0.099,3.12571 1.6735,2.32056 -1.8923,0.83826 0.93083,2.63411 1.64285,3.22378 3.07601,1.51073 7.58315,1.09455 9.43966,-2.14028 1.46364,-1.79674 0.6289,-2.68612 -1.29184,-2.6467 -2.49296,-1.35519 -1.70207,3.00347 -4.38442,2.5007 -3.39167,0.0485 -3.53175,-4.14324 -2.99312,-6.70995 0.61851,-3.37695 5.33785,-2.55733 5.88556,-0.10003 1.15046,-0.20917 2.30091,-0.41835 3.45136,-0.62752 -0.76567,-2.41605 -2.37138,-4.12578 -4.98489,-4.49745 -0.97102,-0.97107 -2.31076,1.6694 -1.79651,-0.12755 z m -38.25,0.46875 c 1.44487,0.98209 0.29145,3.47756 0.0862,0.54812 l -0.0862,-0.54812 z m 39.5,0.375 c 0.2493,0.1513 -0.15648,0.0985 0,0 z m 0.40625,0.59375 c 2.16886,1.21989 -2.17871,0.37243 0,0 z m -50.90625,0.28125 c 0.22048,0.15941 -0.31124,0.25283 0,0 z m 33.5625,1.21875 c 2.09283,-0.52208 4.34383,4.20109 1.3349,3.40625 -1.4033,0 -2.8066,0 -4.2099,0 -0.12772,-1.68065 1.04736,-3.46767 2.875,-3.40625 z m -21.8125,0.0937 c 0.15778,1.1816 -0.56865,0.41139 0,0 z m -14.6875,0.0312 c 0.23221,0.519 -0.79104,-0.0409 0,0 z m -13.90625,0.4375 c 1.0621,1.76119 -0.78485,0.6163 0,0 z m 70.8125,0.28125 c 2.07722,0.62395 -0.59459,1.47862 0,0 z m -66.3125,0.3125 c 0.42008,0.0753 -0.10794,0.48413 0,0 z m 25.375,0.0625 c 0.24526,1.26542 -0.17674,0.69575 0,0 z m 1.625,0.0312 c 0.94708,0.43479 -0.6877,1.64905 0,0 z m 31.59375,0.125 c 0.1429,0.11793 -0.28658,0.14108 0,0 z m -0.28125,0.375 c -0.14942,0.72092 1.06622,1.59584 -0.5,0.96875 0.0715,-0.39981 -0.41032,-1.18812 0.5,-0.96875 z m -67.875,0.65625 c 0.31304,0.92048 -0.77597,1.21385 0,0 z m 56.28125,1.0625 c -0.006,0.26633 -0.20824,-0.0737 0,0 z m 0.125,0.0937 c -0.4434,0.3515 -1.50231,2.43108 -1.12495,0.6875 l 0.57254,-0.32779 0.55246,-0.35971 -5e-5,0 z m -55.9375,1.1875 c 0.43726,2.36641 -1.45277,1.75059 0,0 z m -1.53125,0.78125 c -0.13649,1.10833 -0.49995,0.0556 0,0 z m 69.65625,1.1875 c -0.33803,0.98739 -1.13371,3.15683 -0.90625,0.875 0.30269,-0.29105 0.6174,-0.56972 0.90625,-0.875 z m 8.15625,0.21875 c 1.59689,1.53009 -1.56138,1.13544 0,0 z m -16.71875,0.6875 c -0.35618,1.02301 2.07076,-0.0612 0,0 z m -16.15625,0.0312 c 0.39003,1.29266 -0.71202,3.53682 -0.47098,1.34065 0.13983,-0.45293 0.31814,-0.89226 0.47098,-1.34065 z m -43.5625,0.28125 c -0.27843,2.06263 -1.59518,0.40708 0,0 z m 35.84375,1.03125 c -0.3062,1.52346 -1.86338,0.82022 0,0 z m -18.21875,0.34375 c -0.0166,0.4627 -0.56791,-0.23695 0,0 z m 18.28125,0.0937 c 0.3351,2.0027 -0.88645,2.26286 0,0 z m 16.1875,0.5 c 1.54392,1.23568 -1.67062,0.48425 0,0 z m 18.375,0.0937 c 0.84593,-0.15522 -0.34301,1.27909 0,0 z m -1.5,0.0312 c 0.69,0.41481 -1.66426,-0.12114 0,0 z m -36.59375,0.3125 c 0.0235,0.23762 -0.23762,-0.0235 0,0 z m -32.25,0.34375 c 0.46174,0.62654 1.64643,0.84668 -0.0625,0.6875 -0.15214,-5.9e-4 -0.30866,-0.77311 0.0625,-0.6875 z m 24.0625,0.21875 c 1.59275,0.67667 -2.71791,1.1925 0,0 z m 48.8125,0.0312 c 0.0732,0.27354 -0.43005,0.0155 0,0 z m -66.90625,0.0312 c 0.16719,-0.0603 -0.0395,0.0976 0,0 z m 13.25,0 c 0.44673,0.68953 -0.8252,-0.1427 0,0 z m 53.71875,0.0937 c 0.17165,0.27609 -0.46905,0.0385 0,0 z"
           id="path3086"
           inkscape:connector-curvature="0" />
      </g>
    </g>
  </g>
</svg>
