<?xml version="1.0" encoding="UTF-8" standalone="no"?>
<!-- Created with Inkscape (http://www.inkscape.org/) -->

<svg
   xmlns:dc="http://purl.org/dc/elements/1.1/"
   xmlns:cc="http://creativecommons.org/ns#"
   xmlns:rdf="http://www.w3.org/1999/02/22-rdf-syntax-ns#"
   xmlns:svg="http://www.w3.org/2000/svg"
   xmlns="http://www.w3.org/2000/svg"
   xmlns:sodipodi="http://sodipodi.sourceforge.net/DTD/sodipodi-0.dtd"
   xmlns:inkscape="http://www.inkscape.org/namespaces/inkscape"
   width="44.665966"
   height="30.537035"
   id="svg65799"
   version="1.1"
   inkscape:version="0.48.0 r9654"
   sodipodi:docname="Nouveau document 71">
  <defs
     id="defs65801" />
  <sodipodi:namedview
     id="base"
     pagecolor="#ffffff"
     bordercolor="#666666"
     borderopacity="1.0"
     inkscape:pageopacity="0.0"
     inkscape:pageshadow="2"
     inkscape:zoom="2.8"
     inkscape:cx="-2.4762338"
     inkscape:cy="-7.903252"
     inkscape:document-units="px"
     inkscape:current-layer="layer1"
     showgrid="false"
     fit-margin-top="0"
     fit-margin-left="0"
     fit-margin-right="0"
     fit-margin-bottom="0"
     inkscape:window-width="654"
     inkscape:window-height="419"
     inkscape:window-x="2577"
     inkscape:window-y="399"
     inkscape:window-maximized="0" />
  <metadata
     id="metadata65804">
    <rdf:RDF>
      <cc:Work
         rdf:about="">
        <dc:format>image/svg+xml</dc:format>
        <dc:type
           rdf:resource="http://purl.org/dc/dcmitype/StillImage" />
        <dc:title></dc:title>
      </cc:Work>
    </rdf:RDF>
  </metadata>
  <g
     inkscape:label="Calque 1"
     inkscape:groupmode="layer"
     id="layer1"
     transform="translate(-394.80987,-411.37938)">
    <path
       inkscape:connector-curvature="0"
       style="fill:#000000;display:inline"
       d="m 419.51611,441.89632 c -0.027,-0.0103 -0.10434,-0.0931 -0.17206,-0.18401 -0.0989,-0.13268 -0.149,-0.18038 -0.25443,-0.24219 -0.16145,-0.0946 -0.22774,-0.16248 -0.27003,-0.27639 -0.0481,-0.1295 -0.0432,-0.36959 0.0108,-0.52761 0.0299,-0.0876 0.0363,-0.12896 0.0209,-0.1341 -0.0391,-0.013 -0.1004,-0.0886 -0.14885,-0.18337 -0.0459,-0.0897 -0.0472,-0.10709 -0.0595,-0.73394 -0.0146,-0.74465 0.0215,-1.44541 0.102,-1.98279 0.14395,-0.96049 0.16441,-1.14196 0.16437,-1.4581 -4e-5,-0.39985 -0.044,-1.65442 -0.0675,-1.92783 -0.004,-0.0485 -0.0136,-0.16734 -0.0208,-0.26422 -0.007,-0.0969 -0.0163,-0.21051 -0.02,-0.2525 -0.007,-0.0799 -0.042,-0.51749 -0.0587,-0.73588 -0.005,-0.07 -0.0182,-0.19768 -0.0285,-0.28379 -0.0103,-0.0861 -0.0326,-0.28429 -0.0495,-0.44037 -0.0169,-0.15608 -0.0346,-0.31462 -0.0394,-0.35229 -0.005,-0.0376 -0.0224,-0.20062 -0.0392,-0.36208 -0.0168,-0.16147 -0.0345,-0.3244 -0.0393,-0.36208 -0.009,-0.0732 -0.0496,-0.4649 -0.10566,-1.02753 -0.0245,-0.24651 -0.10527,-0.75477 -0.15852,-0.99816 -0.0688,-0.31457 -0.15935,-0.62233 -0.19459,-0.66162 -0.008,-0.009 -0.0199,0.22914 -0.0271,0.52844 -0.0273,1.14647 -0.0768,2.64638 -0.12442,3.77354 -0.031,0.73286 -0.0411,2.49716 -0.0158,2.76026 0.013,0.13441 0.0461,0.53481 0.0601,0.72354 0.006,0.0861 0.029,0.24025 0.0503,0.34251 0.0214,0.10226 0.0996,0.47672 0.17388,0.83212 0.21443,1.02598 0.22022,1.12251 0.13562,2.26023 -0.0388,0.52162 -0.0415,0.53956 -0.0878,0.58135 l -0.0477,0.0431 0.0494,0.0729 c 0.0676,0.0997 0.0745,0.13827 0.0638,0.3563 -0.0154,0.30958 -0.10061,0.45694 -0.27999,0.48385 -0.12971,0.0195 -0.14702,0.0409 -0.17407,0.21526 -0.028,0.18009 -0.042,0.21807 -0.0903,0.24391 -0.0193,0.0104 -0.16142,0.0469 -0.31575,0.0812 -0.26567,0.0591 -0.30659,0.0628 -0.76988,0.0702 l -0.48929,0.008 -0.0819,-0.0704 c -0.096,-0.0825 -0.14315,-0.21316 -0.14315,-0.39632 0,-0.10309 0.0106,-0.13371 0.10107,-0.29057 0.19218,-0.33332 0.36832,-0.70014 0.34799,-0.72464 -0.0106,-0.0127 -0.0873,-0.0272 -0.1705,-0.0323 -0.2992,-0.0182 -0.51636,-0.13471 -0.53981,-0.28952 -0.005,-0.0376 -0.0243,-0.33695 -0.0412,-0.66527 -0.017,-0.32831 -0.057,-1.08134 -0.0888,-1.67339 -0.0319,-0.59205 -0.0756,-1.41554 -0.0973,-1.82997 -0.0447,-0.85601 -0.0523,-0.96522 -0.15864,-2.27034 -0.0425,-0.52208 -0.0865,-1.00208 -0.0978,-1.06666 -0.0407,-0.23435 -0.26559,-1.18871 -0.3505,-1.48747 -0.095,-0.33407 -0.24565,-1.0652 -0.45181,-2.19205 -0.052,-0.28435 -0.0499,-0.27921 -0.12207,-0.29344 -0.10035,-0.0198 -0.16668,-0.0503 -0.17902,-0.0825 -0.0126,-0.0326 0.0133,-0.27303 0.0574,-0.53414 0.0154,-0.0915 0.0463,-0.28526 0.0685,-0.43058 0.0222,-0.14532 0.0441,-0.28746 0.0487,-0.31585 0.005,-0.0344 -0.005,-0.0634 -0.0305,-0.0867 -0.0644,-0.0584 -0.20863,-0.28966 -0.41296,-0.66254 -0.22937,-0.41857 -0.22588,-0.40357 -0.28972,-1.24437 -0.10124,-1.33332 -0.13902,-1.7841 -0.15771,-1.8817 -0.0371,-0.19379 -0.0783,-0.9216 -0.0908,-1.60224 -0.0138,-0.7546 -0.0231,-0.64693 0.1681,-1.93746 0.0215,-0.14533 0.0572,-0.38753 0.0793,-0.53824 0.15138,-1.03268 0.21353,-1.3172 0.34456,-1.57763 0.10216,-0.20304 0.21982,-0.28246 0.66405,-0.44817 0.55837,-0.20829 1.49764,-0.60123 1.61643,-0.67622 0.046,-0.0291 0.10593,-0.10107 0.16497,-0.1983 0.051,-0.084 0.17169,-0.23956 0.26824,-0.34573 0.0965,-0.10619 0.18674,-0.22072 0.20043,-0.25454 0.0137,-0.0338 0.0303,-0.18695 0.0369,-0.3403 l 0.012,-0.2788 -0.078,-0.12073 c -0.0429,-0.0664 -0.0866,-0.15271 -0.0972,-0.19181 -0.0136,-0.0503 -0.0441,-0.0887 -0.10471,-0.13141 -0.10485,-0.0739 -0.18303,-0.17338 -0.19746,-0.25127 -0.0149,-0.0805 -0.0473,-0.34528 -0.061,-0.49885 -0.0326,-0.36533 -0.0466,-0.46676 -0.0745,-0.53822 -0.0594,-0.15203 -0.0335,-0.867 0.0401,-1.10582 0.0289,-0.0937 0.0607,-0.13489 0.24565,-0.31815 0.11687,-0.11578 0.27769,-0.2545 0.35735,-0.30825 0.12146,-0.082 0.15934,-0.0978 0.23447,-0.0978 0.0566,0 0.12492,-0.0179 0.18558,-0.0486 0.29422,-0.1491 0.5283,-0.20222 0.70054,-0.15898 0.0618,0.0155 0.16072,0.0339 0.21992,0.0407 0.20436,0.0239 0.43764,0.0716 0.49544,0.10154 0.0763,0.0395 0.56967,0.52198 0.62553,0.6118 0.0475,0.0764 0.0471,0.0692 0.0582,0.95226 l 0.005,0.39292 0.0574,0.083 0.0574,0.083 -0.0239,0.30463 c -0.0372,0.47454 -0.052,0.52356 -0.22835,0.75945 -0.0564,0.0753 -0.10812,0.16342 -0.11504,0.19572 -0.007,0.0323 0.001,0.13798 0.0179,0.23486 0.025,0.14438 0.0471,0.20414 0.12277,0.3313 0.10386,0.17459 0.26731,0.35979 0.42019,0.47613 0.12383,0.0942 0.76593,0.37875 1.00813,0.44672 0.0941,0.0264 0.25028,0.07 0.34717,0.097 1.06398,0.29594 1.09062,0.30522 1.20505,0.41965 0.0838,0.0838 0.0953,0.10711 0.13386,0.2715 0.10477,0.44624 0.17092,1.14039 0.27539,2.88983 0.0779,1.30378 0.0822,1.45847 0.0739,2.62264 -0.009,1.21164 -0.0126,1.27621 -0.11395,1.91804 -0.13499,0.85424 -0.27294,1.28069 -0.54295,1.67848 -0.0529,0.0779 -0.14691,0.22071 -0.20891,0.31726 l -0.11273,0.17556 0.0514,0.50946 c 0.0283,0.2802 0.0513,0.60854 0.0513,0.72964 l -1.6e-4,0.22019 -0.0577,0 c -0.0317,0 -0.10051,0.009 -0.15277,0.0204 l -0.095,0.0204 0.003,0.37595 c 0.007,0.69183 -0.0232,1.32131 -0.0798,1.68727 -0.0283,0.183 -0.0599,0.45603 -0.0702,0.60673 -0.0246,0.3595 -0.0456,0.60156 -0.11494,1.3211 -0.08,0.83025 -0.0958,1.27801 -0.11194,3.16086 -0.0184,2.15232 -0.0184,2.2415 0.001,3.51445 0.0131,0.8377 0.0116,1.09765 -0.007,1.13156 -0.0287,0.0535 -0.13844,0.10231 -0.37791,0.16782 -0.29633,0.081 -0.29868,0.11544 -0.0333,0.48666 0.22137,0.3096 0.32768,0.51224 0.34487,0.65731 0.0146,0.12326 -0.008,0.16104 -0.17343,0.28557 -0.16975,0.12805 -0.26298,0.16383 -0.51285,0.19678 -0.24038,0.0317 -0.87438,0.0361 -0.9514,0.006 z m -0.42347,-23.06319 c 0.0281,-0.12917 0.0643,-0.31412 0.0802,-0.41101 0.074,-0.44736 0.24858,-1.69628 0.23856,-1.7063 -0.003,-0.003 -0.0879,0.11947 -0.18969,0.27104 -0.10183,0.15156 -0.2057,0.29174 -0.23082,0.31151 -0.0448,0.0352 -0.0472,0.035 -0.12722,-0.0152 -0.0448,-0.0281 -0.15288,-0.11574 -0.24008,-0.19467 l -0.15853,-0.14351 -0.15259,0.16762 -0.15258,0.16763 0.12001,0.17318 c 0.066,0.0953 0.13685,0.21567 0.15743,0.26759 0.0206,0.0519 0.0919,0.2089 0.15848,0.34884 0.17758,0.37318 0.34322,0.76552 0.3826,0.90624 0.019,0.0679 0.0409,0.11629 0.0488,0.10765 0.008,-0.009 0.0373,-0.12142 0.0654,-0.25059 z m -1.61201,-0.19719 c 0,-0.11587 0.0818,-0.52204 0.16905,-0.83895 0.0387,-0.14058 0.0815,-0.3127 0.0952,-0.3825 0.0247,-0.12631 0.0246,-0.12729 -0.0327,-0.21062 -0.0317,-0.0461 -0.0668,-0.11005 -0.078,-0.14222 -0.0112,-0.0322 -0.0267,-0.0585 -0.0346,-0.0585 -0.008,0 -0.11387,0.1105 -0.23568,0.24556 -0.13562,0.15035 -0.23347,0.24325 -0.25238,0.23961 -0.017,-0.003 -0.0543,-0.0528 -0.0829,-0.11002 -0.0627,-0.12545 -0.096,-0.16434 -0.096,-0.11197 0,0.0921 0.33404,1.08827 0.46172,1.37698 0.0534,0.12086 0.0863,0.11805 0.0863,-0.007 z m 0.13301,-1.75999 c 0.0994,-0.11841 0.18619,-0.23605 0.19287,-0.26142 0.0106,-0.0401 -0.0478,-0.10609 -0.4443,-0.50288 -0.25105,-0.25121 -0.46285,-0.4528 -0.47067,-0.44796 -0.008,0.005 -0.0202,0.0442 -0.0275,0.0875 -0.009,0.0542 -0.0432,0.11353 -0.10947,0.19072 -0.1107,0.12893 -0.11086,0.0839 0.002,0.51322 0.0409,0.15609 0.0846,0.33664 0.0971,0.40123 0.0125,0.0646 0.0727,0.22175 0.13376,0.34924 l 0.11102,0.23182 0.16736,-0.1731 c 0.092,-0.0952 0.24868,-0.26998 0.34809,-0.38839 z m 1.54342,0.12721 c 0.26044,-0.37515 0.27215,-0.40373 0.30879,-0.75351 0.0442,-0.42253 0.0453,-0.41309 -0.0575,-0.53837 -0.0485,-0.0591 -0.0969,-0.1075 -0.10751,-0.1075 -0.0106,0 -0.21976,0.19003 -0.46472,0.42228 -0.24496,0.23226 -0.48038,0.45376 -0.52315,0.49221 -0.0755,0.0679 -0.0769,0.0715 -0.049,0.12384 0.0321,0.0601 0.42997,0.4568 0.56706,0.56547 0.0485,0.0384 0.10033,0.0675 0.1153,0.0648 0.0149,-0.003 0.10978,-0.1239 0.21066,-0.26922 z m 9.08811,23.59124 c -0.2131,-0.0267 -0.62304,-0.11154 -0.66239,-0.13714 -0.0252,-0.0165 -0.0637,-0.0702 -0.0856,-0.11958 -0.0359,-0.0812 -0.0374,-0.10011 -0.0153,-0.19876 0.0235,-0.10522 0.0375,-0.1224 0.39895,-0.49089 0.37102,-0.37826 0.55649,-0.60934 0.64967,-0.80948 0.0407,-0.0873 0.047,-0.13007 0.0471,-0.3186 1.7e-4,-0.15104 -0.007,-0.22374 -0.0243,-0.23719 -0.0134,-0.0106 -0.0905,-0.0211 -0.17125,-0.023 -0.0807,-0.002 -0.15267,-0.01 -0.15987,-0.0173 -0.0221,-0.023 -0.0939,-0.7517 -0.1222,-1.24011 -0.0147,-0.25478 -0.0315,-0.47082 -0.0372,-0.48008 -0.01,-0.0156 -0.0463,-0.44399 -0.12047,-1.40531 -0.0167,-0.2166 -0.0643,-0.59687 -0.10657,-0.85137 -0.042,-0.25297 -0.0862,-0.54802 -0.0982,-0.65566 -0.0432,-0.38665 -0.0667,-0.48013 -0.30709,-1.22324 -0.26447,-0.81745 -0.67138,-2.01597 -0.69315,-2.04164 -0.007,-0.009 -0.0195,0.15856 -0.0267,0.37186 -0.007,0.2133 -0.0217,0.47149 -0.0319,0.57375 -0.0103,0.10226 -0.0274,0.28722 -0.038,0.41101 -0.0106,0.12379 -0.0421,0.46287 -0.07,0.75351 -0.0279,0.29065 -0.0581,0.75744 -0.0671,1.03732 -0.0381,1.18865 -0.0598,1.9061 -0.0798,2.64466 -0.0117,0.43192 -0.0289,0.81945 -0.0383,0.86116 -0.009,0.0417 -0.0317,0.0846 -0.0497,0.0954 -0.10338,0.0618 -0.11015,0.0768 -0.1766,0.39245 -0.0361,0.17167 -0.066,0.33939 -0.0662,0.3727 -5.9e-4,0.075 -0.0388,0.11049 -0.1767,0.16424 -0.0592,0.0231 -0.15609,0.0656 -0.21529,0.0945 -0.10393,0.0507 -0.11914,0.0525 -0.44036,0.0525 -0.22979,0 -0.35779,-0.008 -0.41376,-0.0269 -0.0755,-0.0251 -0.0881,-0.0236 -0.18592,0.0216 -0.0577,0.0267 -0.18418,0.1079 -0.28106,0.18054 -0.30545,0.22905 -0.34116,0.24054 -0.97702,0.31423 -0.45305,0.0525 -0.56014,0.0469 -0.80908,-0.0422 -0.11188,-0.0401 -0.17919,-0.15213 -0.18587,-0.30949 -0.005,-0.10952 -0.003,-0.11488 0.0735,-0.18136 0.0751,-0.0657 0.65231,-0.35811 1.05214,-0.53297 0.10504,-0.0459 0.21297,-0.1008 0.23983,-0.12194 0.0269,-0.0211 0.10758,-0.12363 0.17935,-0.22777 0.0718,-0.10413 0.16193,-0.22864 0.20034,-0.27666 0.0384,-0.048 0.0675,-0.1015 0.0645,-0.11883 -0.003,-0.0173 0.0131,-0.11015 0.0357,-0.20626 0.19148,-0.81554 0.25443,-1.10445 0.28114,-1.29035 0.0398,-0.27686 0.16228,-1.26987 0.17868,-1.44832 0.0141,-0.15266 -0.035,-0.94955 -0.077,-1.2526 -0.0149,-0.10765 -0.068,-0.48636 -0.118,-0.84158 -0.05,-0.35523 -0.12613,-0.90129 -0.16925,-1.21346 -0.11618,-0.84106 -0.29432,-1.88526 -0.4274,-2.5052 l -0.11764,-0.54802 -0.0417,-0.64587 c -0.0424,-0.65757 -0.0595,-1.46475 -0.033,-1.5593 0.0134,-0.0479 0.003,-0.0603 -0.11865,-0.14923 -0.20808,-0.15134 -0.43551,-0.47924 -0.52544,-0.75752 l -0.0506,-0.15658 -0.0188,-1.19388 c -0.0275,-1.75073 0.0116,-2.64752 0.16207,-3.71866 0.15536,-1.10572 0.18743,-1.23618 0.33804,-1.37501 0.10786,-0.0994 0.23857,-0.18585 0.70481,-0.46602 0.4302,-0.25853 0.56856,-0.37236 0.80248,-0.66023 0.15323,-0.18857 0.18714,-0.26725 0.18815,-0.4365 5.8e-4,-0.11461 -0.0322,-0.19675 -0.13236,-0.33074 -0.0861,-0.11517 -0.18823,-0.3161 -0.21256,-0.41816 -0.007,-0.0284 -0.0191,-0.0603 -0.0273,-0.0711 -0.0433,-0.0566 -0.10158,-0.34414 -0.15467,-0.7633 -0.0327,-0.25835 -0.0734,-0.5578 -0.0905,-0.66545 -0.045,-0.2835 -0.0415,-0.53724 0.009,-0.69818 0.0684,-0.21597 0.28679,-0.46858 0.53349,-0.6172 0.1777,-0.10705 0.29186,-0.12793 0.75315,-0.13775 l 0.41408,-0.009 0.16329,0.0714 c 0.38774,0.16953 0.42959,0.19392 0.54557,0.31789 0.25458,0.27213 0.30724,0.39918 0.33371,0.8051 0.0136,0.20845 0.0261,0.28825 0.0486,0.31077 0.0248,0.0248 0.0289,0.0715 0.0228,0.25777 -0.009,0.27616 -0.0517,0.43882 -0.18955,0.72228 l -0.0988,0.20323 0,0.20324 0,0.20325 0.2104,0.22154 c 0.11572,0.12185 0.26776,0.29149 0.33788,0.37697 l 0.12749,0.15542 0.52352,0.16023 c 0.8281,0.25345 0.93309,0.28994 1.17444,0.40821 0.19605,0.0961 0.23826,0.12545 0.30498,0.21233 0.0426,0.0555 0.0916,0.13165 0.10883,0.16932 0.0453,0.0987 0.24015,1.10911 0.28505,1.47768 0.1137,0.93326 0.20056,1.77264 0.2076,2.00611 0.004,0.14533 0.0174,0.32825 0.0289,0.40651 0.022,0.14974 0.0283,0.46916 0.0104,0.52781 -0.005,0.019 -0.0287,0.17421 -0.0509,0.34498 -0.0222,0.17077 -0.0545,0.33776 -0.0718,0.37109 -0.0725,0.14018 -0.75079,1.14499 -0.88753,1.31475 l -0.0631,0.0783 0.0117,0.19572 c 0.006,0.10765 0.0611,0.5348 0.12151,0.94923 0.0958,0.65696 0.11213,0.81373 0.12764,1.22325 0.01,0.25835 0.0382,0.63622 0.0631,0.8397 l 0.0453,0.36997 -0.0747,0.0294 c -0.0869,0.0341 -0.0988,0.066 -0.13271,0.35376 -0.0407,0.34544 -0.0138,0.67016 0.0779,0.94247 0.0201,0.0596 0.0495,0.18729 0.0654,0.28379 0.0922,0.55865 0.29748,1.75367 0.35463,2.06414 0.0367,0.19915 0.0977,0.55144 0.13554,0.78288 0.0379,0.23143 0.095,0.50886 0.12692,0.61651 0.1418,0.47822 0.1393,0.45796 0.13881,1.12864 -1.9e-4,0.3373 -0.009,1.01399 -0.0187,1.50378 -0.0101,0.48978 -0.0195,1.35291 -0.0209,1.91804 l -0.003,1.02752 0.0606,0.18594 c 0.047,0.14449 0.0656,0.24919 0.0832,0.46972 0.0125,0.15609 0.0164,0.32491 0.009,0.37515 -0.0178,0.11732 -0.10014,0.23045 -0.23156,0.31821 -0.0568,0.038 -0.12276,0.0833 -0.1465,0.10065 -0.0237,0.0174 -0.079,0.0335 -0.12271,0.0357 -0.0745,0.004 -0.0875,0.0141 -0.2042,0.16174 -0.1505,0.19035 -0.30696,0.34495 -0.4128,0.40794 -0.0867,0.0516 -0.35224,0.14185 -0.6345,0.21564 -0.18379,0.0481 -0.41961,0.0719 -0.5496,0.0557 z m -17.02754,-0.84112 c -0.0269,-0.005 -0.17663,-0.0263 -0.33272,-0.0477 -0.25304,-0.0348 -0.30159,-0.0479 -0.44811,-0.12078 -0.0904,-0.045 -0.25332,-0.14694 -0.36208,-0.22657 -0.24927,-0.18249 -0.24664,-0.1812 -0.54253,-0.26583 -0.29835,-0.0853 -0.44021,-0.14794 -0.51721,-0.22825 -0.0549,-0.0573 -0.0583,-0.0704 -0.0646,-0.25348 -0.007,-0.20647 0.0245,-0.36452 0.0965,-0.48196 0.0206,-0.0336 0.0374,-0.0665 0.0374,-0.0732 0,-0.007 -0.0358,-0.0179 -0.0796,-0.0249 -0.11956,-0.0191 -0.13275,-0.0411 -0.11187,-0.18673 0.0226,-0.15748 0.005,-0.36023 -0.0476,-0.53344 -0.0392,-0.13003 -0.0403,-0.16243 -0.0276,-0.80245 0.01,-0.48101 0.005,-0.86065 -0.0171,-1.36175 -0.0295,-0.67523 -0.0454,-3.28543 -0.0203,-3.32604 0.006,-0.01 10e-4,-0.39042 -0.0102,-0.84609 -0.0162,-0.63615 -0.0322,-0.92886 -0.0691,-1.26084 -0.0264,-0.2378 -0.0526,-0.47892 -0.0581,-0.53584 -0.005,-0.0569 -0.0494,-0.2631 -0.0974,-0.45817 -0.048,-0.19507 -0.0873,-0.36957 -0.0873,-0.38777 0,-0.0182 -0.008,-0.038 -0.0177,-0.044 -0.01,-0.006 -0.0136,0.0212 -0.008,0.0625 0.005,0.0404 -0.009,0.17468 -0.032,0.29847 -0.0848,0.46032 -0.0991,0.54115 -0.11792,0.66544 -0.0106,0.07 -0.0274,0.17566 -0.0374,0.23487 -0.0245,0.14604 -0.20773,0.85484 -0.38689,1.49725 -0.0811,0.29064 -0.16016,0.57688 -0.17579,0.63608 -0.0156,0.0592 -0.12414,0.45994 -0.24113,0.89053 -0.28986,1.0669 -0.31473,1.16123 -0.33285,1.26238 -0.10665,0.5955 -0.16155,0.95755 -0.18777,1.23817 -0.0174,0.18555 -0.0429,0.44746 -0.0568,0.58201 -0.0139,0.13456 -0.0263,0.48245 -0.0276,0.77309 -10e-4,0.29064 -0.008,0.77505 -0.0151,1.07646 -0.0117,0.50235 -0.0158,0.55014 -0.0489,0.57358 -0.0322,0.0227 -0.0362,0.0551 -0.0362,0.28997 0,0.16209 -0.009,0.28094 -0.0226,0.30715 -0.0124,0.0235 -0.0589,0.078 -0.10333,0.12104 -0.0444,0.0431 -0.14489,0.15041 -0.22329,0.23858 l -0.14256,0.16028 -0.10334,-0.003 c -0.10065,-0.003 -0.10655,-6.8e-4 -0.22618,0.10996 -0.19168,0.17737 -0.38013,0.3013 -0.49594,0.32614 -0.11328,0.0243 -0.3638,0.0133 -0.66932,-0.0294 -0.10765,-0.015 -0.24594,-0.0318 -0.30733,-0.0372 -0.18044,-0.0158 -0.23663,-0.0489 -0.28847,-0.16936 -0.0352,-0.0818 -0.0426,-0.12672 -0.0343,-0.20732 0.0126,-0.12219 0.0457,-0.18625 0.18953,-0.36666 0.0593,-0.0744 0.14748,-0.18553 0.19592,-0.24693 0.0484,-0.0614 0.16154,-0.19869 0.25133,-0.30508 0.15856,-0.18787 0.28959,-0.40206 0.26766,-0.43754 -0.006,-0.01 -0.0595,-0.0284 -0.119,-0.0417 -0.0595,-0.0133 -0.11109,-0.0294 -0.1146,-0.0356 -0.003,-0.006 0.005,-0.12146 0.0195,-0.25601 0.0333,-0.3149 0.0411,-1.8522 0.0119,-2.35841 -0.0118,-0.20452 -0.0271,-0.68893 -0.0341,-1.07646 -0.0133,-0.73997 -0.0158,-0.69175 0.0892,-1.72232 0.0842,-0.82686 0.10743,-1.20451 0.12632,-2.05505 0.0109,-0.49039 0.04,-1.18003 0.0605,-1.43317 l 0.01,-0.12185 -0.0645,-0.0269 c -0.0355,-0.0148 -0.13792,-0.0832 -0.2276,-0.15184 -0.19276,-0.14762 -0.26361,-0.2646 -0.2979,-0.49188 -0.0237,-0.15706 -0.0273,-0.62994 -0.007,-0.90784 l 0.013,-0.1782 -0.0801,-0.0128 c -0.0441,-0.007 -0.11107,-0.0276 -0.1489,-0.0456 l -0.0688,-0.0328 -3e-5,-1.03858 c -1e-5,-0.57122 -0.005,-1.55821 -0.0126,-2.19332 -0.0121,-1.11792 0.007,-2.17557 0.0517,-2.83793 0.0102,-0.1507 0.0233,-0.38409 0.0294,-0.51865 0.0228,-0.51064 0.0528,-0.88328 0.0998,-1.24281 0.0267,-0.20453 0.066,-0.51278 0.0871,-0.68502 0.0597,-0.48639 0.0947,-0.71272 0.11658,-0.75362 0.0387,-0.0724 0.31235,-0.2335 1.09596,-0.64526 0.5986,-0.31453 0.77027,-0.41166 1.13517,-0.64226 0.51371,-0.32463 0.56127,-0.35607 0.5921,-0.39145 0.0164,-0.0188 0.0405,-0.11762 0.0549,-0.22519 0.0213,-0.15861 0.0213,-0.20424 -1.6e-4,-0.26422 -0.0363,-0.10204 -0.0954,-0.18014 -0.13614,-0.18014 -0.0193,0 -0.0767,-0.0541 -0.12974,-0.12232 -0.0774,-0.0996 -0.10539,-0.15861 -0.15078,-0.31805 -0.0732,-0.25728 -0.0937,-0.53396 -0.0451,-0.60823 0.0399,-0.0609 0.0422,-0.0828 0.067,-0.62479 0.0242,-0.52972 0.056,-0.64315 0.24485,-0.87505 0.10104,-0.12404 0.30423,-0.28446 0.38102,-0.30083 0.0284,-0.006 0.13533,-0.0422 0.23759,-0.0805 l 0.18594,-0.0695 0.32293,0.0113 c 0.58229,0.0204 0.77093,0.093 1.09771,0.4229 0.27063,0.27319 0.31971,0.3676 0.32061,0.61672 3.9e-4,0.0974 -0.0112,0.29632 -0.0256,0.44209 -0.0259,0.26224 -0.0258,0.26583 0.0175,0.33915 0.0418,0.0707 0.0431,0.0868 0.0301,0.35147 -0.0214,0.43557 -0.0922,0.67859 -0.19764,0.67859 -0.0524,0 -0.0723,0.0481 -0.10518,0.25443 -0.0382,0.24019 -0.0477,0.46024 -0.023,0.53499 0.0252,0.0763 0.16631,0.2147 0.4023,0.39455 0.12544,0.0956 0.19893,0.12757 0.87094,0.37883 0.40367,0.15093 0.90553,0.3526 1.11523,0.44817 0.32114,0.14636 0.38699,0.18355 0.4175,0.2358 0.0469,0.0803 0.29951,0.95956 0.31602,1.10002 0.0125,0.10616 0.051,0.38822 0.0896,0.65566 0.0108,0.0753 0.024,0.17223 0.0291,0.21529 0.005,0.0431 0.0227,0.17076 0.0389,0.28379 0.0163,0.11303 0.0383,0.26716 0.0488,0.34251 0.0524,0.37278 0.11,1.52997 0.14673,2.94557 0.0163,0.62973 0.0385,1.45321 0.0492,1.82997 0.0108,0.37675 0.0253,1.01276 0.0323,1.41335 l 0.0127,0.72833 -0.057,0.022 c -0.0313,0.0121 -0.10817,0.0185 -0.17073,0.0141 -0.0892,-0.006 -0.11715,-10e-4 -0.12945,0.0228 -0.009,0.0169 -0.0215,0.13015 -0.0285,0.25172 -0.009,0.14914 -0.0257,0.25416 -0.0525,0.32294 -0.0217,0.056 -0.0561,0.18998 -0.0763,0.29762 -0.0674,0.35893 -0.0734,0.37341 -0.2369,0.57573 -0.20629,0.25526 -0.26522,0.30805 -0.53692,0.48099 -0.12917,0.0822 -0.2417,0.15621 -0.25006,0.16441 -0.008,0.008 -0.005,0.26333 0.008,0.56697 0.029,0.67787 -0.005,2.50176 -0.0529,2.87663 -0.0162,0.12554 -0.0429,0.33393 -0.0594,0.46311 -0.0459,0.36014 -0.0824,0.60555 -0.12509,0.84159 -0.0215,0.11841 -0.0525,0.29896 -0.0689,0.40122 -0.0164,0.10227 -0.0429,0.2564 -0.0588,0.34251 -0.0159,0.0861 -0.0374,0.23584 -0.0478,0.33272 -0.0206,0.19241 -0.0647,0.55794 -0.10971,0.91009 -0.0335,0.26242 -0.0637,0.81978 -0.0831,1.53438 l -0.0137,0.50685 -0.093,0.0271 c -0.10255,0.0298 -0.10259,0.0299 -0.0702,0.0908 0.10106,0.19002 0.4828,0.52624 0.99402,0.8755 0.27115,0.18524 0.44266,0.3215 0.49667,0.39457 0.0238,0.0322 0.0427,0.0955 0.0481,0.16117 0.008,0.10125 0.005,0.11181 -0.0525,0.1656 -0.0749,0.07 -0.33342,0.17151 -0.50897,0.19993 -0.14424,0.0233 -0.47466,0.0383 -0.54992,0.0248 z m 26.75476,-0.8308 c -0.16767,-0.0533 -0.20569,-0.0584 -0.38715,-0.0517 -0.12633,0.005 -0.21144,-5.7e-4 -0.22865,-0.0139 -0.0151,-0.0117 -0.0329,-0.0697 -0.0397,-0.12892 -0.0242,-0.21246 -0.0483,-0.3398 -0.0682,-0.35958 -0.0116,-0.0116 -0.0201,-0.12211 -0.0201,-0.26085 l 0,-0.24073 -0.0681,0 c -0.10862,0 -0.13006,-0.0526 -0.14142,-0.34711 -0.008,-0.20497 -0.0202,-0.28323 -0.0681,-0.43577 -0.0693,-0.22047 -0.0734,-0.31176 -0.019,-0.43141 0.0222,-0.0489 0.0459,-0.12376 0.0527,-0.16636 0.012,-0.0755 0.009,-0.0814 -0.13783,-0.23403 l -0.1501,-0.15658 0.0119,-0.32293 c 0.007,-0.17762 0.0197,-0.37666 0.0291,-0.44231 0.0115,-0.0799 0.01,-0.165 -0.006,-0.25741 -0.0194,-0.11442 -0.0359,-0.15179 -0.096,-0.21831 -0.0399,-0.0442 -0.0731,-0.0824 -0.0739,-0.0851 -0.001,-0.005 -0.0158,-0.1333 -0.0741,-0.66532 -0.0221,-0.20179 -0.045,-0.39555 -0.051,-0.43057 -0.006,-0.035 -0.0192,-0.1726 -0.0294,-0.30572 -0.0177,-0.23139 -0.0219,-0.24776 -0.0952,-0.37187 -0.10522,-0.17817 -0.0931,-0.12055 -0.14883,-0.7072 -0.016,-0.16807 -0.068,-0.49539 -0.11666,-0.73395 -0.0976,-0.47832 -0.1219,-0.63209 -0.21664,-1.37003 -0.0508,-0.39575 -0.085,-0.58283 -0.15399,-0.84159 -0.0979,-0.36722 -0.30653,-1.23966 -0.30701,-1.2835 -5.8e-4,-0.0526 -0.0335,-0.0859 -0.0618,-0.0625 -0.0322,0.0267 -0.0115,0.83825 0.0339,1.32648 0.0831,0.89303 0.10527,1.17101 0.12438,1.55596 0.0357,0.71896 0.0617,1.10269 0.0802,1.1841 0.01,0.0431 0.0613,0.23682 0.11444,0.43058 0.0716,0.2612 0.10456,0.42656 0.12739,0.63952 0.0169,0.15798 0.0627,0.49706 0.10184,0.75351 0.0682,0.44716 0.0707,0.48156 0.0606,0.83816 l -0.0105,0.37187 0.079,0.24465 0.079,0.24465 -0.008,0.30336 c -0.007,0.26153 -0.0139,0.31444 -0.0499,0.38365 -0.023,0.0442 -0.0383,0.097 -0.0339,0.11743 0.004,0.0204 0.022,0.0973 0.0394,0.17078 0.0277,0.1172 0.0291,0.19062 0.011,0.59694 -0.0113,0.25482 -0.0149,0.48467 -0.008,0.51078 0.0102,0.0383 -6.9e-4,0.0591 -0.0575,0.10764 l -0.0702,0.0602 -0.0294,0.37557 c -0.0227,0.29004 -0.0385,0.39634 -0.0697,0.46681 l -0.0404,0.0912 -0.25491,-0.007 c -0.22572,-0.006 -0.2561,-0.003 -0.26538,0.0262 -0.005,0.0182 -0.0412,0.06 -0.0787,0.093 l -0.0682,0.0599 -0.51488,0 c -0.28318,0 -0.63615,-0.005 -0.78438,-0.013 l -0.26952,-0.013 -0.0374,-0.0605 c -0.0312,-0.0504 -0.0353,-0.0816 -0.0246,-0.18769 0.0197,-0.19568 0.0932,-0.32214 0.2759,-0.47499 0.17039,-0.14255 0.43837,-0.41308 0.47169,-0.47619 0.0135,-0.0256 0.0173,-0.0934 0.0101,-0.1796 -0.0102,-0.12132 -0.0169,-0.13985 -0.0544,-0.14927 -0.12828,-0.0322 -0.15858,-0.42624 -0.0764,-0.99373 l 0.0302,-0.20896 -0.0777,-0.13355 c -0.0427,-0.0735 -0.11991,-0.25246 -0.17158,-0.39778 l -0.0939,-0.26422 0.005,-0.32387 0.005,-0.32386 -0.10124,-0.35137 c -0.0964,-0.33456 -0.10135,-0.36306 -0.10358,-0.59601 -0.002,-0.18376 0.006,-0.2711 0.0317,-0.35095 0.0568,-0.17753 0.0467,-0.25646 -0.0523,-0.40769 l -0.0864,-0.13188 -0.0512,-0.37187 c -0.0281,-0.20452 -0.0686,-0.49516 -0.0899,-0.64587 -0.0213,-0.1507 -0.0562,-0.43254 -0.0773,-0.6263 -0.0212,-0.19376 -0.061,-0.4708 -0.0884,-0.61565 -0.0712,-0.3758 -0.2426,-1.07481 -0.28335,-1.1556 -0.019,-0.0376 -0.0763,-0.26667 -0.12726,-0.50887 -0.0881,-0.41846 -0.18411,-0.84294 -0.2269,-1.00306 -0.016,-0.0597 -0.0286,-0.0734 -0.0679,-0.0734 -0.0265,0 -0.0649,0.0198 -0.0853,0.044 -0.0204,0.0242 -0.0577,0.0686 -0.0831,0.0987 -0.0368,0.0437 -0.0649,0.0557 -0.13981,0.0599 -0.0715,0.004 -0.10638,0.0179 -0.1468,0.0582 -0.17231,0.17212 -0.21716,0.1977 -0.36082,0.20582 -0.0906,0.005 -0.17907,-0.003 -0.26202,-0.0262 -0.11452,-0.031 -0.13717,-0.0467 -0.26513,-0.18337 -0.22104,-0.23617 -0.21197,-0.20896 -0.21206,-0.63563 -6e-5,-0.34454 -0.003,-0.37087 -0.0392,-0.40123 -0.0385,-0.032 -0.0391,-0.0606 -0.0437,-1.92118 -0.005,-2.14463 -6.9e-4,-2.24973 0.16334,-3.83609 0.0217,-0.20991 0.056,-0.59302 0.0762,-0.85137 0.0202,-0.25836 0.0498,-0.59743 0.0659,-0.75352 0.0161,-0.15608 0.0343,-0.34985 0.0404,-0.43059 0.0726,-0.95533 0.091,-1.06875 0.19763,-1.21536 0.0803,-0.11043 0.49728,-0.48196 0.66947,-0.59651 0.0887,-0.059 0.30472,-0.19362 0.48,-0.29913 0.47692,-0.28708 0.59751,-0.37062 0.75237,-0.52122 l 0.14107,-0.1372 -0.0166,-0.21343 -0.0166,-0.21343 -0.0979,-0.0899 c -0.11961,-0.10991 -0.1748,-0.20124 -0.1909,-0.31591 -0.0144,-0.10274 -0.0327,-0.15567 -0.12035,-0.3485 -0.1277,-0.28099 -0.16439,-0.46034 -0.18208,-0.89029 -0.0233,-0.56386 0.0144,-0.74381 0.20427,-0.97769 0.0455,-0.056 0.0884,-0.12391 0.0953,-0.15082 0.0233,-0.0909 0.0864,-0.16905 0.26759,-0.33147 0.21395,-0.19183 0.31455,-0.24072 0.58323,-0.28344 0.18152,-0.0289 0.22441,-0.029 0.47852,-0.002 0.37753,0.0405 0.45766,0.0661 0.56762,0.18132 0.0488,0.0511 0.11174,0.10874 0.14002,0.12817 0.0282,0.0194 0.13218,0.14272 0.23091,0.27401 0.0987,0.13128 0.18676,0.24363 0.1956,0.24968 0.0419,0.0287 0.11379,0.14832 0.11379,0.1895 0,0.0254 0.0146,0.0743 0.0325,0.10873 0.0179,0.0345 0.0534,0.16752 0.0789,0.2957 0.045,0.22604 0.0455,0.2377 0.0151,0.3865 -0.0375,0.1838 -0.1482,0.51957 -0.19472,0.59057 -0.0235,0.0358 -0.0366,0.11037 -0.0444,0.25106 -0.0108,0.19673 -0.0123,0.20148 -0.0829,0.27956 -0.11286,0.12481 -0.13737,0.17046 -0.13737,0.25586 0,0.0682 0.012,0.0911 0.0832,0.15928 0.24409,0.23368 0.39889,0.30893 1.16781,0.56767 0.72209,0.24299 1.49185,0.52781 1.57255,0.58186 0.11337,0.0759 0.18251,0.20496 0.21819,0.40719 0.0754,0.42742 0.1247,0.60222 0.39424,1.39835 0.4301,1.27041 0.55046,1.65439 0.57447,1.83265 0.0119,0.0885 0.0394,0.40318 0.0609,0.69921 0.0216,0.29602 0.0439,0.56912 0.0497,0.60688 0.0172,0.11276 -0.0282,1.02267 -0.0684,1.36987 -0.0206,0.17762 -0.0516,0.45945 -0.0691,0.62631 -0.0791,0.75571 -0.26493,2.12042 -0.29247,2.14795 -0.006,0.006 -0.0308,0.0212 -0.0552,0.0339 -0.0244,0.0127 -0.0426,0.0322 -0.0404,0.0433 0.008,0.0402 -0.0344,0.38931 -0.0547,0.45135 -0.0141,0.0431 -0.0481,0.0797 -0.10533,0.11319 -0.0877,0.0513 -0.26476,0.22702 -0.26476,0.2626 0,0.0112 -0.0305,0.0542 -0.0679,0.0955 -0.0475,0.0526 -0.12099,0.0979 -0.24464,0.15086 l -0.17677,0.0757 6e-5,0.3434 c 1.6e-4,1.07536 0.12074,2.66321 0.27438,3.61265 0.0939,0.58042 0.0998,0.60555 0.1739,0.74039 0.071,0.12939 0.19555,0.50267 0.29396,0.88133 0.0776,0.29857 0.10373,0.75915 0.10787,1.90046 0.003,0.89322 0.009,1.09294 0.0383,1.28976 0.0189,0.12809 0.0496,0.43982 0.0682,0.69274 l 0.0337,0.45985 -0.0842,0.0372 c -0.0787,0.0348 -0.0842,0.0422 -0.0842,0.11456 0,0.0714 0.0138,0.0911 0.18105,0.25841 0.14695,0.147 0.20233,0.22014 0.29412,0.38852 0.11075,0.20315 0.1662,0.3895 0.14025,0.47126 -0.0165,0.052 -0.13741,0.11243 -0.32994,0.16497 -0.15486,0.0422 -0.22966,0.0496 -0.57905,0.0571 l -0.40123,0.009 -0.18593,-0.0591 z m -37.7933,-0.0373 c 0,-0.014 -0.0189,-0.0419 -0.0422,-0.062 -0.0304,-0.0264 -0.0341,-0.0366 -0.0131,-0.0366 0.0326,0 0.0885,0.0907 0.0683,0.11089 -0.007,0.007 -0.0131,10e-4 -0.0131,-0.0123 z m 3.04469,-0.0455 c 0.007,-0.0193 0.0183,-0.0302 0.0243,-0.0241 0.006,0.006 10e-6,0.0218 -0.0134,0.0351 -0.0193,0.0192 -0.0216,0.0169 -0.011,-0.011 z m -4.86487,-0.0127 c 0,-0.0114 0.009,-0.0207 0.0196,-0.0207 0.0108,0 0.0195,0.004 0.0195,0.009 0,0.005 -0.009,0.0141 -0.0195,0.0207 -0.0108,0.007 -0.0196,0.003 -0.0196,-0.009 z m 3.41855,0.005 c -0.007,-0.007 -0.013,-0.17011 -0.013,-0.36208 0,-0.31518 0.003,-0.35259 0.0367,-0.38573 0.0202,-0.0201 0.0488,-0.0409 0.0636,-0.0459 0.0185,-0.006 6.8e-4,-0.0353 -0.0563,-0.0928 -0.08,-0.0804 -0.0832,-0.0883 -0.0832,-0.20545 0,-0.067 -0.005,-0.22891 -0.0128,-0.35978 l -0.0128,-0.23793 -0.0726,0 -0.0726,0 -0.14921,-0.39791 c -0.14476,-0.38605 -0.21728,-0.65849 -0.23673,-0.88945 -0.1051,-1.24745 -0.1518,-3.44606 -0.0928,-4.36892 0.06,-0.93844 0.0597,-0.89724 0.009,-1.02752 -0.31569,-0.80887 -0.43128,-1.09012 -0.72398,-1.76147 -0.3396,-0.77895 -0.40969,-0.91903 -0.50422,-1.00784 -0.0919,-0.0863 -0.0967,-0.0513 -0.0688,0.50297 0.034,0.6752 0.0158,3.15335 -0.0276,3.76359 -0.0267,0.37537 -0.0268,0.47996 -6.9e-4,0.96881 0.016,0.30141 0.0333,0.58156 0.0383,0.62257 0.005,0.041 0.023,0.23917 0.0398,0.44036 0.0312,0.3724 0.0405,0.42246 0.15615,0.83554 0.16391,0.58557 0.3418,1.32377 0.35387,1.46844 0.014,0.16827 -0.006,0.37094 -0.0737,0.72976 l -0.0415,0.22145 -0.11859,0.1157 -0.11861,0.11569 -0.008,0.25934 c -0.005,0.17366 -0.0169,0.27277 -0.0347,0.3 -0.0186,0.0283 -0.0216,0.0584 -0.01,0.0989 0.009,0.032 0.0184,0.15047 0.0205,0.26316 0.003,0.16689 0.0104,0.21218 0.0393,0.24406 0.0195,0.0215 0.0456,0.0588 0.058,0.0828 0.0215,0.0417 0.0197,0.0431 -0.0416,0.0312 -0.0352,-0.007 -0.0706,-0.0221 -0.0785,-0.0339 -0.009,-0.0131 -0.0145,-0.008 -0.0147,0.0133 -1.9e-4,0.0307 -0.0144,0.0334 -0.12262,0.0233 -0.0673,-0.006 -0.24563,-0.0106 -0.39633,-0.01 -0.15071,6.9e-4 -0.29162,10e-4 -0.31315,0.002 -0.40854,0.002 -0.51701,-0.002 -0.52811,-0.0201 -0.0199,-0.0322 -0.0491,-0.003 -0.035,0.0344 0.0109,0.0291 0.008,0.0301 -0.0196,0.007 -0.0212,-0.0172 -0.0534,-0.0215 -0.0942,-0.0125 -0.0375,0.008 -0.0575,0.006 -0.0505,-0.005 0.007,-0.0108 -0.0727,-0.0277 -0.18837,-0.0403 -0.16561,-0.018 -0.2057,-0.0289 -0.23409,-0.064 -0.0189,-0.0232 -0.0343,-0.0584 -0.0343,-0.078 0,-0.0196 -0.0282,-0.0811 -0.0627,-0.13654 -0.0559,-0.0901 -0.0628,-0.11696 -0.0636,-0.25084 l -6.9e-4,-0.14997 0.11658,-0.14679 c 0.0641,-0.0807 0.1675,-0.20095 0.22971,-0.26715 0.13061,-0.13896 0.14077,-0.16096 0.18128,-0.39255 0.0396,-0.22597 0.0381,-0.32014 -0.01,-0.63408 -0.0601,-0.39567 -0.0852,-0.4689 -0.20682,-0.60523 -0.0573,-0.0642 -0.11451,-0.13608 -0.12716,-0.15971 -0.0348,-0.0649 -0.0587,-0.64365 -0.0525,-1.2685 0.005,-0.53177 -0.0182,-0.88889 -0.092,-1.40035 -0.005,-0.0328 -0.0267,-0.2486 -0.0489,-0.47951 -0.0222,-0.23091 -0.0447,-0.44626 -0.0501,-0.47855 -0.005,-0.0323 -0.0178,-0.19083 -0.0278,-0.3523 -0.0117,-0.19056 -0.0349,-0.36225 -0.0661,-0.4893 -0.0644,-0.26214 -0.22896,-0.87581 -0.23936,-0.89265 -0.005,-0.007 -0.12425,-0.4437 -0.26595,-0.96957 l -0.25765,-0.95612 -0.003,-0.37188 -0.003,-0.37186 -0.26612,-0.0126 c -0.14638,-0.007 -0.27454,-0.0177 -0.28482,-0.0241 -0.0103,-0.006 -0.10128,-0.0242 -0.20224,-0.0396 -0.19764,-0.0302 -0.34544,-0.0859 -0.41055,-0.15473 -0.0224,-0.0236 -0.11017,-0.14656 -0.19501,-0.27307 -0.12685,-0.18915 -0.16524,-0.26536 -0.21606,-0.42894 -0.0554,-0.17825 -0.0607,-0.21688 -0.0519,-0.37182 l 0.01,-0.17289 -0.0844,0 -0.0844,0 -0.0108,-0.0832 c -0.006,-0.0457 -0.0244,-0.24171 -0.0411,-0.43547 -0.0167,-0.19376 -0.0339,-0.37871 -0.0383,-0.41101 -0.004,-0.0323 -0.0223,-0.19082 -0.0397,-0.35229 -0.0174,-0.16147 -0.0344,-0.3156 -0.0376,-0.34251 -0.0257,-0.21164 -0.0334,-0.31088 -0.0507,-0.65566 -0.0108,-0.21528 -0.025,-0.47223 -0.0316,-0.57097 -0.0167,-0.24881 -0.0196,-1.07775 -0.004,-1.16114 0.007,-0.0376 0.0273,-0.19621 0.0452,-0.35229 0.0179,-0.15609 0.0363,-0.31022 0.0409,-0.34251 0.0441,-0.30849 0.0866,-1.46868 0.087,-2.37463 1.6e-4,-0.37818 0.0291,-0.63224 0.15526,-1.3636 0.0566,-0.3282 0.0584,-0.33353 0.12646,-0.39278 0.0975,-0.0848 0.38486,-0.23988 0.7166,-0.3867 0.8031,-0.35543 1.70897,-0.80898 1.79665,-0.89953 0.0624,-0.0644 0.0647,-0.0725 0.0683,-0.24091 0.003,-0.16201 -6.9e-4,-0.18283 -0.0597,-0.29605 -0.0764,-0.1469 -0.18078,-0.42727 -0.18078,-0.48577 0,-0.0941 -0.0395,-0.16071 -0.10274,-0.17336 -0.0337,-0.007 -0.0885,-0.0419 -0.12166,-0.0781 -0.079,-0.0863 -0.14823,-0.36379 -0.14778,-0.59274 3.9e-4,-0.14429 0.005,-0.16359 0.0461,-0.19607 0.0428,-0.0337 0.0467,-0.0541 0.0596,-0.31429 0.029,-0.586 0.067,-0.75697 0.21937,-0.9861 0.15688,-0.23599 0.19197,-0.26646 0.44754,-0.38869 0.3779,-0.18074 0.38997,-0.18394 0.64258,-0.17007 0.52887,0.029 0.92704,0.16978 1.17748,0.41626 0.11431,0.11249 0.17169,0.21965 0.26347,0.49201 0.0599,0.17783 0.0607,0.18568 0.0577,0.53988 -0.003,0.35881 -0.003,0.35957 0.0488,0.43571 0.0584,0.0859 0.0634,0.15023 0.0326,0.41825 -0.0173,0.15097 -0.027,0.17671 -0.11239,0.30042 -0.14243,0.20633 -0.16311,0.25444 -0.18025,0.41932 -0.009,0.0838 -0.0312,0.20436 -0.0499,0.26783 -0.0518,0.17566 -0.0342,0.28017 0.074,0.43857 0.16353,0.23933 0.23234,0.27868 0.65965,0.3772 0.13456,0.031 0.64979,0.16603 1.14496,0.30003 0.84353,0.22825 0.90339,0.24733 0.94923,0.30262 0.0622,0.075 0.22358,0.44428 0.34326,0.78546 0.0875,0.24957 0.0941,0.28267 0.11852,0.59694 0.0243,0.31245 0.047,0.46489 0.14416,0.96881 0.0436,0.22604 0.17038,0.97545 0.23507,1.3896 0.0227,0.14532 0.0636,0.38028 0.0908,0.52213 0.0489,0.25443 0.0494,0.26842 0.0419,1.03731 l -0.008,0.7794 -0.18947,1.1129 c -0.10422,0.6121 -0.18948,1.11588 -0.18948,1.11951 0,0.003 -0.0496,0.009 -0.11017,0.0125 l -0.11016,0.006 1.6e-4,0.10764 c 8e-5,0.0592 0.006,0.22655 0.0143,0.37187 0.0138,0.25973 -0.0124,0.572 -0.0691,0.82202 -0.0207,0.0912 0.0163,0.33385 0.25349,1.66361 0.0432,0.2422 0.0922,0.51963 0.10895,0.61651 0.0167,0.0969 0.0436,0.2466 0.0597,0.33272 0.0291,0.15536 0.052,0.35165 0.12691,1.08624 0.0214,0.20991 0.0488,0.45651 0.0608,0.54801 0.0328,0.24872 0.0485,4.64133 0.0175,4.9062 -0.016,0.13744 -0.047,0.26451 -0.0998,0.40998 -0.0562,0.15467 -0.0765,0.24121 -0.0765,0.32498 0,0.0628 -0.0234,0.20739 -0.0519,0.32132 -0.0492,0.19617 -0.0553,0.20856 -0.1155,0.23372 -0.0602,0.0252 -0.0627,0.0303 -0.0478,0.0965 0.009,0.0385 0.0392,0.11792 0.0679,0.17655 0.0492,0.10061 0.0977,0.15093 0.40745,0.42328 0.0962,0.0846 0.17041,0.28085 0.17041,0.45092 0,0.1172 -0.002,0.12135 -0.0902,0.20245 -0.0602,0.0553 -0.11488,0.0868 -0.1644,0.0947 -0.15216,0.0243 -0.28113,0.0889 -0.33874,0.16967 -0.0303,0.0424 -0.0704,0.0772 -0.0891,0.0772 -0.0186,0 -0.0445,0.0106 -0.0575,0.0235 -0.0182,0.0182 -0.0234,0.0161 -0.0234,-0.01 0,-0.0389 -0.0217,-0.0429 -0.0548,-0.01 -0.0177,0.0177 -0.0235,0.0178 -0.0235,5.8e-4 0,-0.0168 -0.014,-0.0177 -0.0516,-0.003 -0.0284,0.0108 -0.0563,0.0149 -0.062,0.009 -0.005,-0.005 10e-4,-0.0104 0.0158,-0.0104 0.0143,0 0.0215,-0.005 0.0158,-0.0104 -0.005,-0.005 -0.0336,-10e-4 -0.062,0.009 -0.0384,0.0146 -0.0517,0.0134 -0.052,-0.004 -1.6e-4,-0.0154 -0.007,-0.0134 -0.0195,0.005 -0.0121,0.0184 -0.0248,0.0221 -0.0339,0.01 -0.02,-0.0267 -0.22676,-0.0308 -0.24282,-0.005 -0.009,0.0145 -0.0311,0.0133 -0.0728,-0.004 -0.0441,-0.0183 -0.0754,-0.0194 -0.1188,-0.004 -0.0385,0.0134 -0.063,0.0139 -0.0708,10e-4 -0.008,-0.0127 -0.0202,-0.0125 -0.0359,5.9e-4 -0.0258,0.0215 -0.1841,0.0184 -0.22079,-0.004 -0.0124,-0.008 -0.0436,-0.006 -0.0693,0.004 -0.0285,0.0108 -0.0596,0.0106 -0.0797,-5.9e-4 -0.021,-0.0117 -0.0463,-0.0112 -0.0698,0.001 -0.0202,0.0108 -0.0436,0.0134 -0.0518,0.005 -0.008,-0.008 -0.0106,0.0102 -0.005,0.0398 0.0104,0.0575 0.009,0.0611 -0.0109,0.0408 z m 0.78563,-0.21255 c -0.006,-0.006 -0.0169,0.005 -0.0243,0.0241 -0.0106,0.0279 -0.008,0.0302 0.011,0.011 0.0134,-0.0133 0.0194,-0.0291 0.0134,-0.0351 z"
       id="path2689" />
  </g>
</svg>
